<svg width="18" height="19" viewBox="0 0 18 19" fill="none" xmlns="http://www.w3.org/2000/svg">
<path d="M5.00039 10.7898C5.42474 10.7898 5.8317 10.6213 6.13176 10.3212C6.43182 10.0212 6.60039 9.61419 6.60039 9.18984C6.60039 8.7655 6.43182 8.35853 6.13176 8.05847C5.8317 7.75842 5.42474 7.58984 5.00039 7.58984C4.57604 7.58984 4.16908 7.75842 3.86902 8.05847C3.56896 8.35853 3.40039 8.7655 3.40039 9.18984C3.40039 9.61419 3.56896 10.0212 3.86902 10.3212C4.16908 10.6213 4.57604 10.7898 5.00039 10.7898V10.7898Z" stroke="#707070" stroke-width="1.5" stroke-linecap="round" stroke-linejoin="round"/>
<path d="M13.0004 10.7898C13.4247 10.7898 13.8317 10.6213 14.1318 10.3212C14.4318 10.0212 14.6004 9.61419 14.6004 9.18984C14.6004 8.7655 14.4318 8.35853 14.1318 8.05847C13.8317 7.75842 13.4247 7.58984 13.0004 7.58984C12.576 7.58984 12.1691 7.75842 11.869 8.05847C11.569 8.35853 11.4004 8.7655 11.4004 9.18984C11.4004 9.61419 11.569 10.0212 11.869 10.3212C12.1691 10.6213 12.576 10.7898 13.0004 10.7898V10.7898Z" stroke="#707070" stroke-width="1.5" stroke-linecap="round" stroke-linejoin="round"/>
<path d="M9.00039 6.78984C9.42474 6.78984 9.8317 6.62127 10.1318 6.32121C10.4318 6.02116 10.6004 5.61419 10.6004 5.18984C10.6004 4.7655 10.4318 4.35853 10.1318 4.05847C9.8317 3.75841 9.42474 3.58984 9.00039 3.58984C8.57604 3.58984 8.16908 3.75841 7.86902 4.05847C7.56896 4.35853 7.40039 4.7655 7.40039 5.18984C7.40039 5.61419 7.56896 6.02116 7.86902 6.32121C8.16908 6.62127 8.57604 6.78984 9.00039 6.78984Z" stroke="#707070" stroke-width="1.5" stroke-linecap="round" stroke-linejoin="round"/>
<path d="M9.00039 14.7898C9.42474 14.7898 9.8317 14.6213 10.1318 14.3212C10.4318 14.0212 10.6004 13.6142 10.6004 13.1898C10.6004 12.7655 10.4318 12.3585 10.1318 12.0585C9.8317 11.7584 9.42474 11.5898 9.00039 11.5898C8.57604 11.5898 8.16908 11.7584 7.86902 12.0585C7.56896 12.3585 7.40039 12.7655 7.40039 13.1898C7.40039 13.6142 7.56896 14.0212 7.86902 14.3212C8.16908 14.6213 8.57604 14.7898 9.00039 14.7898Z" stroke="#707070" stroke-width="1.5" stroke-linecap="round" stroke-linejoin="round"/>
<path d="M1 9.18945V17.1895M1 9.18945C1 13.6079 4.5816 17.1895 9 17.1895C13.4184 17.1895 17 13.6079 17 9.18945C17 4.77105 13.4184 1.18945 9 1.18945C4.5816 1.18945 1 4.77105 1 9.18945Z" stroke="#707070" stroke-width="1.5" stroke-linecap="round" stroke-linejoin="round"/>
</svg>
