<svg width="16" height="17" viewBox="0 0 16 17" fill="none" xmlns="http://www.w3.org/2000/svg">
<path fill-rule="evenodd" clip-rule="evenodd" d="M15 3.56591V12.6189C15 13.1325 14.7744 13.6202 14.383 13.9527C13.9916 14.2852 13.4738 14.429 12.967 14.3459L10.722 13.9789L5.278 15.3789L2.468 14.9189C1.6216 14.7807 1.00006 14.0495 1 13.1919V4.13891C0.99999 3.62532 1.22559 3.13765 1.61702 2.80514C2.00844 2.47263 2.52617 2.32885 3.033 2.41191L5.278 2.77891L10.722 1.37891L13.532 1.83891C14.3784 1.9771 14.9999 2.7083 15 3.56591Z" stroke="#707070" stroke-width="1.5" stroke-linecap="round" stroke-linejoin="round"/>
<path d="M6.02734 2.7793C6.02734 2.36508 5.69156 2.0293 5.27734 2.0293C4.86313 2.0293 4.52734 2.36508 4.52734 2.7793H6.02734ZM4.52734 15.3793C4.52734 15.7935 4.86313 16.1293 5.27734 16.1293C5.69156 16.1293 6.02734 15.7935 6.02734 15.3793H4.52734ZM11.4707 1.37891C11.4707 0.964693 11.1349 0.628906 10.7207 0.628906C10.3065 0.628906 9.9707 0.964693 9.9707 1.37891H11.4707ZM9.9707 13.9789C9.9707 14.3931 10.3065 14.7289 10.7207 14.7289C11.1349 14.7289 11.4707 14.3931 11.4707 13.9789H9.9707ZM4.52734 2.7793V15.3793H6.02734V2.7793H4.52734ZM9.9707 1.37891V13.9789H11.4707V1.37891H9.9707Z" fill="#707070"/>
</svg>
