<svg width="16" height="17" viewBox="0 0 16 17" fill="none" xmlns="http://www.w3.org/2000/svg">
<g clip-path="url(#clip0_1360_11273)">
<path d="M1.23077 0.189453C1.23077 0.189453 0 0.189453 0 1.42022V7.76853C0 9.89776 0.435692 12.4971 4.30769 12.4971H4.92308V8.80484L1.84615 10.0356C1.84615 10.0356 1.84615 6.95868 4.92308 6.95868V5.11253C4.92308 4.24115 5.03015 3.48791 5.53846 2.92791C6.00738 2.41099 6.77538 1.37961 8.80739 2.34822L9.84615 3.02391V1.42022C9.84615 1.42022 9.84615 0.189453 8.61539 0.189453C7.744 0.189453 6.18092 1.42022 4.92308 1.42022C3.66523 1.42022 2.19938 0.189453 1.23077 0.189453ZM2.46154 2.65099C2.78796 2.65099 3.10101 2.78066 3.33182 3.01148C3.56264 3.24229 3.69231 3.55534 3.69231 3.88176C3.69231 4.20818 3.56264 4.52123 3.33182 4.75205C3.10101 4.98286 2.78796 5.11253 2.46154 5.11253C2.13512 5.11253 1.82207 4.98286 1.59125 4.75205C1.36044 4.52123 1.23077 4.20818 1.23077 3.88176C1.23077 3.55534 1.36044 3.24229 1.59125 3.01148C1.82207 2.78066 2.13512 2.65099 2.46154 2.65099ZM7.38462 3.88176C7.38462 3.88176 6.15385 3.88176 6.15385 5.11253V11.2664C6.15385 13.7279 7.38462 16.1895 11.0769 16.1895C14.7692 16.1895 16 13.7279 16 11.2664V5.11253C16 3.88176 14.7692 3.88176 14.7692 3.88176C13.8978 3.88176 12.3348 5.11253 11.0769 5.11253C9.81908 5.11253 8.35323 3.88176 7.38462 3.88176ZM8.61539 6.3433C8.9418 6.3433 9.25486 6.47297 9.48567 6.70378C9.71648 6.9346 9.84615 7.24765 9.84615 7.57407C9.84615 7.90049 9.71648 8.21354 9.48567 8.44435C9.25486 8.67517 8.9418 8.80484 8.61539 8.80484C8.28896 8.80484 7.97591 8.67517 7.7451 8.44435C7.51429 8.21354 7.38462 7.90049 7.38462 7.57407C7.38462 7.24765 7.51429 6.9346 7.7451 6.70378C7.97591 6.47297 8.28896 6.3433 8.61539 6.3433ZM13.5385 6.3433C13.8649 6.3433 14.1779 6.47297 14.4087 6.70378C14.6396 6.9346 14.7692 7.24765 14.7692 7.57407C14.7692 7.90049 14.6396 8.21354 14.4087 8.44435C14.1779 8.67517 13.8649 8.80484 13.5385 8.80484C13.212 8.80484 12.899 8.67517 12.6682 8.44435C12.4374 8.21354 12.3077 7.90049 12.3077 7.57407C12.3077 7.24765 12.4374 6.9346 12.6682 6.70378C12.899 6.47297 13.212 6.3433 13.5385 6.3433ZM8 11.2664H14.1538C14.1538 11.2664 14.1538 14.3433 11.0769 14.3433C8 14.3433 8 11.2664 8 11.2664Z" fill="#707070"/>
</g>
<defs>
<clipPath id="clip0_1360_11273">
<rect width="16" height="16" fill="white" transform="translate(0 0.189453)"/>
</clipPath>
</defs>
</svg>
