<svg width="22" height="16" viewBox="0 0 22 16" fill="none" xmlns="http://www.w3.org/2000/svg">
<path fill-rule="evenodd" clip-rule="evenodd" d="M13.375 3.375C13.375 4.68668 12.3117 5.75 11 5.75C9.68832 5.75 8.625 4.68668 8.625 3.375C8.625 2.06332 9.68832 1 11 1C12.3117 1 13.375 2.06332 13.375 3.375Z" stroke="white" stroke-width="1.5" stroke-linecap="round" stroke-linejoin="round"/>
<path fill-rule="evenodd" clip-rule="evenodd" d="M15.75 11.7748C15.75 13.5748 13.623 15.0418 11 15.0418C8.377 15.0418 6.25 13.5788 6.25 11.7748C6.25 9.97079 8.377 8.50879 11 8.50879C13.623 8.50879 15.75 9.97079 15.75 11.7748Z" stroke="white" stroke-width="1.5" stroke-linecap="round" stroke-linejoin="round"/>
<path fill-rule="evenodd" clip-rule="evenodd" d="M18.4006 5.55288C18.4108 6.13141 18.0701 6.65864 17.5385 6.8871C17.0069 7.11556 16.3899 6.9999 15.9772 6.59439C15.5644 6.18888 15.4378 5.57405 15.6569 5.03849C15.8759 4.50293 16.397 4.15297 16.9756 4.15288C17.7556 4.14623 18.3935 4.77289 18.4006 5.55288V5.55288Z" stroke="white" stroke-width="1.5" stroke-linecap="round" stroke-linejoin="round"/>
<path fill-rule="evenodd" clip-rule="evenodd" d="M3.59983 5.55288C3.58968 6.13141 3.93036 6.65864 4.46196 6.8871C4.99356 7.11556 5.61054 6.9999 6.02328 6.59439C6.43603 6.18888 6.5626 5.57405 6.34358 5.03849C6.12456 4.50293 5.60344 4.15297 5.02483 4.15288C4.24483 4.14623 3.60698 4.77289 3.59983 5.55288Z" stroke="white" stroke-width="1.5" stroke-linecap="round" stroke-linejoin="round"/>
<path d="M17.7169 13.3618C17.3043 13.3248 16.9399 13.6294 16.903 14.0419C16.866 14.4545 17.1705 14.8189 17.5831 14.8558L17.7169 13.3618ZM20.5 11.7748L21.2455 11.8565C21.2515 11.8021 21.2515 11.7472 21.2455 11.6928L20.5 11.7748ZM17.5831 8.69479C17.1705 8.73175 16.866 9.09616 16.903 9.50872C16.9399 9.92128 17.3044 10.2258 17.7169 10.1888L17.5831 8.69479ZM4.41689 14.8558C4.82945 14.8189 5.13395 14.4545 5.09701 14.0419C5.06007 13.6294 4.69567 13.3248 4.28311 13.3618L4.41689 14.8558ZM1.5 11.7748L0.754491 11.6928C0.748513 11.7472 0.748503 11.8021 0.75446 11.8565L1.5 11.7748ZM4.28308 10.1888C4.69564 10.2258 5.06005 9.92128 5.09701 9.50872C5.13397 9.09616 4.82948 8.73175 4.41692 8.69479L4.28308 10.1888ZM17.5831 14.8558C19.4169 15.02 21.045 13.6867 21.2455 11.8565L19.7545 11.6931C19.6429 12.7114 18.7371 13.4531 17.7169 13.3618L17.5831 14.8558ZM21.2455 11.6928C21.0444 9.86314 19.4165 8.53055 17.5831 8.69479L17.7169 10.1888C18.7369 10.0974 19.6426 10.8388 19.7545 11.8568L21.2455 11.6928ZM4.28311 13.3618C3.26287 13.4531 2.35709 12.7114 2.24554 11.6931L0.75446 11.8565C0.954964 13.6867 2.58306 15.02 4.41689 14.8558L4.28311 13.3618ZM2.24551 11.8568C2.35742 10.8388 3.26309 10.0974 4.28308 10.1888L4.41692 8.69479C2.58354 8.53055 0.955639 9.86314 0.754491 11.6928L2.24551 11.8568Z" fill="white"/>
</svg>
