<svg width="16" height="16" viewBox="0 0 16 16" fill="none" xmlns="http://www.w3.org/2000/svg">
<path d="M1.33398 7.25004C0.919771 7.25004 0.583984 7.58583 0.583984 8.00004C0.583984 8.41425 0.919771 8.75004 1.33398 8.75004V7.25004ZM8.00065 8.75004C8.41487 8.75004 8.75065 8.41425 8.75065 8.00004C8.75065 7.58583 8.41487 7.25004 8.00065 7.25004V8.75004ZM8.00065 7.25004C7.58644 7.25004 7.25065 7.58583 7.25065 8.00004C7.25065 8.41425 7.58644 8.75004 8.00065 8.75004V7.25004ZM14.6673 8.75004C15.0815 8.75004 15.4173 8.41425 15.4173 8.00004C15.4173 7.58583 15.0815 7.25004 14.6673 7.25004V8.75004ZM8.75065 8.00004C8.75065 7.58583 8.41486 7.25004 8.00065 7.25004C7.58644 7.25004 7.25065 7.58583 7.25065 8.00004H8.75065ZM7.25065 14.6667C7.25065 15.0809 7.58644 15.4167 8.00065 15.4167C8.41486 15.4167 8.75065 15.0809 8.75065 14.6667H7.25065ZM7.25065 8.00004C7.25065 8.41425 7.58644 8.75004 8.00065 8.75004C8.41486 8.75004 8.75065 8.41425 8.75065 8.00004H7.25065ZM8.75065 1.33337C8.75065 0.91916 8.41486 0.583374 8.00065 0.583374C7.58644 0.583374 7.25065 0.91916 7.25065 1.33337H8.75065ZM1.33398 8.75004H8.00065V7.25004H1.33398V8.75004ZM8.00065 8.75004H14.6673V7.25004H8.00065V8.75004ZM8.00065 8.00004H7.25065C7.25065 8.00004 7.25065 8.00004 7.25065 8.00004C7.25065 8.00004 7.25065 8.00004 7.25065 8.00004C7.25065 8.00004 7.25065 8.00004 7.25065 8.00004C7.25065 8.00004 7.25065 8.00005 7.25065 8.00005C7.25065 8.00005 7.25065 8.00005 7.25065 8.00005C7.25065 8.00005 7.25065 8.00006 7.25065 8.00006C7.25065 8.00006 7.25065 8.00006 7.25065 8.00007C7.25065 8.00007 7.25065 8.00007 7.25065 8.00008C7.25065 8.00008 7.25065 8.00009 7.25065 8.00009C7.25065 8.0001 7.25065 8.0001 7.25065 8.00011C7.25065 8.00011 7.25065 8.00012 7.25065 8.00013C7.25065 8.00013 7.25065 8.00014 7.25065 8.00015C7.25065 8.00016 7.25065 8.00017 7.25065 8.00018C7.25065 8.00019 7.25065 8.0002 7.25065 8.00021C7.25065 8.00022 7.25065 8.00023 7.25065 8.00024C7.25065 8.00026 7.25065 8.00027 7.25065 8.00029C7.25065 8.0003 7.25065 8.00031 7.25065 8.00033C7.25065 8.00035 7.25065 8.00036 7.25065 8.00038C7.25065 8.0004 7.25065 8.00042 7.25065 8.00044C7.25065 8.00046 7.25065 8.00048 7.25065 8.0005C7.25065 8.00052 7.25065 8.00055 7.25065 8.00057C7.25065 8.00059 7.25065 8.00062 7.25065 8.00065C7.25065 8.00067 7.25065 8.0007 7.25065 8.00073C7.25065 8.00076 7.25065 8.00079 7.25065 8.00082C7.25065 8.00085 7.25065 8.00088 7.25065 8.00091C7.25065 8.00095 7.25065 8.00098 7.25065 8.00102C7.25065 8.00105 7.25065 8.00109 7.25065 8.00113C7.25065 8.00117 7.25065 8.00121 7.25065 8.00125C7.25065 8.00129 7.25065 8.00134 7.25065 8.00138C7.25065 8.00143 7.25065 8.00147 7.25065 8.00152C7.25065 8.00157 7.25065 8.00162 7.25065 8.00167C7.25065 8.00172 7.25065 8.00177 7.25065 8.00183C7.25065 8.00188 7.25065 8.00194 7.25065 8.00199C7.25065 8.00205 7.25065 8.00211 7.25065 8.00217C7.25065 8.00223 7.25065 8.00229 7.25065 8.00236C7.25065 8.00242 7.25065 8.00249 7.25065 8.00256C7.25065 8.00262 7.25065 8.00269 7.25065 8.00277C7.25065 8.00284 7.25065 8.00291 7.25065 8.00299C7.25065 8.00306 7.25065 8.00314 7.25065 8.00322C7.25065 8.0033 7.25065 8.00338 7.25065 8.00346C7.25065 8.00355 7.25065 8.00363 7.25065 8.00372C7.25065 8.00381 7.25065 8.0039 7.25065 8.00399C7.25065 8.00408 7.25065 8.00418 7.25065 8.00427C7.25065 8.00437 7.25065 8.00447 7.25065 8.00457C7.25065 8.00467 7.25065 8.00477 7.25065 8.00488C7.25065 8.00498 7.25065 8.00509 7.25065 8.0052C7.25065 8.00531 7.25065 8.00542 7.25065 8.00553C7.25065 8.00565 7.25065 8.00577 7.25065 8.00588C7.25065 8.006 7.25065 8.00613 7.25065 8.00625C7.25065 8.00637 7.25065 8.0065 7.25065 8.00663C7.25065 8.00676 7.25065 8.00689 7.25065 8.00703C7.25065 8.00716 7.25065 8.0073 7.25065 8.00744C7.25065 8.00758 7.25065 8.00772 7.25065 8.00786C7.25065 8.00801 7.25065 8.00815 7.25065 8.00831C7.25065 8.00846 7.25065 8.00861 7.25065 8.00876C7.25065 8.00892 7.25065 8.00908 7.25065 8.00924C7.25065 8.0094 7.25065 8.00957 7.25065 8.00973C7.25065 8.0099 7.25065 8.01007 7.25065 8.01024C7.25065 8.01042 7.25065 8.01059 7.25065 8.01077C7.25065 8.01095 7.25065 8.01113 7.25065 8.01132C7.25065 8.0115 7.25065 8.01169 7.25065 8.01188C7.25065 8.01207 7.25065 8.01226 7.25065 8.01246C7.25065 8.01266 7.25065 8.01286 7.25065 8.01306C7.25065 8.01327 7.25065 8.01347 7.25065 8.01368C7.25065 8.01389 7.25065 8.0141 7.25065 8.01432C7.25065 8.01454 7.25065 8.01476 7.25065 8.01498C7.25065 8.0152 7.25065 8.01543 7.25065 8.01566C7.25065 8.01589 7.25065 8.01612 7.25065 8.01636C7.25065 8.01659 7.25065 8.01683 7.25065 8.01708C7.25065 8.01732 7.25065 8.01757 7.25065 8.01782C7.25065 8.01807 7.25065 8.01832 7.25065 8.01858C7.25065 8.01884 7.25065 8.0191 7.25065 8.01936C7.25065 8.01963 7.25065 8.0199 7.25065 8.02017C7.25065 8.02044 7.25065 8.02072 7.25065 8.021C7.25065 8.02128 7.25065 8.02156 7.25065 8.02185C7.25065 8.02213 7.25065 8.02242 7.25065 8.02272C7.25065 8.02301 7.25065 8.02331 7.25065 8.02361C7.25065 8.02391 7.25065 8.02422 7.25065 8.02453C7.25065 8.02484 7.25065 8.02515 7.25065 8.02547C7.25065 8.02579 7.25065 8.02611 7.25065 8.02644C7.25065 8.02676 7.25065 8.02709 7.25065 8.02743C7.25065 8.02776 7.25065 8.0281 7.25065 8.02844C7.25065 8.02878 7.25065 8.02913 7.25065 8.02948C7.25065 8.02983 7.25065 8.03019 7.25065 8.03054C7.25065 8.0309 7.25065 8.03127 7.25065 8.03163C7.25065 8.032 7.25065 8.03237 7.25065 8.03275C7.25065 8.03312 7.25065 8.03351 7.25065 8.03389C7.25065 8.03427 7.25065 8.03466 7.25065 8.03506C7.25065 8.03545 7.25065 8.03585 7.25065 8.03625C7.25065 8.03665 7.25065 8.03706 7.25065 8.03747C7.25065 8.03788 7.25065 8.0383 7.25065 8.03872C7.25065 8.03914 7.25065 8.03956 7.25065 8.03999C7.25065 8.04042 7.25065 8.04086 7.25065 8.0413C7.25065 8.04174 7.25065 8.04218 7.25065 8.04263C7.25065 8.04308 7.25065 8.04353 7.25065 8.04399C7.25065 8.04444 7.25065 8.04491 7.25065 8.04537C7.25065 8.04584 7.25065 8.04631 7.25065 8.04679C7.25065 8.04727 7.25065 8.04775 7.25065 8.04824C7.25065 8.04872 7.25065 8.04921 7.25065 8.04971C7.25065 8.05021 7.25065 8.05071 7.25065 8.05122C7.25065 8.05172 7.25065 8.05224 7.25065 8.05275C7.25065 8.05327 7.25065 8.05379 7.25065 8.05432C7.25065 8.05484 7.25065 8.05538 7.25065 8.05591C7.25065 8.05645 7.25065 8.05699 7.25065 8.05754C7.25065 8.05809 7.25065 8.05864 7.25065 8.0592C7.25065 8.05976 7.25065 8.06032 7.25065 8.06089C7.25065 8.06146 7.25065 8.06203 7.25065 8.06261C7.25065 8.06319 7.25065 8.06378 7.25065 8.06437C7.25065 8.06496 7.25065 8.06555 7.25065 8.06615C7.25065 8.06675 7.25065 8.06736 7.25065 8.06797C7.25065 8.06858 7.25065 8.0692 7.25065 8.06982C7.25065 8.07045 7.25065 8.07108 7.25065 8.07171C7.25065 8.07234 7.25065 8.07298 7.25065 8.07363C7.25065 8.07428 7.25065 8.07493 7.25065 8.07558C7.25065 8.07624 7.25065 8.0769 7.25065 8.07757C7.25065 8.07824 7.25065 8.07891 7.25065 8.07959C7.25065 8.08027 7.25065 8.08096 7.25065 8.08165C7.25065 8.08234 7.25065 8.08304 7.25065 8.08374C7.25065 8.08445 7.25065 8.08516 7.25065 8.08587C7.25065 8.08659 7.25065 8.08731 7.25065 8.08804C7.25065 8.08876 7.25065 8.0895 7.25065 8.09024C7.25065 8.09097 7.25065 8.09172 7.25065 8.09247C7.25065 8.09322 7.25065 8.09398 7.25065 8.09474C7.25065 8.09551 7.25065 8.09628 7.25065 8.09705C7.25065 8.09783 7.25065 8.09861 7.25065 8.0994C7.25065 8.10019 7.25065 8.10098 7.25065 8.10179C7.25065 8.10259 7.25065 8.10339 7.25065 8.10421C7.25065 8.10502 7.25065 8.10584 7.25065 8.10667C7.25065 8.10749 7.25065 8.10833 7.25065 8.10917C7.25065 8.11001 7.25065 8.11085 7.25065 8.1117C7.25065 8.11256 7.25065 8.11342 7.25065 8.11428C7.25065 8.11515 7.25065 8.11602 7.25065 8.1169C7.25065 8.11778 7.25065 8.11866 7.25065 8.11955C7.25065 8.12045 7.25065 8.12134 7.25065 8.12225C7.25065 8.12315 7.25065 8.12407 7.25065 8.12499C7.25065 8.1259 7.25065 8.12683 7.25065 8.12776C7.25065 8.12869 7.25065 8.12963 7.25065 8.13058C7.25065 8.13152 7.25065 8.13248 7.25065 8.13344C7.25065 8.1344 7.25065 8.13536 7.25065 8.13634C7.25065 8.13731 7.25065 8.13829 7.25065 8.13928C7.25065 8.14027 7.25065 8.14126 7.25065 8.14226C7.25065 8.14326 7.25065 8.14427 7.25065 8.14529C7.25065 8.1463 7.25065 8.14733 7.25065 8.14836C7.25065 8.14939 7.25065 8.15042 7.25065 8.15147C7.25065 8.15251 7.25065 8.15356 7.25065 8.15462C7.25065 8.15568 7.25065 8.15675 7.25065 8.15782C7.25065 8.15889 7.25065 8.15997 7.25065 8.16106C7.25065 8.16215 7.25065 8.16325 7.25065 8.16435C7.25065 8.16545 7.25065 8.16656 7.25065 8.16768C7.25065 8.1688 7.25065 8.16992 7.25065 8.17105C7.25065 8.17219 7.25065 8.17333 7.25065 8.17447C7.25065 8.17562 7.25065 8.17678 7.25065 8.17794C7.25065 8.1791 7.25065 8.18027 7.25065 8.18145C7.25065 8.18263 7.25065 8.18381 7.25065 8.18501C7.25065 8.1862 7.25065 8.1874 7.25065 8.18861C7.25065 8.18982 7.25065 8.19104 7.25065 8.19226C7.25065 8.19348 7.25065 8.19472 7.25065 8.19596C7.25065 8.1972 7.25065 8.19844 7.25065 8.1997C7.25065 8.20096 7.25065 8.20222 7.25065 8.20349C7.25065 8.20476 7.25065 8.20604 7.25065 8.20733C7.25065 8.20862 7.25065 8.20991 7.25065 8.21122C7.25065 8.21252 7.25065 8.21383 7.25065 8.21515C7.25065 8.21647 7.25065 8.2178 7.25065 8.21913C7.25065 8.22047 7.25065 8.22182 7.25065 8.22317C7.25065 8.22452 7.25065 8.22588 7.25065 8.22725C7.25065 8.22862 7.25065 8.22999 7.25065 8.23138C7.25065 8.23276 7.25065 8.23416 7.25065 8.23556C7.25065 8.23696 7.25065 8.23837 7.25065 8.23979C7.25065 8.24121 7.25065 8.24264 7.25065 8.24407C7.25065 8.24551 7.25065 8.24695 7.25065 8.2484C7.25065 8.24986 7.25065 8.25132 7.25065 8.25279C7.25065 8.25426 7.25065 8.25573 7.25065 8.25722C7.25065 8.25871 7.25065 8.2602 7.25065 8.26171C7.25065 8.26321 7.25065 8.26472 7.25065 8.26624C7.25065 8.26777 7.25065 8.2693 7.25065 8.27083C7.25065 8.27237 7.25065 8.27392 7.25065 8.27548C7.25065 8.27703 7.25065 8.2786 7.25065 8.28017C7.25065 8.28174 7.25065 8.28333 7.25065 8.28492C7.25065 8.28651 7.25065 8.28811 7.25065 8.28972C7.25065 8.29133 7.25065 8.29295 7.25065 8.29457C7.25065 8.2962 7.25065 8.29784 7.25065 8.29948C7.25065 8.30113 7.25065 8.30278 7.25065 8.30445C7.25065 8.30611 7.25065 8.30778 7.25065 8.30946C7.25065 8.31115 7.25065 8.31284 7.25065 8.31454C7.25065 8.31624 7.25065 8.31795 7.25065 8.31966C7.25065 8.32138 7.25065 8.32311 7.25065 8.32485C7.25065 8.32658 7.25065 8.32833 7.25065 8.33009C7.25065 8.33184 7.25065 8.33361 7.25065 8.33538C7.25065 8.33715 7.25065 8.33894 7.25065 8.34073C7.25065 8.34252 7.25065 8.34433 7.25065 8.34614C7.25065 8.34795 7.25065 8.34977 7.25065 8.3516C7.25065 8.35343 7.25065 8.35528 7.25065 8.35713C7.25065 8.35898 7.25065 8.36084 7.25065 8.3627C7.25065 8.36457 7.25065 8.36645 7.25065 8.36834C7.25065 8.37023 7.25065 8.37213 7.25065 8.37404C7.25065 8.37595 7.25065 8.37786 7.25065 8.37979C7.25065 8.38172 7.25065 8.38366 7.25065 8.3856C7.25065 8.38755 7.25065 8.38951 7.25065 8.39147C7.25065 8.39344 7.25065 8.39542 7.25065 8.39741C7.25065 8.39939 7.25065 8.40139 7.25065 8.4034C7.25065 8.4054 7.25065 8.40742 7.25065 8.40945C7.25065 8.41147 7.25065 8.41351 7.25065 8.41556C7.25065 8.4176 7.25065 8.41966 7.25065 8.42173C7.25065 8.42379 7.25065 8.42587 7.25065 8.42796C7.25065 8.43005 7.25065 8.43214 7.25065 8.43425C7.25065 8.43636 7.25065 8.43848 7.25065 8.44061C7.25065 8.44273 7.25065 8.44487 7.25065 8.44702C7.25065 8.44917 7.25065 8.45133 7.25065 8.4535C7.25065 8.45567 7.25065 8.45785 7.25065 8.46004C7.25065 8.46223 7.25065 8.46443 7.25065 8.46664C7.25065 8.46885 7.25065 8.47108 7.25065 8.47331C7.25065 8.47554 7.25065 8.47778 7.25065 8.48004C7.25065 8.48229 7.25065 8.48455 7.25065 8.48683C7.25065 8.4891 7.25065 8.49139 7.25065 8.49369C7.25065 8.49598 7.25065 8.49829 7.25065 8.50061C7.25065 8.50292 7.25065 8.50525 7.25065 8.50759C7.25065 8.50993 7.25065 8.51228 7.25065 8.51464C7.25065 8.517 7.25065 8.51937 7.25065 8.52175C7.25065 8.52414 7.25065 8.52653 7.25065 8.52893C7.25065 8.53134 7.25065 8.53375 7.25065 8.53618C7.25065 8.5386 7.25065 8.54104 7.25065 8.54349C7.25065 8.54594 7.25065 8.5484 7.25065 8.55087C7.25065 8.55334 7.25065 8.55582 7.25065 8.55831C7.25065 8.5608 7.25065 8.5633 7.25065 8.56582C7.25065 8.56833 7.25065 8.57086 7.25065 8.5734C7.25065 8.57593 7.25065 8.57848 7.25065 8.58104C7.25065 8.5836 7.25065 8.58617 7.25065 8.58875C7.25065 8.59134 7.25065 8.59393 7.25065 8.59653C7.25065 8.59914 7.25065 8.60175 7.25065 8.60438C7.25065 8.60701 7.25065 8.60965 7.25065 8.6123C7.25065 8.61495 7.25065 8.61761 7.25065 8.62029C7.25065 8.62296 7.25065 8.62564 7.25065 8.62834C7.25065 8.63104 7.25065 8.63375 7.25065 8.63646C7.25065 8.63918 7.25065 8.64192 7.25065 8.64466C7.25065 8.6474 7.25065 8.65016 7.25065 8.65292C7.25065 8.65569 7.25065 8.65847 7.25065 8.66126C7.25065 8.66405 7.25065 8.66685 7.25065 8.66966C7.25065 8.67248 7.25065 8.6753 7.25065 8.67814C7.25065 8.68098 7.25065 8.68383 7.25065 8.68669C7.25065 8.68955 7.25065 8.69242 7.25065 8.69531C7.25065 8.69819 7.25065 8.70109 7.25065 8.704C7.25065 8.7069 7.25065 8.70983 7.25065 8.71276C7.25065 8.71569 7.25065 8.71864 7.25065 8.72159C7.25065 8.72455 7.25065 8.72752 7.25065 8.7305C7.25065 8.73348 7.25065 8.73648 7.25065 8.73948C7.25065 8.74249 7.25065 8.74551 7.25065 8.74854C7.25065 8.75157 7.25065 8.75461 7.25065 8.75767C7.25065 8.76072 7.25065 8.76379 7.25065 8.76687C7.25065 8.76995 7.25065 8.77304 7.25065 8.77614C7.25065 8.77925 7.25065 8.78236 7.25065 8.78549C7.25065 8.78862 7.25065 8.79176 7.25065 8.79492C7.25065 8.79807 7.25065 8.80124 7.25065 8.80442C7.25065 8.8076 7.25065 8.81079 7.25065 8.814C7.25065 8.8172 7.25065 8.82042 7.25065 8.82365C7.25065 8.82688 7.25065 8.83012 7.25065 8.83337C7.25065 8.83663 7.25065 8.8399 7.25065 8.84318C7.25065 8.84646 7.25065 8.84975 7.25065 8.85306C7.25065 8.85636 7.25065 8.85968 7.25065 8.86302C7.25065 8.86635 7.25065 8.86969 7.25065 8.87305C7.25065 8.87641 7.25065 8.87978 7.25065 8.88316C7.25065 8.88655 7.25065 8.88994 7.25065 8.89335C7.25065 8.89676 7.25065 8.90018 7.25065 8.90362C7.25065 8.90706 7.25065 8.9105 7.25065 8.91397C7.25065 8.91743 7.25065 8.9209 7.25065 8.92439C7.25065 8.92788 7.25065 8.93138 7.25065 8.9349C7.25065 8.93841 7.25065 8.94194 7.25065 8.94548C7.25065 8.94902 7.25065 8.95257 7.25065 8.95614C7.25065 8.95971 7.25065 8.96329 7.25065 8.96688C7.25065 8.97048 7.25065 8.97409 7.25065 8.97771C7.25065 8.98133 7.25065 8.98496 7.25065 8.98861C7.25065 8.99226 7.25065 8.99592 7.25065 8.99959C7.25065 9.00327 7.25065 9.00696 7.25065 9.01066C7.25065 9.01436 7.25065 9.01808 7.25065 9.0218C7.25065 9.02553 7.25065 9.02928 7.25065 9.03303C7.25065 9.03679 7.25065 9.04056 7.25065 9.04434C7.25065 9.04813 7.25065 9.05192 7.25065 9.05574C7.25065 9.05955 7.25065 9.06337 7.25065 9.06721C7.25065 9.07105 7.25065 9.0749 7.25065 9.07877C7.25065 9.08263 7.25065 9.08651 7.25065 9.09041C7.25065 9.0943 7.25065 9.09821 7.25065 9.10213C7.25065 9.10605 7.25065 9.10999 7.25065 9.11394C7.25065 9.11789 7.25065 9.12185 7.25065 9.12583C7.25065 9.12981 7.25065 9.1338 7.25065 9.13781C7.25065 9.14182 7.25065 9.14584 7.25065 9.14987C7.25065 9.1539 7.25065 9.15795 7.25065 9.16202C7.25065 9.16608 7.25065 9.17016 7.25065 9.17425C7.25065 9.17834 7.25065 9.18244 7.25065 9.18656C7.25065 9.19068 7.25065 9.19482 7.25065 9.19897C7.25065 9.20312 7.25065 9.20728 7.25065 9.21146C7.25065 9.21563 7.25065 9.21982 7.25065 9.22403C7.25065 9.22824 7.25065 9.23246 7.25065 9.23669C7.25065 9.24093 7.25065 9.24518 7.25065 9.24944C7.25065 9.25371 7.25065 9.25798 7.25065 9.26228C7.25065 9.26657 7.25065 9.27088 7.25065 9.2752C7.25065 9.27952 7.25065 9.28386 7.25065 9.28821C7.25065 9.29257 7.25065 9.29693 7.25065 9.30131C7.25065 9.30569 7.25065 9.31009 7.25065 9.3145C7.25065 9.31891 7.25065 9.32334 7.25065 9.32778C7.25065 9.33222 7.25065 9.33667 7.25065 9.34115C7.25065 9.34562 7.25065 9.3501 7.25065 9.3546C7.25065 9.3591 7.25065 9.36362 7.25065 9.36815C7.25065 9.37268 7.25065 9.37722 7.25065 9.38178C7.25065 9.38634 7.25065 9.39092 7.25065 9.39551C7.25065 9.4001 7.25065 9.4047 7.25065 9.40932C7.25065 9.41395 7.25065 9.41858 7.25065 9.42323C7.25065 9.42788 7.25065 9.43255 7.25065 9.43723C7.25065 9.44191 7.25065 9.44661 7.25065 9.45132C7.25065 9.45603 7.25065 9.46076 7.25065 9.4655C7.25065 9.47024 7.25065 9.475 7.25065 9.47978C7.25065 9.48455 7.25065 9.48934 7.25065 9.49414C7.25065 9.49895 7.25065 9.50377 7.25065 9.5086C7.25065 9.51344 7.25065 9.51829 7.25065 9.52315C7.25065 9.52802 7.25065 9.5329 7.25065 9.5378C7.25065 9.5427 7.25065 9.54761 7.25065 9.55254C7.25065 9.55747 7.25065 9.56241 7.25065 9.56737C7.25065 9.57233 7.25065 9.5773 7.25065 9.5823C7.25065 9.58729 7.25065 9.59229 7.25065 9.59732C7.25065 9.60234 7.25065 9.60738 7.25065 9.61243C7.25065 9.61749 7.25065 9.62256 7.25065 9.62765C7.25065 9.63273 7.25065 9.63783 7.25065 9.64295C7.25065 9.64807 7.25065 9.6532 7.25065 9.65835C7.25065 9.6635 7.25065 9.66867 7.25065 9.67385C7.25065 9.67903 7.25065 9.68423 7.25065 9.68945C7.25065 9.69466 7.25065 9.69989 7.25065 9.70514C7.25065 9.71038 7.25065 9.71565 7.25065 9.72093C7.25065 9.7262 7.25065 9.7315 7.25065 9.73681C7.25065 9.74212 7.25065 9.74745 7.25065 9.75279C7.25065 9.75814 7.25065 9.7635 7.25065 9.76887C7.25065 9.77425 7.25065 9.77964 7.25065 9.78505C7.25065 9.79046 7.25065 9.79589 7.25065 9.80133C7.25065 9.80677 7.25065 9.81223 7.25065 9.8177C7.25065 9.82318 7.25065 9.82867 7.25065 9.83418C7.25065 9.83968 7.25065 9.84521 7.25065 9.85075C7.25065 9.85629 7.25065 9.86185 7.25065 9.86742C7.25065 9.873 7.25065 9.87859 7.25065 9.8842C7.25065 9.8898 7.25065 9.89543 7.25065 9.90107C7.25065 9.90671 7.25065 9.91237 7.25065 9.91804C7.25065 9.92372 7.25065 9.92941 7.25065 9.93512C7.25065 9.94082 7.25065 9.94655 7.25065 9.95229C7.25065 9.95803 7.25065 9.96379 7.25065 9.96957C7.25065 9.97534 7.25065 9.98114 7.25065 9.98695C7.25065 9.99276 7.25065 9.99858 7.25065 10.0044C7.25065 10.0103 7.25065 10.0161 7.25065 10.022C7.25065 10.0279 7.25065 10.0338 7.25065 10.0397C7.25065 10.0456 7.25065 10.0515 7.25065 10.0575C7.25065 10.0634 7.25065 10.0694 7.25065 10.0754C7.25065 10.0814 7.25065 10.0873 7.25065 10.0934C7.25065 10.0994 7.25065 10.1054 7.25065 10.1115C7.25065 10.1175 7.25065 10.1236 7.25065 10.1297C7.25065 10.1357 7.25065 10.1419 7.25065 10.148C7.25065 10.1541 7.25065 10.1602 7.25065 10.1664C7.25065 10.1725 7.25065 10.1787 7.25065 10.1849C7.25065 10.1911 7.25065 10.1973 7.25065 10.2035C7.25065 10.2097 7.25065 10.216 7.25065 10.2222C7.25065 10.2285 7.25065 10.2348 7.25065 10.2411C7.25065 10.2474 7.25065 10.2537 7.25065 10.26C7.25065 10.2663 7.25065 10.2727 7.25065 10.2791C7.25065 10.2854 7.25065 10.2918 7.25065 10.2982C7.25065 10.3046 7.25065 10.311 7.25065 10.3175C7.25065 10.3239 7.25065 10.3304 7.25065 10.3368C7.25065 10.3433 7.25065 10.3498 7.25065 10.3563C7.25065 10.3628 7.25065 10.3693 7.25065 10.3759C7.25065 10.3824 7.25065 10.389 7.25065 10.3956C7.25065 10.4022 7.25065 10.4088 7.25065 10.4154C7.25065 10.422 7.25065 10.4286 7.25065 10.4353C7.25065 10.4419 7.25065 10.4486 7.25065 10.4553C7.25065 10.462 7.25065 10.4687 7.25065 10.4754C7.25065 10.4822 7.25065 10.4889 7.25065 10.4957C7.25065 10.5024 7.25065 10.5092 7.25065 10.516C7.25065 10.5228 7.25065 10.5296 7.25065 10.5365C7.25065 10.5433 7.25065 10.5501 7.25065 10.557C7.25065 10.5639 7.25065 10.5708 7.25065 10.5777C7.25065 10.5846 7.25065 10.5915 7.25065 10.5985C7.25065 10.6054 7.25065 10.6124 7.25065 10.6194C7.25065 10.6264 7.25065 10.6334 7.25065 10.6404C7.25065 10.6474 7.25065 10.6545 7.25065 10.6615C7.25065 10.6686 7.25065 10.6757 7.25065 10.6828C7.25065 10.6899 7.25065 10.697 7.25065 10.7041C7.25065 10.7112 7.25065 10.7184 7.25065 10.7256C7.25065 10.7327 7.25065 10.7399 7.25065 10.7471C7.25065 10.7543 7.25065 10.7616 7.25065 10.7688C7.25065 10.7761 7.25065 10.7833 7.25065 10.7906C7.25065 10.7979 7.25065 10.8052 7.25065 10.8125C7.25065 10.8199 7.25065 10.8272 7.25065 10.8346C7.25065 10.8419 7.25065 10.8493 7.25065 10.8567C7.25065 10.8641 7.25065 10.8715 7.25065 10.879C7.25065 10.8864 7.25065 10.8939 7.25065 10.9014C7.25065 10.9088 7.25065 10.9163 7.25065 10.9238C7.25065 10.9314 7.25065 10.9389 7.25065 10.9464C7.25065 10.954 7.25065 10.9616 7.25065 10.9692C7.25065 10.9768 7.25065 10.9844 7.25065 10.992C7.25065 10.9996 7.25065 11.0073 7.25065 11.015C7.25065 11.0226 7.25065 11.0303 7.25065 11.038C7.25065 11.0457 7.25065 11.0535 7.25065 11.0612C7.25065 11.069 7.25065 11.0767 7.25065 11.0845C7.25065 11.0923 7.25065 11.1001 7.25065 11.108C7.25065 11.1158 7.25065 11.1236 7.25065 11.1315C7.25065 11.1394 7.25065 11.1473 7.25065 11.1552C7.25065 11.1631 7.25065 11.171 7.25065 11.179C7.25065 11.1869 7.25065 11.1949 7.25065 11.2029C7.25065 11.2108 7.25065 11.2189 7.25065 11.2269C7.25065 11.2349 7.25065 11.243 7.25065 11.251C7.25065 11.2591 7.25065 11.2672 7.25065 11.2753C7.25065 11.2834 7.25065 11.2915 7.25065 11.2997C7.25065 11.3078 7.25065 11.316 7.25065 11.3242C7.25065 11.3324 7.25065 11.3406 7.25065 11.3488C7.25065 11.357 7.25065 11.3653 7.25065 11.3735C7.25065 11.3818 7.25065 11.3901 7.25065 11.3984C7.25065 11.4067 7.25065 11.415 7.25065 11.4234C7.25065 11.4317 7.25065 11.4401 7.25065 11.4485C7.25065 11.4569 7.25065 11.4653 7.25065 11.4737C7.25065 11.4822 7.25065 11.4906 7.25065 11.4991C7.25065 11.5076 7.25065 11.516 7.25065 11.5246C7.25065 11.5331 7.25065 11.5416 7.25065 11.5502C7.25065 11.5587 7.25065 11.5673 7.25065 11.5759C7.25065 11.5845 7.25065 11.5931 7.25065 11.6017C7.25065 11.6104 7.25065 11.619 7.25065 11.6277C7.25065 11.6364 7.25065 11.6451 7.25065 11.6538C7.25065 11.6625 7.25065 11.6713 7.25065 11.68C7.25065 11.6888 7.25065 11.6976 7.25065 11.7064C7.25065 11.7152 7.25065 11.724 7.25065 11.7329C7.25065 11.7417 7.25065 11.7506 7.25065 11.7595C7.25065 11.7683 7.25065 11.7772 7.25065 11.7862C7.25065 11.7951 7.25065 11.8041 7.25065 11.813C7.25065 11.822 7.25065 11.831 7.25065 11.84C7.25065 11.849 7.25065 11.8581 7.25065 11.8671C7.25065 11.8762 7.25065 11.8852 7.25065 11.8943C7.25065 11.9034 7.25065 11.9126 7.25065 11.9217C7.25065 11.9308 7.25065 11.94 7.25065 11.9492C7.25065 11.9584 7.25065 11.9676 7.25065 11.9768C7.25065 11.986 7.25065 11.9953 7.25065 12.0046C7.25065 12.0138 7.25065 12.0231 7.25065 12.0324C7.25065 12.0417 7.25065 12.0511 7.25065 12.0604C7.25065 12.0698 7.25065 12.0792 7.25065 12.0886C7.25065 12.098 7.25065 12.1074 7.25065 12.1168C7.25065 12.1263 7.25065 12.1357 7.25065 12.1452C7.25065 12.1547 7.25065 12.1642 7.25065 12.1737C7.25065 12.1833 7.25065 12.1928 7.25065 12.2024C7.25065 12.212 7.25065 12.2216 7.25065 12.2312C7.25065 12.2408 7.25065 12.2504 7.25065 12.2601C7.25065 12.2697 7.25065 12.2794 7.25065 12.2891C7.25065 12.2988 7.25065 12.3086 7.25065 12.3183C7.25065 12.3281 7.25065 12.3378 7.25065 12.3476C7.25065 12.3574 7.25065 12.3672 7.25065 12.3771C7.25065 12.3869 7.25065 12.3968 7.25065 12.4066C7.25065 12.4165 7.25065 12.4264 7.25065 12.4363C7.25065 12.4463 7.25065 12.4562 7.25065 12.4662C7.25065 12.4762 7.25065 12.4861 7.25065 12.4962C7.25065 12.5062 7.25065 12.5162 7.25065 12.5263C7.25065 12.5363 7.25065 12.5464 7.25065 12.5565C7.25065 12.5666 7.25065 12.5767 7.25065 12.5869C7.25065 12.597 7.25065 12.6072 7.25065 12.6174C7.25065 12.6276 7.25065 12.6378 7.25065 12.648C7.25065 12.6583 7.25065 12.6685 7.25065 12.6788C7.25065 12.6891 7.25065 12.6994 7.25065 12.7097C7.25065 12.7201 7.25065 12.7304 7.25065 12.7408C7.25065 12.7512 7.25065 12.7616 7.25065 12.772C7.25065 12.7824 7.25065 12.7928 7.25065 12.8033C7.25065 12.8138 7.25065 12.8243 7.25065 12.8348C7.25065 12.8453 7.25065 12.8558 7.25065 12.8664C7.25065 12.8769 7.25065 12.8875 7.25065 12.8981C7.25065 12.9087 7.25065 12.9193 7.25065 12.93C7.25065 12.9406 7.25065 12.9513 7.25065 12.962C7.25065 12.9727 7.25065 12.9834 7.25065 12.9941C7.25065 13.0049 7.25065 13.0156 7.25065 13.0264C7.25065 13.0372 7.25065 13.048 7.25065 13.0589C7.25065 13.0697 7.25065 13.0806 7.25065 13.0914C7.25065 13.1023 7.25065 13.1132 7.25065 13.1241C7.25065 13.1351 7.25065 13.146 7.25065 13.157C7.25065 13.168 7.25065 13.179 7.25065 13.19C7.25065 13.201 7.25065 13.212 7.25065 13.2231C7.25065 13.2342 7.25065 13.2453 7.25065 13.2564C7.25065 13.2675 7.25065 13.2786 7.25065 13.2898C7.25065 13.3009 7.25065 13.3121 7.25065 13.3233C7.25065 13.3345 7.25065 13.3458 7.25065 13.357C7.25065 13.3683 7.25065 13.3795 7.25065 13.3909C7.25065 13.4022 7.25065 13.4135 7.25065 13.4248C7.25065 13.4362 7.25065 13.4475 7.25065 13.4589C7.25065 13.4703 7.25065 13.4818 7.25065 13.4932C7.25065 13.5046 7.25065 13.5161 7.25065 13.5276C7.25065 13.5391 7.25065 13.5506 7.25065 13.5622C7.25065 13.5737 7.25065 13.5853 7.25065 13.5968C7.25065 13.6084 7.25065 13.62 7.25065 13.6317C7.25065 13.6433 7.25065 13.655 7.25065 13.6667C7.25065 13.6783 7.25065 13.6901 7.25065 13.7018C7.25065 13.7135 7.25065 13.7253 7.25065 13.7371C7.25065 13.7488 7.25065 13.7606 7.25065 13.7725C7.25065 13.7843 7.25065 13.7961 7.25065 13.808C7.25065 13.8199 7.25065 13.8318 7.25065 13.8437C7.25065 13.8557 7.25065 13.8676 7.25065 13.8796C7.25065 13.8916 7.25065 13.9036 7.25065 13.9156C7.25065 13.9276 7.25065 13.9396 7.25065 13.9517C7.25065 13.9638 7.25065 13.9759 7.25065 13.988C7.25065 14.0001 7.25065 14.0123 7.25065 14.0244C7.25065 14.0366 7.25065 14.0488 7.25065 14.061C7.25065 14.0733 7.25065 14.0855 7.25065 14.0978C7.25065 14.11 7.25065 14.1223 7.25065 14.1346C7.25065 14.147 7.25065 14.1593 7.25065 14.1717C7.25065 14.184 7.25065 14.1964 7.25065 14.2089C7.25065 14.2213 7.25065 14.2337 7.25065 14.2462C7.25065 14.2587 7.25065 14.2711 7.25065 14.2837C7.25065 14.2962 7.25065 14.3087 7.25065 14.3213C7.25065 14.3339 7.25065 14.3464 7.25065 14.3591C7.25065 14.3717 7.25065 14.3843 7.25065 14.397C7.25065 14.4097 7.25065 14.4224 7.25065 14.4351C7.25065 14.4478 7.25065 14.4605 7.25065 14.4733C7.25065 14.4861 7.25065 14.4989 7.25065 14.5117C7.25065 14.5245 7.25065 14.5373 7.25065 14.5502C7.25065 14.5631 7.25065 14.576 7.25065 14.5889C7.25065 14.6018 7.25065 14.6148 7.25065 14.6277C7.25065 14.6407 7.25065 14.6537 7.25065 14.6667H8.75065C8.75065 14.6537 8.75065 14.6407 8.75065 14.6277C8.75065 14.6148 8.75065 14.6018 8.75065 14.5889C8.75065 14.576 8.75065 14.5631 8.75065 14.5502C8.75065 14.5373 8.75065 14.5245 8.75065 14.5117C8.75065 14.4989 8.75065 14.4861 8.75065 14.4733C8.75065 14.4605 8.75065 14.4478 8.75065 14.4351C8.75065 14.4224 8.75065 14.4097 8.75065 14.397C8.75065 14.3843 8.75065 14.3717 8.75065 14.3591C8.75065 14.3464 8.75065 14.3339 8.75065 14.3213C8.75065 14.3087 8.75065 14.2962 8.75065 14.2837C8.75065 14.2711 8.75065 14.2587 8.75065 14.2462C8.75065 14.2337 8.75065 14.2213 8.75065 14.2089C8.75065 14.1964 8.75065 14.184 8.75065 14.1717C8.75065 14.1593 8.75065 14.147 8.75065 14.1346C8.75065 14.1223 8.75065 14.11 8.75065 14.0978C8.75065 14.0855 8.75065 14.0733 8.75065 14.061C8.75065 14.0488 8.75065 14.0366 8.75065 14.0244C8.75065 14.0123 8.75065 14.0001 8.75065 13.988C8.75065 13.9759 8.75065 13.9638 8.75065 13.9517C8.75065 13.9396 8.75065 13.9276 8.75065 13.9156C8.75065 13.9036 8.75065 13.8916 8.75065 13.8796C8.75065 13.8676 8.75065 13.8557 8.75065 13.8437C8.75065 13.8318 8.75065 13.8199 8.75065 13.808C8.75065 13.7961 8.75065 13.7843 8.75065 13.7725C8.75065 13.7606 8.75065 13.7488 8.75065 13.7371C8.75065 13.7253 8.75065 13.7135 8.75065 13.7018C8.75065 13.6901 8.75065 13.6783 8.75065 13.6667C8.75065 13.655 8.75065 13.6433 8.75065 13.6317C8.75065 13.62 8.75065 13.6084 8.75065 13.5968C8.75065 13.5853 8.75065 13.5737 8.75065 13.5622C8.75065 13.5506 8.75065 13.5391 8.75065 13.5276C8.75065 13.5161 8.75065 13.5046 8.75065 13.4932C8.75065 13.4818 8.75065 13.4703 8.75065 13.4589C8.75065 13.4475 8.75065 13.4362 8.75065 13.4248C8.75065 13.4135 8.75065 13.4022 8.75065 13.3909C8.75065 13.3795 8.75065 13.3683 8.75065 13.357C8.75065 13.3458 8.75065 13.3345 8.75065 13.3233C8.75065 13.3121 8.75065 13.3009 8.75065 13.2898C8.75065 13.2786 8.75065 13.2675 8.75065 13.2564C8.75065 13.2453 8.75065 13.2342 8.75065 13.2231C8.75065 13.212 8.75065 13.201 8.75065 13.19C8.75065 13.179 8.75065 13.168 8.75065 13.157C8.75065 13.146 8.75065 13.1351 8.75065 13.1241C8.75065 13.1132 8.75065 13.1023 8.75065 13.0914C8.75065 13.0806 8.75065 13.0697 8.75065 13.0589C8.75065 13.048 8.75065 13.0372 8.75065 13.0264C8.75065 13.0156 8.75065 13.0049 8.75065 12.9941C8.75065 12.9834 8.75065 12.9727 8.75065 12.962C8.75065 12.9513 8.75065 12.9406 8.75065 12.93C8.75065 12.9193 8.75065 12.9087 8.75065 12.8981C8.75065 12.8875 8.75065 12.8769 8.75065 12.8664C8.75065 12.8558 8.75065 12.8453 8.75065 12.8348C8.75065 12.8243 8.75065 12.8138 8.75065 12.8033C8.75065 12.7928 8.75065 12.7824 8.75065 12.772C8.75065 12.7616 8.75065 12.7512 8.75065 12.7408C8.75065 12.7304 8.75065 12.7201 8.75065 12.7097C8.75065 12.6994 8.75065 12.6891 8.75065 12.6788C8.75065 12.6685 8.75065 12.6583 8.75065 12.648C8.75065 12.6378 8.75065 12.6276 8.75065 12.6174C8.75065 12.6072 8.75065 12.597 8.75065 12.5869C8.75065 12.5767 8.75065 12.5666 8.75065 12.5565C8.75065 12.5464 8.75065 12.5363 8.75065 12.5263C8.75065 12.5162 8.75065 12.5062 8.75065 12.4962C8.75065 12.4861 8.75065 12.4762 8.75065 12.4662C8.75065 12.4562 8.75065 12.4463 8.75065 12.4363C8.75065 12.4264 8.75065 12.4165 8.75065 12.4066C8.75065 12.3968 8.75065 12.3869 8.75065 12.3771C8.75065 12.3672 8.75065 12.3574 8.75065 12.3476C8.75065 12.3378 8.75065 12.3281 8.75065 12.3183C8.75065 12.3086 8.75065 12.2988 8.75065 12.2891C8.75065 12.2794 8.75065 12.2697 8.75065 12.2601C8.75065 12.2504 8.75065 12.2408 8.75065 12.2312C8.75065 12.2216 8.75065 12.212 8.75065 12.2024C8.75065 12.1928 8.75065 12.1833 8.75065 12.1737C8.75065 12.1642 8.75065 12.1547 8.75065 12.1452C8.75065 12.1357 8.75065 12.1263 8.75065 12.1168C8.75065 12.1074 8.75065 12.098 8.75065 12.0886C8.75065 12.0792 8.75065 12.0698 8.75065 12.0604C8.75065 12.0511 8.75065 12.0417 8.75065 12.0324C8.75065 12.0231 8.75065 12.0138 8.75065 12.0046C8.75065 11.9953 8.75065 11.986 8.75065 11.9768C8.75065 11.9676 8.75065 11.9584 8.75065 11.9492C8.75065 11.94 8.75065 11.9308 8.75065 11.9217C8.75065 11.9126 8.75065 11.9034 8.75065 11.8943C8.75065 11.8852 8.75065 11.8762 8.75065 11.8671C8.75065 11.8581 8.75065 11.849 8.75065 11.84C8.75065 11.831 8.75065 11.822 8.75065 11.813C8.75065 11.8041 8.75065 11.7951 8.75065 11.7862C8.75065 11.7772 8.75065 11.7683 8.75065 11.7595C8.75065 11.7506 8.75065 11.7417 8.75065 11.7329C8.75065 11.724 8.75065 11.7152 8.75065 11.7064C8.75065 11.6976 8.75065 11.6888 8.75065 11.68C8.75065 11.6713 8.75065 11.6625 8.75065 11.6538C8.75065 11.6451 8.75065 11.6364 8.75065 11.6277C8.75065 11.619 8.75065 11.6104 8.75065 11.6017C8.75065 11.5931 8.75065 11.5845 8.75065 11.5759C8.75065 11.5673 8.75065 11.5587 8.75065 11.5502C8.75065 11.5416 8.75065 11.5331 8.75065 11.5246C8.75065 11.516 8.75065 11.5076 8.75065 11.4991C8.75065 11.4906 8.75065 11.4822 8.75065 11.4737C8.75065 11.4653 8.75065 11.4569 8.75065 11.4485C8.75065 11.4401 8.75065 11.4317 8.75065 11.4234C8.75065 11.415 8.75065 11.4067 8.75065 11.3984C8.75065 11.3901 8.75065 11.3818 8.75065 11.3735C8.75065 11.3653 8.75065 11.357 8.75065 11.3488C8.75065 11.3406 8.75065 11.3324 8.75065 11.3242C8.75065 11.316 8.75065 11.3078 8.75065 11.2997C8.75065 11.2915 8.75065 11.2834 8.75065 11.2753C8.75065 11.2672 8.75065 11.2591 8.75065 11.251C8.75065 11.243 8.75065 11.2349 8.75065 11.2269C8.75065 11.2189 8.75065 11.2108 8.75065 11.2029C8.75065 11.1949 8.75065 11.1869 8.75065 11.179C8.75065 11.171 8.75065 11.1631 8.75065 11.1552C8.75065 11.1473 8.75065 11.1394 8.75065 11.1315C8.75065 11.1236 8.75065 11.1158 8.75065 11.108C8.75065 11.1001 8.75065 11.0923 8.75065 11.0845C8.75065 11.0767 8.75065 11.069 8.75065 11.0612C8.75065 11.0535 8.75065 11.0457 8.75065 11.038C8.75065 11.0303 8.75065 11.0226 8.75065 11.015C8.75065 11.0073 8.75065 10.9996 8.75065 10.992C8.75065 10.9844 8.75065 10.9768 8.75065 10.9692C8.75065 10.9616 8.75065 10.954 8.75065 10.9464C8.75065 10.9389 8.75065 10.9314 8.75065 10.9238C8.75065 10.9163 8.75065 10.9088 8.75065 10.9014C8.75065 10.8939 8.75065 10.8864 8.75065 10.879C8.75065 10.8715 8.75065 10.8641 8.75065 10.8567C8.75065 10.8493 8.75065 10.8419 8.75065 10.8346C8.75065 10.8272 8.75065 10.8199 8.75065 10.8125C8.75065 10.8052 8.75065 10.7979 8.75065 10.7906C8.75065 10.7833 8.75065 10.7761 8.75065 10.7688C8.75065 10.7616 8.75065 10.7543 8.75065 10.7471C8.75065 10.7399 8.75065 10.7327 8.75065 10.7256C8.75065 10.7184 8.75065 10.7112 8.75065 10.7041C8.75065 10.697 8.75065 10.6899 8.75065 10.6828C8.75065 10.6757 8.75065 10.6686 8.75065 10.6615C8.75065 10.6545 8.75065 10.6474 8.75065 10.6404C8.75065 10.6334 8.75065 10.6264 8.75065 10.6194C8.75065 10.6124 8.75065 10.6054 8.75065 10.5985C8.75065 10.5915 8.75065 10.5846 8.75065 10.5777C8.75065 10.5708 8.75065 10.5639 8.75065 10.557C8.75065 10.5501 8.75065 10.5433 8.75065 10.5365C8.75065 10.5296 8.75065 10.5228 8.75065 10.516C8.75065 10.5092 8.75065 10.5024 8.75065 10.4957C8.75065 10.4889 8.75065 10.4822 8.75065 10.4754C8.75065 10.4687 8.75065 10.462 8.75065 10.4553C8.75065 10.4486 8.75065 10.4419 8.75065 10.4353C8.75065 10.4286 8.75065 10.422 8.75065 10.4154C8.75065 10.4088 8.75065 10.4022 8.75065 10.3956C8.75065 10.389 8.75065 10.3824 8.75065 10.3759C8.75065 10.3693 8.75065 10.3628 8.75065 10.3563C8.75065 10.3498 8.75065 10.3433 8.75065 10.3368C8.75065 10.3304 8.75065 10.3239 8.75065 10.3175C8.75065 10.311 8.75065 10.3046 8.75065 10.2982C8.75065 10.2918 8.75065 10.2854 8.75065 10.2791C8.75065 10.2727 8.75065 10.2663 8.75065 10.26C8.75065 10.2537 8.75065 10.2474 8.75065 10.2411C8.75065 10.2348 8.75065 10.2285 8.75065 10.2222C8.75065 10.216 8.75065 10.2097 8.75065 10.2035C8.75065 10.1973 8.75065 10.1911 8.75065 10.1849C8.75065 10.1787 8.75065 10.1725 8.75065 10.1664C8.75065 10.1602 8.75065 10.1541 8.75065 10.148C8.75065 10.1419 8.75065 10.1357 8.75065 10.1297C8.75065 10.1236 8.75065 10.1175 8.75065 10.1115C8.75065 10.1054 8.75065 10.0994 8.75065 10.0934C8.75065 10.0873 8.75065 10.0814 8.75065 10.0754C8.75065 10.0694 8.75065 10.0634 8.75065 10.0575C8.75065 10.0515 8.75065 10.0456 8.75065 10.0397C8.75065 10.0338 8.75065 10.0279 8.75065 10.022C8.75065 10.0161 8.75065 10.0103 8.75065 10.0044C8.75065 9.99858 8.75065 9.99276 8.75065 9.98695C8.75065 9.98114 8.75065 9.97534 8.75065 9.96957C8.75065 9.96379 8.75065 9.95803 8.75065 9.95229C8.75065 9.94655 8.75065 9.94082 8.75065 9.93512C8.75065 9.92941 8.75065 9.92372 8.75065 9.91804C8.75065 9.91237 8.75065 9.90671 8.75065 9.90107C8.75065 9.89543 8.75065 9.8898 8.75065 9.8842C8.75065 9.87859 8.75065 9.873 8.75065 9.86742C8.75065 9.86185 8.75065 9.85629 8.75065 9.85075C8.75065 9.84521 8.75065 9.83968 8.75065 9.83418C8.75065 9.82867 8.75065 9.82318 8.75065 9.8177C8.75065 9.81223 8.75065 9.80677 8.75065 9.80133C8.75065 9.79589 8.75065 9.79046 8.75065 9.78505C8.75065 9.77964 8.75065 9.77425 8.75065 9.76887C8.75065 9.7635 8.75065 9.75814 8.75065 9.75279C8.75065 9.74745 8.75065 9.74212 8.75065 9.73681C8.75065 9.7315 8.75065 9.7262 8.75065 9.72093C8.75065 9.71565 8.75065 9.71038 8.75065 9.70514C8.75065 9.69989 8.75065 9.69466 8.75065 9.68945C8.75065 9.68423 8.75065 9.67903 8.75065 9.67385C8.75065 9.66867 8.75065 9.6635 8.75065 9.65835C8.75065 9.6532 8.75065 9.64807 8.75065 9.64295C8.75065 9.63783 8.75065 9.63273 8.75065 9.62765C8.75065 9.62256 8.75065 9.61749 8.75065 9.61243C8.75065 9.60738 8.75065 9.60234 8.75065 9.59732C8.75065 9.59229 8.75065 9.58729 8.75065 9.5823C8.75065 9.5773 8.75065 9.57233 8.75065 9.56737C8.75065 9.56241 8.75065 9.55747 8.75065 9.55254C8.75065 9.54761 8.75065 9.5427 8.75065 9.5378C8.75065 9.5329 8.75065 9.52802 8.75065 9.52315C8.75065 9.51829 8.75065 9.51344 8.75065 9.5086C8.75065 9.50377 8.75065 9.49895 8.75065 9.49414C8.75065 9.48934 8.75065 9.48455 8.75065 9.47978C8.75065 9.475 8.75065 9.47024 8.75065 9.4655C8.75065 9.46076 8.75065 9.45603 8.75065 9.45132C8.75065 9.44661 8.75065 9.44191 8.75065 9.43723C8.75065 9.43255 8.75065 9.42788 8.75065 9.42323C8.75065 9.41858 8.75065 9.41395 8.75065 9.40932C8.75065 9.4047 8.75065 9.4001 8.75065 9.39551C8.75065 9.39092 8.75065 9.38634 8.75065 9.38178C8.75065 9.37722 8.75065 9.37268 8.75065 9.36815C8.75065 9.36362 8.75065 9.3591 8.75065 9.3546C8.75065 9.3501 8.75065 9.34562 8.75065 9.34115C8.75065 9.33667 8.75065 9.33222 8.75065 9.32778C8.75065 9.32334 8.75065 9.31891 8.75065 9.3145C8.75065 9.31009 8.75065 9.30569 8.75065 9.30131C8.75065 9.29693 8.75065 9.29257 8.75065 9.28821C8.75065 9.28386 8.75065 9.27952 8.75065 9.2752C8.75065 9.27088 8.75065 9.26657 8.75065 9.26228C8.75065 9.25798 8.75065 9.25371 8.75065 9.24944C8.75065 9.24518 8.75065 9.24093 8.75065 9.23669C8.75065 9.23246 8.75065 9.22824 8.75065 9.22403C8.75065 9.21982 8.75065 9.21563 8.75065 9.21146C8.75065 9.20728 8.75065 9.20312 8.75065 9.19897C8.75065 9.19482 8.75065 9.19068 8.75065 9.18656C8.75065 9.18244 8.75065 9.17834 8.75065 9.17425C8.75065 9.17016 8.75065 9.16608 8.75065 9.16202C8.75065 9.15795 8.75065 9.1539 8.75065 9.14987C8.75065 9.14584 8.75065 9.14182 8.75065 9.13781C8.75065 9.1338 8.75065 9.12981 8.75065 9.12583C8.75065 9.12185 8.75065 9.11789 8.75065 9.11394C8.75065 9.10999 8.75065 9.10605 8.75065 9.10213C8.75065 9.09821 8.75065 9.0943 8.75065 9.09041C8.75065 9.08651 8.75065 9.08263 8.75065 9.07877C8.75065 9.0749 8.75065 9.07105 8.75065 9.06721C8.75065 9.06337 8.75065 9.05955 8.75065 9.05574C8.75065 9.05192 8.75065 9.04813 8.75065 9.04434C8.75065 9.04056 8.75065 9.03679 8.75065 9.03303C8.75065 9.02928 8.75065 9.02553 8.75065 9.0218C8.75065 9.01808 8.75065 9.01436 8.75065 9.01066C8.75065 9.00696 8.75065 9.00327 8.75065 8.99959C8.75065 8.99592 8.75065 8.99226 8.75065 8.98861C8.75065 8.98496 8.75065 8.98133 8.75065 8.97771C8.75065 8.97409 8.75065 8.97048 8.75065 8.96688C8.75065 8.96329 8.75065 8.95971 8.75065 8.95614C8.75065 8.95257 8.75065 8.94902 8.75065 8.94548C8.75065 8.94194 8.75065 8.93841 8.75065 8.9349C8.75065 8.93138 8.75065 8.92788 8.75065 8.92439C8.75065 8.9209 8.75065 8.91743 8.75065 8.91397C8.75065 8.9105 8.75065 8.90706 8.75065 8.90362C8.75065 8.90018 8.75065 8.89676 8.75065 8.89335C8.75065 8.88994 8.75065 8.88655 8.75065 8.88316C8.75065 8.87978 8.75065 8.87641 8.75065 8.87305C8.75065 8.86969 8.75065 8.86635 8.75065 8.86302C8.75065 8.85968 8.75065 8.85636 8.75065 8.85306C8.75065 8.84975 8.75065 8.84646 8.75065 8.84318C8.75065 8.8399 8.75065 8.83663 8.75065 8.83337C8.75065 8.83012 8.75065 8.82688 8.75065 8.82365C8.75065 8.82042 8.75065 8.8172 8.75065 8.814C8.75065 8.81079 8.75065 8.8076 8.75065 8.80442C8.75065 8.80124 8.75065 8.79807 8.75065 8.79492C8.75065 8.79176 8.75065 8.78862 8.75065 8.78549C8.75065 8.78236 8.75065 8.77925 8.75065 8.77614C8.75065 8.77304 8.75065 8.76995 8.75065 8.76687C8.75065 8.76379 8.75065 8.76072 8.75065 8.75767C8.75065 8.75461 8.75065 8.75157 8.75065 8.74854C8.75065 8.74551 8.75065 8.74249 8.75065 8.73948C8.75065 8.73648 8.75065 8.73348 8.75065 8.7305C8.75065 8.72752 8.75065 8.72455 8.75065 8.72159C8.75065 8.71864 8.75065 8.71569 8.75065 8.71276C8.75065 8.70983 8.75065 8.7069 8.75065 8.704C8.75065 8.70109 8.75065 8.69819 8.75065 8.69531C8.75065 8.69242 8.75065 8.68955 8.75065 8.68669C8.75065 8.68383 8.75065 8.68098 8.75065 8.67814C8.75065 8.6753 8.75065 8.67248 8.75065 8.66966C8.75065 8.66685 8.75065 8.66405 8.75065 8.66126C8.75065 8.65847 8.75065 8.65569 8.75065 8.65292C8.75065 8.65016 8.75065 8.6474 8.75065 8.64466C8.75065 8.64192 8.75065 8.63918 8.75065 8.63646C8.75065 8.63375 8.75065 8.63104 8.75065 8.62834C8.75065 8.62564 8.75065 8.62296 8.75065 8.62029C8.75065 8.61761 8.75065 8.61495 8.75065 8.6123C8.75065 8.60965 8.75065 8.60701 8.75065 8.60438C8.75065 8.60175 8.75065 8.59914 8.75065 8.59653C8.75065 8.59393 8.75065 8.59134 8.75065 8.58875C8.75065 8.58617 8.75065 8.5836 8.75065 8.58104C8.75065 8.57848 8.75065 8.57593 8.75065 8.5734C8.75065 8.57086 8.75065 8.56833 8.75065 8.56582C8.75065 8.5633 8.75065 8.5608 8.75065 8.55831C8.75065 8.55582 8.75065 8.55334 8.75065 8.55087C8.75065 8.5484 8.75065 8.54594 8.75065 8.54349C8.75065 8.54104 8.75065 8.5386 8.75065 8.53618C8.75065 8.53375 8.75065 8.53134 8.75065 8.52893C8.75065 8.52653 8.75065 8.52414 8.75065 8.52175C8.75065 8.51937 8.75065 8.517 8.75065 8.51464C8.75065 8.51228 8.75065 8.50993 8.75065 8.50759C8.75065 8.50525 8.75065 8.50292 8.75065 8.50061C8.75065 8.49829 8.75065 8.49598 8.75065 8.49369C8.75065 8.49139 8.75065 8.4891 8.75065 8.48683C8.75065 8.48455 8.75065 8.48229 8.75065 8.48004C8.75065 8.47778 8.75065 8.47554 8.75065 8.47331C8.75065 8.47108 8.75065 8.46885 8.75065 8.46664C8.75065 8.46443 8.75065 8.46223 8.75065 8.46004C8.75065 8.45785 8.75065 8.45567 8.75065 8.4535C8.75065 8.45133 8.75065 8.44917 8.75065 8.44702C8.75065 8.44487 8.75065 8.44273 8.75065 8.44061C8.75065 8.43848 8.75065 8.43636 8.75065 8.43425C8.75065 8.43214 8.75065 8.43005 8.75065 8.42796C8.75065 8.42587 8.75065 8.42379 8.75065 8.42173C8.75065 8.41966 8.75065 8.4176 8.75065 8.41556C8.75065 8.41351 8.75065 8.41147 8.75065 8.40945C8.75065 8.40742 8.75065 8.4054 8.75065 8.4034C8.75065 8.40139 8.75065 8.39939 8.75065 8.39741C8.75065 8.39542 8.75065 8.39344 8.75065 8.39147C8.75065 8.38951 8.75065 8.38755 8.75065 8.3856C8.75065 8.38366 8.75065 8.38172 8.75065 8.37979C8.75065 8.37786 8.75065 8.37595 8.75065 8.37404C8.75065 8.37213 8.75065 8.37023 8.75065 8.36834C8.75065 8.36645 8.75065 8.36457 8.75065 8.3627C8.75065 8.36084 8.75065 8.35898 8.75065 8.35713C8.75065 8.35528 8.75065 8.35343 8.75065 8.3516C8.75065 8.34977 8.75065 8.34795 8.75065 8.34614C8.75065 8.34433 8.75065 8.34252 8.75065 8.34073C8.75065 8.33894 8.75065 8.33715 8.75065 8.33538C8.75065 8.33361 8.75065 8.33184 8.75065 8.33009C8.75065 8.32833 8.75065 8.32658 8.75065 8.32485C8.75065 8.32311 8.75065 8.32138 8.75065 8.31966C8.75065 8.31795 8.75065 8.31624 8.75065 8.31454C8.75065 8.31284 8.75065 8.31115 8.75065 8.30946C8.75065 8.30778 8.75065 8.30611 8.75065 8.30445C8.75065 8.30278 8.75065 8.30113 8.75065 8.29948C8.75065 8.29784 8.75065 8.2962 8.75065 8.29457C8.75065 8.29295 8.75065 8.29133 8.75065 8.28972C8.75065 8.28811 8.75065 8.28651 8.75065 8.28492C8.75065 8.28333 8.75065 8.28174 8.75065 8.28017C8.75065 8.2786 8.75065 8.27703 8.75065 8.27548C8.75065 8.27392 8.75065 8.27237 8.75065 8.27083C8.75065 8.2693 8.75065 8.26777 8.75065 8.26624C8.75065 8.26472 8.75065 8.26321 8.75065 8.26171C8.75065 8.2602 8.75065 8.25871 8.75065 8.25722C8.75065 8.25573 8.75065 8.25426 8.75065 8.25279C8.75065 8.25132 8.75065 8.24986 8.75065 8.2484C8.75065 8.24695 8.75065 8.24551 8.75065 8.24407C8.75065 8.24264 8.75065 8.24121 8.75065 8.23979C8.75065 8.23837 8.75065 8.23696 8.75065 8.23556C8.75065 8.23416 8.75065 8.23276 8.75065 8.23138C8.75065 8.22999 8.75065 8.22862 8.75065 8.22725C8.75065 8.22588 8.75065 8.22452 8.75065 8.22317C8.75065 8.22182 8.75065 8.22047 8.75065 8.21913C8.75065 8.2178 8.75065 8.21647 8.75065 8.21515C8.75065 8.21383 8.75065 8.21252 8.75065 8.21122C8.75065 8.20991 8.75065 8.20862 8.75065 8.20733C8.75065 8.20604 8.75065 8.20476 8.75065 8.20349C8.75065 8.20222 8.75065 8.20096 8.75065 8.1997C8.75065 8.19844 8.75065 8.1972 8.75065 8.19596C8.75065 8.19472 8.75065 8.19348 8.75065 8.19226C8.75065 8.19104 8.75065 8.18982 8.75065 8.18861C8.75065 8.1874 8.75065 8.1862 8.75065 8.18501C8.75065 8.18381 8.75065 8.18263 8.75065 8.18145C8.75065 8.18027 8.75065 8.1791 8.75065 8.17794C8.75065 8.17678 8.75065 8.17562 8.75065 8.17447C8.75065 8.17333 8.75065 8.17219 8.75065 8.17105C8.75065 8.16992 8.75065 8.1688 8.75065 8.16768C8.75065 8.16656 8.75065 8.16545 8.75065 8.16435C8.75065 8.16325 8.75065 8.16215 8.75065 8.16106C8.75065 8.15997 8.75065 8.15889 8.75065 8.15782C8.75065 8.15675 8.75065 8.15568 8.75065 8.15462C8.75065 8.15356 8.75065 8.15251 8.75065 8.15147C8.75065 8.15042 8.75065 8.14939 8.75065 8.14836C8.75065 8.14733 8.75065 8.1463 8.75065 8.14529C8.75065 8.14427 8.75065 8.14326 8.75065 8.14226C8.75065 8.14126 8.75065 8.14027 8.75065 8.13928C8.75065 8.13829 8.75065 8.13731 8.75065 8.13634C8.75065 8.13536 8.75065 8.1344 8.75065 8.13344C8.75065 8.13248 8.75065 8.13152 8.75065 8.13058C8.75065 8.12963 8.75065 8.12869 8.75065 8.12776C8.75065 8.12683 8.75065 8.1259 8.75065 8.12499C8.75065 8.12407 8.75065 8.12315 8.75065 8.12225C8.75065 8.12134 8.75065 8.12045 8.75065 8.11955C8.75065 8.11866 8.75065 8.11778 8.75065 8.1169C8.75065 8.11602 8.75065 8.11515 8.75065 8.11428C8.75065 8.11342 8.75065 8.11256 8.75065 8.1117C8.75065 8.11085 8.75065 8.11001 8.75065 8.10917C8.75065 8.10833 8.75065 8.10749 8.75065 8.10667C8.75065 8.10584 8.75065 8.10502 8.75065 8.10421C8.75065 8.10339 8.75065 8.10259 8.75065 8.10179C8.75065 8.10098 8.75065 8.10019 8.75065 8.0994C8.75065 8.09861 8.75065 8.09783 8.75065 8.09705C8.75065 8.09628 8.75065 8.09551 8.75065 8.09474C8.75065 8.09398 8.75065 8.09322 8.75065 8.09247C8.75065 8.09172 8.75065 8.09097 8.75065 8.09024C8.75065 8.0895 8.75065 8.08876 8.75065 8.08804C8.75065 8.08731 8.75065 8.08659 8.75065 8.08587C8.75065 8.08516 8.75065 8.08445 8.75065 8.08374C8.75065 8.08304 8.75065 8.08234 8.75065 8.08165C8.75065 8.08096 8.75065 8.08027 8.75065 8.07959C8.75065 8.07891 8.75065 8.07824 8.75065 8.07757C8.75065 8.0769 8.75065 8.07624 8.75065 8.07558C8.75065 8.07493 8.75065 8.07428 8.75065 8.07363C8.75065 8.07298 8.75065 8.07234 8.75065 8.07171C8.75065 8.07108 8.75065 8.07045 8.75065 8.06982C8.75065 8.0692 8.75065 8.06858 8.75065 8.06797C8.75065 8.06736 8.75065 8.06675 8.75065 8.06615C8.75065 8.06555 8.75065 8.06496 8.75065 8.06437C8.75065 8.06378 8.75065 8.06319 8.75065 8.06261C8.75065 8.06203 8.75065 8.06146 8.75065 8.06089C8.75065 8.06032 8.75065 8.05976 8.75065 8.0592C8.75065 8.05864 8.75065 8.05809 8.75065 8.05754C8.75065 8.05699 8.75065 8.05645 8.75065 8.05591C8.75065 8.05538 8.75065 8.05484 8.75065 8.05432C8.75065 8.05379 8.75065 8.05327 8.75065 8.05275C8.75065 8.05224 8.75065 8.05172 8.75065 8.05122C8.75065 8.05071 8.75065 8.05021 8.75065 8.04971C8.75065 8.04921 8.75065 8.04872 8.75065 8.04824C8.75065 8.04775 8.75065 8.04727 8.75065 8.04679C8.75065 8.04631 8.75065 8.04584 8.75065 8.04537C8.75065 8.04491 8.75065 8.04444 8.75065 8.04399C8.75065 8.04353 8.75065 8.04308 8.75065 8.04263C8.75065 8.04218 8.75065 8.04174 8.75065 8.0413C8.75065 8.04086 8.75065 8.04042 8.75065 8.03999C8.75065 8.03956 8.75065 8.03914 8.75065 8.03872C8.75065 8.0383 8.75065 8.03788 8.75065 8.03747C8.75065 8.03706 8.75065 8.03665 8.75065 8.03625C8.75065 8.03585 8.75065 8.03545 8.75065 8.03506C8.75065 8.03466 8.75065 8.03427 8.75065 8.03389C8.75065 8.03351 8.75065 8.03312 8.75065 8.03275C8.75065 8.03237 8.75065 8.032 8.75065 8.03163C8.75065 8.03127 8.75065 8.0309 8.75065 8.03054C8.75065 8.03019 8.75065 8.02983 8.75065 8.02948C8.75065 8.02913 8.75065 8.02878 8.75065 8.02844C8.75065 8.0281 8.75065 8.02776 8.75065 8.02743C8.75065 8.02709 8.75065 8.02676 8.75065 8.02644C8.75065 8.02611 8.75065 8.02579 8.75065 8.02547C8.75065 8.02515 8.75065 8.02484 8.75065 8.02453C8.75065 8.02422 8.75065 8.02391 8.75065 8.02361C8.75065 8.02331 8.75065 8.02301 8.75065 8.02272C8.75065 8.02242 8.75065 8.02213 8.75065 8.02185C8.75065 8.02156 8.75065 8.02128 8.75065 8.021C8.75065 8.02072 8.75065 8.02044 8.75065 8.02017C8.75065 8.0199 8.75065 8.01963 8.75065 8.01936C8.75065 8.0191 8.75065 8.01884 8.75065 8.01858C8.75065 8.01832 8.75065 8.01807 8.75065 8.01782C8.75065 8.01757 8.75065 8.01732 8.75065 8.01708C8.75065 8.01683 8.75065 8.01659 8.75065 8.01636C8.75065 8.01612 8.75065 8.01589 8.75065 8.01566C8.75065 8.01543 8.75065 8.0152 8.75065 8.01498C8.75065 8.01476 8.75065 8.01454 8.75065 8.01432C8.75065 8.0141 8.75065 8.01389 8.75065 8.01368C8.75065 8.01347 8.75065 8.01327 8.75065 8.01306C8.75065 8.01286 8.75065 8.01266 8.75065 8.01246C8.75065 8.01226 8.75065 8.01207 8.75065 8.01188C8.75065 8.01169 8.75065 8.0115 8.75065 8.01132C8.75065 8.01113 8.75065 8.01095 8.75065 8.01077C8.75065 8.01059 8.75065 8.01042 8.75065 8.01024C8.75065 8.01007 8.75065 8.0099 8.75065 8.00973C8.75065 8.00957 8.75065 8.0094 8.75065 8.00924C8.75065 8.00908 8.75065 8.00892 8.75065 8.00876C8.75065 8.00861 8.75065 8.00846 8.75065 8.00831C8.75065 8.00815 8.75065 8.00801 8.75065 8.00786C8.75065 8.00772 8.75065 8.00758 8.75065 8.00744C8.75065 8.0073 8.75065 8.00716 8.75065 8.00703C8.75065 8.00689 8.75065 8.00676 8.75065 8.00663C8.75065 8.0065 8.75065 8.00637 8.75065 8.00625C8.75065 8.00613 8.75065 8.006 8.75065 8.00588C8.75065 8.00577 8.75065 8.00565 8.75065 8.00553C8.75065 8.00542 8.75065 8.00531 8.75065 8.0052C8.75065 8.00509 8.75065 8.00498 8.75065 8.00488C8.75065 8.00477 8.75065 8.00467 8.75065 8.00457C8.75065 8.00447 8.75065 8.00437 8.75065 8.00427C8.75065 8.00418 8.75065 8.00408 8.75065 8.00399C8.75065 8.0039 8.75065 8.00381 8.75065 8.00372C8.75065 8.00363 8.75065 8.00355 8.75065 8.00346C8.75065 8.00338 8.75065 8.0033 8.75065 8.00322C8.75065 8.00314 8.75065 8.00306 8.75065 8.00299C8.75065 8.00291 8.75065 8.00284 8.75065 8.00277C8.75065 8.00269 8.75065 8.00262 8.75065 8.00256C8.75065 8.00249 8.75065 8.00242 8.75065 8.00236C8.75065 8.00229 8.75065 8.00223 8.75065 8.00217C8.75065 8.00211 8.75065 8.00205 8.75065 8.00199C8.75065 8.00194 8.75065 8.00188 8.75065 8.00183C8.75065 8.00177 8.75065 8.00172 8.75065 8.00167C8.75065 8.00162 8.75065 8.00157 8.75065 8.00152C8.75065 8.00147 8.75065 8.00143 8.75065 8.00138C8.75065 8.00134 8.75065 8.00129 8.75065 8.00125C8.75065 8.00121 8.75065 8.00117 8.75065 8.00113C8.75065 8.00109 8.75065 8.00105 8.75065 8.00102C8.75065 8.00098 8.75065 8.00095 8.75065 8.00091C8.75065 8.00088 8.75065 8.00085 8.75065 8.00082C8.75065 8.00079 8.75065 8.00076 8.75065 8.00073C8.75065 8.0007 8.75065 8.00067 8.75065 8.00065C8.75065 8.00062 8.75065 8.00059 8.75065 8.00057C8.75065 8.00055 8.75065 8.00052 8.75065 8.0005C8.75065 8.00048 8.75065 8.00046 8.75065 8.00044C8.75065 8.00042 8.75065 8.0004 8.75065 8.00038C8.75065 8.00036 8.75065 8.00035 8.75065 8.00033C8.75065 8.00031 8.75065 8.0003 8.75065 8.00029C8.75065 8.00027 8.75065 8.00026 8.75065 8.00024C8.75065 8.00023 8.75065 8.00022 8.75065 8.00021C8.75065 8.0002 8.75065 8.00019 8.75065 8.00018C8.75065 8.00017 8.75065 8.00016 8.75065 8.00015C8.75065 8.00014 8.75065 8.00013 8.75065 8.00013C8.75065 8.00012 8.75065 8.00011 8.75065 8.00011C8.75065 8.0001 8.75065 8.0001 8.75065 8.00009C8.75065 8.00009 8.75065 8.00008 8.75065 8.00008C8.75065 8.00007 8.75065 8.00007 8.75065 8.00007C8.75065 8.00006 8.75065 8.00006 8.75065 8.00006C8.75065 8.00006 8.75065 8.00005 8.75065 8.00005C8.75065 8.00005 8.75065 8.00005 8.75065 8.00005C8.75065 8.00005 8.75065 8.00004 8.75065 8.00004C8.75065 8.00004 8.75065 8.00004 8.75065 8.00004C8.75065 8.00004 8.75065 8.00004 8.75065 8.00004C8.75065 8.00004 8.75065 8.00004 8.75065 8.00004H8.00065ZM8.75065 8.00004V1.33337H7.25065V8.00004H8.75065Z" fill="#707070" fill-opacity="0.4"/>
</svg>
