<svg width="18" height="18" viewBox="0 0 18 18" fill="none" xmlns="http://www.w3.org/2000/svg">
<path d="M1 8.25C0.585786 8.25 0.25 8.58579 0.25 9C0.25 9.41421 0.585786 9.75 1 9.75V8.25ZM9 9.75C9.41421 9.75 9.75 9.41421 9.75 9C9.75 8.58579 9.41421 8.25 9 8.25V9.75ZM9 8.25C8.58579 8.25 8.25 8.58579 8.25 9C8.25 9.41421 8.58579 9.75 9 9.75V8.25ZM17 9.75C17.4142 9.75 17.75 9.41421 17.75 9C17.75 8.58579 17.4142 8.25 17 8.25V9.75ZM9.7502 9C9.7502 8.58579 9.41441 8.25 9.0002 8.25C8.58598 8.25 8.2502 8.58579 8.2502 9H9.7502ZM8.2502 17C8.2502 17.4142 8.58598 17.75 9.0002 17.75C9.41441 17.75 9.7502 17.4142 9.7502 17H8.2502ZM8.2502 9C8.2502 9.41421 8.58598 9.75 9.0002 9.75C9.41441 9.75 9.7502 9.41421 9.7502 9H8.2502ZM9.7502 1C9.7502 0.585786 9.41441 0.25 9.0002 0.25C8.58598 0.25 8.2502 0.585786 8.2502 1H9.7502ZM1 9.75H9V8.25H1V9.75ZM9 9.75H17V8.25H9V9.75ZM9.0002 9H8.2502C8.2502 9 8.2502 9 8.2502 9C8.2502 9 8.2502 9 8.2502 9C8.2502 9 8.2502 9 8.2502 9C8.2502 9 8.2502 9.00001 8.2502 9.00001C8.2502 9.00001 8.2502 9.00001 8.2502 9.00001C8.2502 9.00002 8.2502 9.00002 8.2502 9.00002C8.2502 9.00002 8.2502 9.00003 8.2502 9.00003C8.2502 9.00003 8.2502 9.00004 8.2502 9.00004C8.2502 9.00005 8.2502 9.00005 8.2502 9.00006C8.2502 9.00007 8.2502 9.00007 8.2502 9.00008C8.2502 9.00009 8.2502 9.00009 8.2502 9.0001C8.2502 9.00011 8.2502 9.00012 8.2502 9.00013C8.2502 9.00014 8.2502 9.00015 8.2502 9.00016C8.2502 9.00018 8.2502 9.00019 8.2502 9.0002C8.2502 9.00021 8.2502 9.00023 8.2502 9.00024C8.2502 9.00026 8.2502 9.00028 8.2502 9.00029C8.2502 9.00031 8.2502 9.00033 8.2502 9.00035C8.2502 9.00037 8.2502 9.00039 8.2502 9.00041C8.2502 9.00043 8.2502 9.00045 8.2502 9.00048C8.2502 9.0005 8.2502 9.00053 8.2502 9.00055C8.2502 9.00058 8.2502 9.00061 8.2502 9.00064C8.2502 9.00066 8.2502 9.00069 8.2502 9.00072C8.2502 9.00076 8.2502 9.00079 8.2502 9.00082C8.2502 9.00086 8.2502 9.00089 8.2502 9.00093C8.2502 9.00097 8.2502 9.00101 8.2502 9.00105C8.2502 9.00109 8.2502 9.00113 8.2502 9.00117C8.2502 9.00122 8.2502 9.00126 8.2502 9.00131C8.2502 9.00136 8.2502 9.0014 8.2502 9.00145C8.2502 9.0015 8.2502 9.00156 8.2502 9.00161C8.2502 9.00166 8.2502 9.00172 8.2502 9.00178C8.2502 9.00183 8.2502 9.00189 8.2502 9.00195C8.2502 9.00201 8.2502 9.00208 8.2502 9.00214C8.2502 9.00221 8.2502 9.00227 8.2502 9.00234C8.2502 9.00241 8.2502 9.00248 8.2502 9.00256C8.2502 9.00263 8.2502 9.0027 8.2502 9.00278C8.2502 9.00286 8.2502 9.00294 8.2502 9.00302C8.2502 9.0031 8.2502 9.00318 8.2502 9.00327C8.2502 9.00336 8.2502 9.00344 8.2502 9.00354C8.2502 9.00363 8.2502 9.00372 8.2502 9.00381C8.2502 9.00391 8.2502 9.00401 8.2502 9.00411C8.2502 9.00421 8.2502 9.00431 8.2502 9.00442C8.2502 9.00452 8.2502 9.00463 8.2502 9.00474C8.2502 9.00485 8.2502 9.00496 8.2502 9.00508C8.2502 9.00519 8.2502 9.00531 8.2502 9.00543C8.2502 9.00555 8.2502 9.00568 8.2502 9.0058C8.2502 9.00593 8.2502 9.00606 8.2502 9.00619C8.2502 9.00632 8.2502 9.00645 8.2502 9.00659C8.2502 9.00673 8.2502 9.00687 8.2502 9.00701C8.2502 9.00716 8.2502 9.0073 8.2502 9.00745C8.2502 9.0076 8.2502 9.00775 8.2502 9.00791C8.2502 9.00806 8.2502 9.00822 8.2502 9.00838C8.2502 9.00854 8.2502 9.00871 8.2502 9.00887C8.2502 9.00904 8.2502 9.00921 8.2502 9.00939C8.2502 9.00956 8.2502 9.00974 8.2502 9.00992C8.2502 9.0101 8.2502 9.01028 8.2502 9.01047C8.2502 9.01065 8.2502 9.01085 8.2502 9.01104C8.2502 9.01123 8.2502 9.01143 8.2502 9.01163C8.2502 9.01183 8.2502 9.01203 8.2502 9.01224C8.2502 9.01245 8.2502 9.01266 8.2502 9.01287C8.2502 9.01309 8.2502 9.01331 8.2502 9.01353C8.2502 9.01375 8.2502 9.01398 8.2502 9.01421C8.2502 9.01443 8.2502 9.01467 8.2502 9.0149C8.2502 9.01514 8.2502 9.01538 8.2502 9.01562C8.2502 9.01587 8.2502 9.01612 8.2502 9.01637C8.2502 9.01662 8.2502 9.01688 8.2502 9.01714C8.2502 9.0174 8.2502 9.01766 8.2502 9.01793C8.2502 9.01819 8.2502 9.01847 8.2502 9.01874C8.2502 9.01902 8.2502 9.0193 8.2502 9.01958C8.2502 9.01986 8.2502 9.02015 8.2502 9.02044C8.2502 9.02074 8.2502 9.02103 8.2502 9.02133C8.2502 9.02163 8.2502 9.02194 8.2502 9.02225C8.2502 9.02256 8.2502 9.02287 8.2502 9.02319C8.2502 9.02351 8.2502 9.02383 8.2502 9.02415C8.2502 9.02448 8.2502 9.02481 8.2502 9.02515C8.2502 9.02548 8.2502 9.02582 8.2502 9.02617C8.2502 9.02651 8.2502 9.02686 8.2502 9.02721C8.2502 9.02757 8.2502 9.02792 8.2502 9.02829C8.2502 9.02865 8.2502 9.02902 8.2502 9.02939C8.2502 9.02976 8.2502 9.03014 8.2502 9.03052C8.2502 9.0309 8.2502 9.03129 8.2502 9.03168C8.2502 9.03207 8.2502 9.03246 8.2502 9.03286C8.2502 9.03327 8.2502 9.03367 8.2502 9.03408C8.2502 9.03449 8.2502 9.03491 8.2502 9.03533C8.2502 9.03575 8.2502 9.03617 8.2502 9.0366C8.2502 9.03703 8.2502 9.03747 8.2502 9.03791C8.2502 9.03835 8.2502 9.0388 8.2502 9.03925C8.2502 9.0397 8.2502 9.04016 8.2502 9.04062C8.2502 9.04108 8.2502 9.04155 8.2502 9.04202C8.2502 9.04249 8.2502 9.04297 8.2502 9.04345C8.2502 9.04393 8.2502 9.04442 8.2502 9.04492C8.2502 9.04541 8.2502 9.04591 8.2502 9.04641C8.2502 9.04692 8.2502 9.04743 8.2502 9.04794C8.2502 9.04846 8.2502 9.04898 8.2502 9.04951C8.2502 9.05003 8.2502 9.05057 8.2502 9.0511C8.2502 9.05164 8.2502 9.05219 8.2502 9.05273C8.2502 9.05328 8.2502 9.05384 8.2502 9.0544C8.2502 9.05496 8.2502 9.05553 8.2502 9.0561C8.2502 9.05667 8.2502 9.05725 8.2502 9.05783C8.2502 9.05842 8.2502 9.05901 8.2502 9.0596C8.2502 9.0602 8.2502 9.0608 8.2502 9.06141C8.2502 9.06202 8.2502 9.06263 8.2502 9.06325C8.2502 9.06387 8.2502 9.0645 8.2502 9.06513C8.2502 9.06576 8.2502 9.0664 8.2502 9.06705C8.2502 9.06769 8.2502 9.06834 8.2502 9.069C8.2502 9.06966 8.2502 9.07032 8.2502 9.07099C8.2502 9.07166 8.2502 9.07234 8.2502 9.07302C8.2502 9.0737 8.2502 9.07439 8.2502 9.07508C8.2502 9.07578 8.2502 9.07648 8.2502 9.07719C8.2502 9.0779 8.2502 9.07861 8.2502 9.07933C8.2502 9.08006 8.2502 9.08078 8.2502 9.08152C8.2502 9.08225 8.2502 9.08299 8.2502 9.08374C8.2502 9.08449 8.2502 9.08524 8.2502 9.086C8.2502 9.08676 8.2502 9.08753 8.2502 9.08831C8.2502 9.08908 8.2502 9.08986 8.2502 9.09065C8.2502 9.09144 8.2502 9.09223 8.2502 9.09304C8.2502 9.09384 8.2502 9.09465 8.2502 9.09546C8.2502 9.09628 8.2502 9.0971 8.2502 9.09793C8.2502 9.09876 8.2502 9.0996 8.2502 9.10044C8.2502 9.10129 8.2502 9.10214 8.2502 9.103C8.2502 9.10386 8.2502 9.10472 8.2502 9.10559C8.2502 9.10647 8.2502 9.10735 8.2502 9.10823C8.2502 9.10912 8.2502 9.11001 8.2502 9.11092C8.2502 9.11182 8.2502 9.11273 8.2502 9.11364C8.2502 9.11456 8.2502 9.11548 8.2502 9.11642C8.2502 9.11735 8.2502 9.11829 8.2502 9.11923C8.2502 9.12018 8.2502 9.12113 8.2502 9.12209C8.2502 9.12305 8.2502 9.12402 8.2502 9.125C8.2502 9.12598 8.2502 9.12696 8.2502 9.12795C8.2502 9.12894 8.2502 9.12994 8.2502 9.13095C8.2502 9.13196 8.2502 9.13297 8.2502 9.134C8.2502 9.13502 8.2502 9.13605 8.2502 9.13709C8.2502 9.13813 8.2502 9.13917 8.2502 9.14023C8.2502 9.14128 8.2502 9.14234 8.2502 9.14342C8.2502 9.14449 8.2502 9.14556 8.2502 9.14665C8.2502 9.14774 8.2502 9.14883 8.2502 9.14993C8.2502 9.15104 8.2502 9.15215 8.2502 9.15326C8.2502 9.15438 8.2502 9.15551 8.2502 9.15665C8.2502 9.15778 8.2502 9.15892 8.2502 9.16008C8.2502 9.16123 8.2502 9.16239 8.2502 9.16356C8.2502 9.16472 8.2502 9.1659 8.2502 9.16708C8.2502 9.16827 8.2502 9.16946 8.2502 9.17067C8.2502 9.17187 8.2502 9.17308 8.2502 9.1743C8.2502 9.17552 8.2502 9.17674 8.2502 9.17798C8.2502 9.17921 8.2502 9.18046 8.2502 9.18171C8.2502 9.18297 8.2502 9.18423 8.2502 9.1855C8.2502 9.18677 8.2502 9.18805 8.2502 9.18934C8.2502 9.19062 8.2502 9.19192 8.2502 9.19323C8.2502 9.19453 8.2502 9.19585 8.2502 9.19717C8.2502 9.19849 8.2502 9.19982 8.2502 9.20117C8.2502 9.20251 8.2502 9.20386 8.2502 9.20522C8.2502 9.20658 8.2502 9.20794 8.2502 9.20932C8.2502 9.2107 8.2502 9.21208 8.2502 9.21348C8.2502 9.21487 8.2502 9.21628 8.2502 9.21769C8.2502 9.21911 8.2502 9.22053 8.2502 9.22196C8.2502 9.22339 8.2502 9.22483 8.2502 9.22628C8.2502 9.22773 8.2502 9.22919 8.2502 9.23066C8.2502 9.23213 8.2502 9.23361 8.2502 9.2351C8.2502 9.23659 8.2502 9.23808 8.2502 9.23959C8.2502 9.2411 8.2502 9.24261 8.2502 9.24414C8.2502 9.24567 8.2502 9.2472 8.2502 9.24875C8.2502 9.25029 8.2502 9.25185 8.2502 9.25341C8.2502 9.25498 8.2502 9.25655 8.2502 9.25813C8.2502 9.25972 8.2502 9.26131 8.2502 9.26291C8.2502 9.26452 8.2502 9.26613 8.2502 9.26775C8.2502 9.26937 8.2502 9.27101 8.2502 9.27265C8.2502 9.27429 8.2502 9.27594 8.2502 9.27761C8.2502 9.27927 8.2502 9.28094 8.2502 9.28262C8.2502 9.28431 8.2502 9.286 8.2502 9.2877C8.2502 9.2894 8.2502 9.29111 8.2502 9.29284C8.2502 9.29456 8.2502 9.29629 8.2502 9.29804C8.2502 9.29978 8.2502 9.30153 8.2502 9.3033C8.2502 9.30506 8.2502 9.30683 8.2502 9.30862C8.2502 9.3104 8.2502 9.31219 8.2502 9.314C8.2502 9.3158 8.2502 9.31762 8.2502 9.31944C8.2502 9.32127 8.2502 9.3231 8.2502 9.32495C8.2502 9.3268 8.2502 9.32865 8.2502 9.33052C8.2502 9.33239 8.2502 9.33427 8.2502 9.33616C8.2502 9.33804 8.2502 9.33994 8.2502 9.34185C8.2502 9.34376 8.2502 9.34568 8.2502 9.34761C8.2502 9.34955 8.2502 9.35149 8.2502 9.35344C8.2502 9.35539 8.2502 9.35736 8.2502 9.35933C8.2502 9.36131 8.2502 9.36329 8.2502 9.36529C8.2502 9.36728 8.2502 9.36929 8.2502 9.37131C8.2502 9.37333 8.2502 9.37535 8.2502 9.37739C8.2502 9.37943 8.2502 9.38148 8.2502 9.38355C8.2502 9.38561 8.2502 9.38768 8.2502 9.38977C8.2502 9.39185 8.2502 9.39395 8.2502 9.39605C8.2502 9.39816 8.2502 9.40028 8.2502 9.40241C8.2502 9.40454 8.2502 9.40668 8.2502 9.40883C8.2502 9.41098 8.2502 9.41314 8.2502 9.41532C8.2502 9.41749 8.2502 9.41968 8.2502 9.42188C8.2502 9.42407 8.2502 9.42628 8.2502 9.4285C8.2502 9.43072 8.2502 9.43295 8.2502 9.4352C8.2502 9.43744 8.2502 9.43969 8.2502 9.44196C8.2502 9.44423 8.2502 9.44651 8.2502 9.4488C8.2502 9.45109 8.2502 9.45339 8.2502 9.4557C8.2502 9.45801 8.2502 9.46034 8.2502 9.46268C8.2502 9.46501 8.2502 9.46736 8.2502 9.46972C8.2502 9.47208 8.2502 9.47445 8.2502 9.47684C8.2502 9.47922 8.2502 9.48162 8.2502 9.48403C8.2502 9.48643 8.2502 9.48885 8.2502 9.49129C8.2502 9.49372 8.2502 9.49616 8.2502 9.49862C8.2502 9.50107 8.2502 9.50354 8.2502 9.50602C8.2502 9.5085 8.2502 9.511 8.2502 9.5135C8.2502 9.51601 8.2502 9.51852 8.2502 9.52105C8.2502 9.52358 8.2502 9.52612 8.2502 9.52868C8.2502 9.53123 8.2502 9.5338 8.2502 9.53638C8.2502 9.53896 8.2502 9.54155 8.2502 9.54415C8.2502 9.54675 8.2502 9.54937 8.2502 9.552C8.2502 9.55463 8.2502 9.55727 8.2502 9.55992C8.2502 9.56258 8.2502 9.56524 8.2502 9.56792C8.2502 9.5706 8.2502 9.57329 8.2502 9.576C8.2502 9.5787 8.2502 9.58142 8.2502 9.58415C8.2502 9.58688 8.2502 9.58962 8.2502 9.59237C8.2502 9.59513 8.2502 9.5979 8.2502 9.60068C8.2502 9.60346 8.2502 9.60625 8.2502 9.60906C8.2502 9.61187 8.2502 9.61469 8.2502 9.61752C8.2502 9.62035 8.2502 9.6232 8.2502 9.62605C8.2502 9.62891 8.2502 9.63179 8.2502 9.63467C8.2502 9.63756 8.2502 9.64045 8.2502 9.64336C8.2502 9.64628 8.2502 9.6492 8.2502 9.65214C8.2502 9.65508 8.2502 9.65803 8.2502 9.66099C8.2502 9.66395 8.2502 9.66693 8.2502 9.66992C8.2502 9.67291 8.2502 9.67592 8.2502 9.67893C8.2502 9.68195 8.2502 9.68498 8.2502 9.68803C8.2502 9.69107 8.2502 9.69413 8.2502 9.6972C8.2502 9.70027 8.2502 9.70336 8.2502 9.70646C8.2502 9.70955 8.2502 9.71267 8.2502 9.71579C8.2502 9.71892 8.2502 9.72206 8.2502 9.72521C8.2502 9.72836 8.2502 9.73153 8.2502 9.73471C8.2502 9.73789 8.2502 9.74109 8.2502 9.74429C8.2502 9.7475 8.2502 9.75072 8.2502 9.75396C8.2502 9.7572 8.2502 9.76044 8.2502 9.76371C8.2502 9.76697 8.2502 9.77025 8.2502 9.77354C8.2502 9.77683 8.2502 9.78014 8.2502 9.78346C8.2502 9.78678 8.2502 9.79011 8.2502 9.79346C8.2502 9.79681 8.2502 9.80017 8.2502 9.80355C8.2502 9.80692 8.2502 9.81031 8.2502 9.81372C8.2502 9.81712 8.2502 9.82054 8.2502 9.82397C8.2502 9.82741 8.2502 9.83086 8.2502 9.83432C8.2502 9.83778 8.2502 9.84126 8.2502 9.84475C8.2502 9.84824 8.2502 9.85174 8.2502 9.85526C8.2502 9.85878 8.2502 9.86232 8.2502 9.86586C8.2502 9.86941 8.2502 9.87298 8.2502 9.87655C8.2502 9.88013 8.2502 9.88372 8.2502 9.88733C8.2502 9.89094 8.2502 9.89456 8.2502 9.8982C8.2502 9.90183 8.2502 9.90548 8.2502 9.90915C8.2502 9.91282 8.2502 9.9165 8.2502 9.92019C8.2502 9.92389 8.2502 9.9276 8.2502 9.93132C8.2502 9.93505 8.2502 9.93879 8.2502 9.94254C8.2502 9.9463 8.2502 9.95007 8.2502 9.95385C8.2502 9.95764 8.2502 9.96144 8.2502 9.96525C8.2502 9.96907 8.2502 9.9729 8.2502 9.97675C8.2502 9.98059 8.2502 9.98445 8.2502 9.98833C8.2502 9.9922 8.2502 9.99609 8.2502 10C8.2502 10.0039 8.2502 10.0078 8.2502 10.0118C8.2502 10.0157 8.2502 10.0197 8.2502 10.0236C8.2502 10.0276 8.2502 10.0316 8.2502 10.0356C8.2502 10.0396 8.2502 10.0436 8.2502 10.0476C8.2502 10.0516 8.2502 10.0557 8.2502 10.0597C8.2502 10.0638 8.2502 10.0679 8.2502 10.072C8.2502 10.0761 8.2502 10.0802 8.2502 10.0843C8.2502 10.0884 8.2502 10.0926 8.2502 10.0967C8.2502 10.1009 8.2502 10.105 8.2502 10.1092C8.2502 10.1134 8.2502 10.1176 8.2502 10.1218C8.2502 10.126 8.2502 10.1303 8.2502 10.1345C8.2502 10.1388 8.2502 10.143 8.2502 10.1473C8.2502 10.1516 8.2502 10.1559 8.2502 10.1602C8.2502 10.1645 8.2502 10.1689 8.2502 10.1732C8.2502 10.1775 8.2502 10.1819 8.2502 10.1863C8.2502 10.1907 8.2502 10.1951 8.2502 10.1995C8.2502 10.2039 8.2502 10.2083 8.2502 10.2127C8.2502 10.2172 8.2502 10.2216 8.2502 10.2261C8.2502 10.2306 8.2502 10.2351 8.2502 10.2396C8.2502 10.2441 8.2502 10.2486 8.2502 10.2532C8.2502 10.2577 8.2502 10.2623 8.2502 10.2668C8.2502 10.2714 8.2502 10.276 8.2502 10.2806C8.2502 10.2852 8.2502 10.2898 8.2502 10.2945C8.2502 10.2991 8.2502 10.3038 8.2502 10.3084C8.2502 10.3131 8.2502 10.3178 8.2502 10.3225C8.2502 10.3272 8.2502 10.3319 8.2502 10.3367C8.2502 10.3414 8.2502 10.3462 8.2502 10.351C8.2502 10.3557 8.2502 10.3605 8.2502 10.3653C8.2502 10.3701 8.2502 10.375 8.2502 10.3798C8.2502 10.3846 8.2502 10.3895 8.2502 10.3944C8.2502 10.3992 8.2502 10.4041 8.2502 10.409C8.2502 10.414 8.2502 10.4189 8.2502 10.4238C8.2502 10.4288 8.2502 10.4337 8.2502 10.4387C8.2502 10.4437 8.2502 10.4487 8.2502 10.4537C8.2502 10.4587 8.2502 10.4637 8.2502 10.4688C8.2502 10.4738 8.2502 10.4789 8.2502 10.484C8.2502 10.4891 8.2502 10.4942 8.2502 10.4993C8.2502 10.5044 8.2502 10.5095 8.2502 10.5147C8.2502 10.5198 8.2502 10.525 8.2502 10.5302C8.2502 10.5354 8.2502 10.5406 8.2502 10.5458C8.2502 10.551 8.2502 10.5563 8.2502 10.5615C8.2502 10.5668 8.2502 10.5721 8.2502 10.5774C8.2502 10.5826 8.2502 10.588 8.2502 10.5933C8.2502 10.5986 8.2502 10.604 8.2502 10.6093C8.2502 10.6147 8.2502 10.6201 8.2502 10.6255C8.2502 10.6309 8.2502 10.6363 8.2502 10.6417C8.2502 10.6472 8.2502 10.6526 8.2502 10.6581C8.2502 10.6636 8.2502 10.6691 8.2502 10.6746C8.2502 10.6801 8.2502 10.6856 8.2502 10.6911C8.2502 10.6967 8.2502 10.7022 8.2502 10.7078C8.2502 10.7134 8.2502 10.719 8.2502 10.7246C8.2502 10.7302 8.2502 10.7359 8.2502 10.7415C8.2502 10.7472 8.2502 10.7529 8.2502 10.7586C8.2502 10.7642 8.2502 10.77 8.2502 10.7757C8.2502 10.7814 8.2502 10.7872 8.2502 10.7929C8.2502 10.7987 8.2502 10.8045 8.2502 10.8103C8.2502 10.8161 8.2502 10.8219 8.2502 10.8277C8.2502 10.8336 8.2502 10.8394 8.2502 10.8453C8.2502 10.8512 8.2502 10.8571 8.2502 10.863C8.2502 10.8689 8.2502 10.8748 8.2502 10.8808C8.2502 10.8867 8.2502 10.8927 8.2502 10.8987C8.2502 10.9047 8.2502 10.9107 8.2502 10.9167C8.2502 10.9228 8.2502 10.9288 8.2502 10.9349C8.2502 10.9409 8.2502 10.947 8.2502 10.9531C8.2502 10.9592 8.2502 10.9654 8.2502 10.9715C8.2502 10.9776 8.2502 10.9838 8.2502 10.99C8.2502 10.9962 8.2502 11.0024 8.2502 11.0086C8.2502 11.0148 8.2502 11.021 8.2502 11.0273C8.2502 11.0335 8.2502 11.0398 8.2502 11.0461C8.2502 11.0524 8.2502 11.0587 8.2502 11.0651C8.2502 11.0714 8.2502 11.0777 8.2502 11.0841C8.2502 11.0905 8.2502 11.0969 8.2502 11.1033C8.2502 11.1097 8.2502 11.1161 8.2502 11.1226C8.2502 11.1291 8.2502 11.1355 8.2502 11.142C8.2502 11.1485 8.2502 11.155 8.2502 11.1615C8.2502 11.1681 8.2502 11.1746 8.2502 11.1812C8.2502 11.1878 8.2502 11.1944 8.2502 11.201C8.2502 11.2076 8.2502 11.2142 8.2502 11.2209C8.2502 11.2275 8.2502 11.2342 8.2502 11.2409C8.2502 11.2475 8.2502 11.2543 8.2502 11.261C8.2502 11.2677 8.2502 11.2745 8.2502 11.2812C8.2502 11.288 8.2502 11.2948 8.2502 11.3016C8.2502 11.3084 8.2502 11.3152 8.2502 11.3221C8.2502 11.3289 8.2502 11.3358 8.2502 11.3427C8.2502 11.3496 8.2502 11.3565 8.2502 11.3634C8.2502 11.3704 8.2502 11.3773 8.2502 11.3843C8.2502 11.3913 8.2502 11.3982 8.2502 11.4053C8.2502 11.4123 8.2502 11.4193 8.2502 11.4264C8.2502 11.4334 8.2502 11.4405 8.2502 11.4476C8.2502 11.4547 8.2502 11.4618 8.2502 11.4689C8.2502 11.4761 8.2502 11.4832 8.2502 11.4904C8.2502 11.4976 8.2502 11.5048 8.2502 11.512C8.2502 11.5192 8.2502 11.5264 8.2502 11.5337C8.2502 11.541 8.2502 11.5482 8.2502 11.5555C8.2502 11.5629 8.2502 11.5702 8.2502 11.5775C8.2502 11.5849 8.2502 11.5922 8.2502 11.5996C8.2502 11.607 8.2502 11.6144 8.2502 11.6218C8.2502 11.6293 8.2502 11.6367 8.2502 11.6442C8.2502 11.6516 8.2502 11.6591 8.2502 11.6666C8.2502 11.6742 8.2502 11.6817 8.2502 11.6892C8.2502 11.6968 8.2502 11.7044 8.2502 11.712C8.2502 11.7196 8.2502 11.7272 8.2502 11.7348C8.2502 11.7425 8.2502 11.7501 8.2502 11.7578C8.2502 11.7655 8.2502 11.7732 8.2502 11.7809C8.2502 11.7886 8.2502 11.7964 8.2502 11.8042C8.2502 11.8119 8.2502 11.8197 8.2502 11.8275C8.2502 11.8353 8.2502 11.8432 8.2502 11.851C8.2502 11.8589 8.2502 11.8667 8.2502 11.8746C8.2502 11.8825 8.2502 11.8905 8.2502 11.8984C8.2502 11.9063 8.2502 11.9143 8.2502 11.9223C8.2502 11.9303 8.2502 11.9383 8.2502 11.9463C8.2502 11.9543 8.2502 11.9624 8.2502 11.9705C8.2502 11.9785 8.2502 11.9866 8.2502 11.9947C8.2502 12.0029 8.2502 12.011 8.2502 12.0192C8.2502 12.0273 8.2502 12.0355 8.2502 12.0437C8.2502 12.0519 8.2502 12.0601 8.2502 12.0684C8.2502 12.0766 8.2502 12.0849 8.2502 12.0932C8.2502 12.1015 8.2502 12.1098 8.2502 12.1181C8.2502 12.1265 8.2502 12.1348 8.2502 12.1432C8.2502 12.1516 8.2502 12.16 8.2502 12.1684C8.2502 12.1769 8.2502 12.1853 8.2502 12.1938C8.2502 12.2022 8.2502 12.2107 8.2502 12.2193C8.2502 12.2278 8.2502 12.2363 8.2502 12.2449C8.2502 12.2534 8.2502 12.262 8.2502 12.2706C8.2502 12.2792 8.2502 12.2879 8.2502 12.2965C8.2502 12.3052 8.2502 12.3138 8.2502 12.3225C8.2502 12.3312 8.2502 12.34 8.2502 12.3487C8.2502 12.3574 8.2502 12.3662 8.2502 12.375C8.2502 12.3838 8.2502 12.3926 8.2502 12.4014C8.2502 12.4103 8.2502 12.4191 8.2502 12.428C8.2502 12.4369 8.2502 12.4458 8.2502 12.4547C8.2502 12.4636 8.2502 12.4726 8.2502 12.4816C8.2502 12.4905 8.2502 12.4995 8.2502 12.5086C8.2502 12.5176 8.2502 12.5266 8.2502 12.5357C8.2502 12.5448 8.2502 12.5538 8.2502 12.563C8.2502 12.5721 8.2502 12.5812 8.2502 12.5904C8.2502 12.5995 8.2502 12.6087 8.2502 12.6179C8.2502 12.6271 8.2502 12.6363 8.2502 12.6456C8.2502 12.6549 8.2502 12.6641 8.2502 12.6734C8.2502 12.6827 8.2502 12.692 8.2502 12.7014C8.2502 12.7107 8.2502 12.7201 8.2502 12.7295C8.2502 12.7389 8.2502 12.7483 8.2502 12.7578C8.2502 12.7672 8.2502 12.7767 8.2502 12.7862C8.2502 12.7956 8.2502 12.8052 8.2502 12.8147C8.2502 12.8242 8.2502 12.8338 8.2502 12.8434C8.2502 12.853 8.2502 12.8626 8.2502 12.8722C8.2502 12.8818 8.2502 12.8915 8.2502 12.9012C8.2502 12.9109 8.2502 12.9206 8.2502 12.9303C8.2502 12.94 8.2502 12.9498 8.2502 12.9595C8.2502 12.9693 8.2502 12.9791 8.2502 12.9889C8.2502 12.9988 8.2502 13.0086 8.2502 13.0185C8.2502 13.0284 8.2502 13.0383 8.2502 13.0482C8.2502 13.0581 8.2502 13.0681 8.2502 13.078C8.2502 13.088 8.2502 13.098 8.2502 13.108C8.2502 13.118 8.2502 13.1281 8.2502 13.1381C8.2502 13.1482 8.2502 13.1583 8.2502 13.1684C8.2502 13.1785 8.2502 13.1887 8.2502 13.1988C8.2502 13.209 8.2502 13.2192 8.2502 13.2294C8.2502 13.2396 8.2502 13.2499 8.2502 13.2601C8.2502 13.2704 8.2502 13.2807 8.2502 13.291C8.2502 13.3013 8.2502 13.3117 8.2502 13.322C8.2502 13.3324 8.2502 13.3428 8.2502 13.3532C8.2502 13.3636 8.2502 13.3741 8.2502 13.3845C8.2502 13.395 8.2502 13.4055 8.2502 13.416C8.2502 13.4265 8.2502 13.437 8.2502 13.4476C8.2502 13.4582 8.2502 13.4688 8.2502 13.4794C8.2502 13.49 8.2502 13.5006 8.2502 13.5113C8.2502 13.522 8.2502 13.5326 8.2502 13.5434C8.2502 13.5541 8.2502 13.5648 8.2502 13.5756C8.2502 13.5864 8.2502 13.5971 8.2502 13.608C8.2502 13.6188 8.2502 13.6296 8.2502 13.6405C8.2502 13.6514 8.2502 13.6622 8.2502 13.6732C8.2502 13.6841 8.2502 13.695 8.2502 13.706C8.2502 13.717 8.2502 13.728 8.2502 13.739C8.2502 13.75 8.2502 13.7611 8.2502 13.7721C8.2502 13.7832 8.2502 13.7943 8.2502 13.8054C8.2502 13.8165 8.2502 13.8277 8.2502 13.8389C8.2502 13.85 8.2502 13.8612 8.2502 13.8725C8.2502 13.8837 8.2502 13.895 8.2502 13.9062C8.2502 13.9175 8.2502 13.9288 8.2502 13.9401C8.2502 13.9515 8.2502 13.9628 8.2502 13.9742C8.2502 13.9856 8.2502 13.997 8.2502 14.0084C8.2502 14.0199 8.2502 14.0313 8.2502 14.0428C8.2502 14.0543 8.2502 14.0658 8.2502 14.0774C8.2502 14.0889 8.2502 14.1005 8.2502 14.1121C8.2502 14.1237 8.2502 14.1353 8.2502 14.1469C8.2502 14.1586 8.2502 14.1702 8.2502 14.1819C8.2502 14.1936 8.2502 14.2053 8.2502 14.2171C8.2502 14.2288 8.2502 14.2406 8.2502 14.2524C8.2502 14.2642 8.2502 14.2761 8.2502 14.2879C8.2502 14.2998 8.2502 14.3117 8.2502 14.3236C8.2502 14.3355 8.2502 14.3474 8.2502 14.3594C8.2502 14.3713 8.2502 14.3833 8.2502 14.3953C8.2502 14.4074 8.2502 14.4194 8.2502 14.4315C8.2502 14.4435 8.2502 14.4556 8.2502 14.4678C8.2502 14.4799 8.2502 14.492 8.2502 14.5042C8.2502 14.5164 8.2502 14.5286 8.2502 14.5408C8.2502 14.5531 8.2502 14.5653 8.2502 14.5776C8.2502 14.5899 8.2502 14.6022 8.2502 14.6145C8.2502 14.6269 8.2502 14.6392 8.2502 14.6516C8.2502 14.664 8.2502 14.6765 8.2502 14.6889C8.2502 14.7014 8.2502 14.7138 8.2502 14.7263C8.2502 14.7388 8.2502 14.7514 8.2502 14.7639C8.2502 14.7765 8.2502 14.7891 8.2502 14.8017C8.2502 14.8143 8.2502 14.8269 8.2502 14.8396C8.2502 14.8523 8.2502 14.865 8.2502 14.8777C8.2502 14.8904 8.2502 14.9032 8.2502 14.9159C8.2502 14.9287 8.2502 14.9415 8.2502 14.9543C8.2502 14.9672 8.2502 14.98 8.2502 14.9929C8.2502 15.0058 8.2502 15.0187 8.2502 15.0317C8.2502 15.0446 8.2502 15.0576 8.2502 15.0706C8.2502 15.0836 8.2502 15.0966 8.2502 15.1097C8.2502 15.1227 8.2502 15.1358 8.2502 15.1489C8.2502 15.162 8.2502 15.1752 8.2502 15.1883C8.2502 15.2015 8.2502 15.2147 8.2502 15.2279C8.2502 15.2411 8.2502 15.2544 8.2502 15.2677C8.2502 15.2809 8.2502 15.2943 8.2502 15.3076C8.2502 15.3209 8.2502 15.3343 8.2502 15.3477C8.2502 15.3611 8.2502 15.3745 8.2502 15.3879C8.2502 15.4014 8.2502 15.4149 8.2502 15.4284C8.2502 15.4419 8.2502 15.4554 8.2502 15.469C8.2502 15.4825 8.2502 15.4961 8.2502 15.5097C8.2502 15.5234 8.2502 15.537 8.2502 15.5507C8.2502 15.5644 8.2502 15.5781 8.2502 15.5918C8.2502 15.6055 8.2502 15.6193 8.2502 15.6331C8.2502 15.6469 8.2502 15.6607 8.2502 15.6745C8.2502 15.6884 8.2502 15.7023 8.2502 15.7162C8.2502 15.7301 8.2502 15.744 8.2502 15.758C8.2502 15.7719 8.2502 15.7859 8.2502 15.7999C8.2502 15.814 8.2502 15.828 8.2502 15.8421C8.2502 15.8562 8.2502 15.8703 8.2502 15.8844C8.2502 15.8986 8.2502 15.9127 8.2502 15.9269C8.2502 15.9411 8.2502 15.9553 8.2502 15.9696C8.2502 15.9838 8.2502 15.9981 8.2502 16.0124C8.2502 16.0267 8.2502 16.0411 8.2502 16.0554C8.2502 16.0698 8.2502 16.0842 8.2502 16.0986C8.2502 16.1131 8.2502 16.1275 8.2502 16.142C8.2502 16.1565 8.2502 16.171 8.2502 16.1856C8.2502 16.2001 8.2502 16.2147 8.2502 16.2293C8.2502 16.2439 8.2502 16.2585 8.2502 16.2732C8.2502 16.2879 8.2502 16.3026 8.2502 16.3173C8.2502 16.332 8.2502 16.3467 8.2502 16.3615C8.2502 16.3763 8.2502 16.3911 8.2502 16.406C8.2502 16.4208 8.2502 16.4357 8.2502 16.4506C8.2502 16.4655 8.2502 16.4804 8.2502 16.4954C8.2502 16.5103 8.2502 16.5253 8.2502 16.5403C8.2502 16.5554 8.2502 16.5704 8.2502 16.5855C8.2502 16.6006 8.2502 16.6157 8.2502 16.6308C8.2502 16.646 8.2502 16.6611 8.2502 16.6763C8.2502 16.6915 8.2502 16.7068 8.2502 16.722C8.2502 16.7373 8.2502 16.7526 8.2502 16.7679C8.2502 16.7832 8.2502 16.7986 8.2502 16.814C8.2502 16.8293 8.2502 16.8448 8.2502 16.8602C8.2502 16.8756 8.2502 16.8911 8.2502 16.9066C8.2502 16.9221 8.2502 16.9377 8.2502 16.9532C8.2502 16.9688 8.2502 16.9844 8.2502 17H9.7502C9.7502 16.9844 9.7502 16.9688 9.7502 16.9532C9.7502 16.9377 9.7502 16.9221 9.7502 16.9066C9.7502 16.8911 9.7502 16.8756 9.7502 16.8602C9.7502 16.8448 9.7502 16.8293 9.7502 16.814C9.7502 16.7986 9.7502 16.7832 9.7502 16.7679C9.7502 16.7526 9.7502 16.7373 9.7502 16.722C9.7502 16.7068 9.7502 16.6915 9.7502 16.6763C9.7502 16.6611 9.7502 16.646 9.7502 16.6308C9.7502 16.6157 9.7502 16.6006 9.7502 16.5855C9.7502 16.5704 9.7502 16.5554 9.7502 16.5403C9.7502 16.5253 9.7502 16.5103 9.7502 16.4954C9.7502 16.4804 9.7502 16.4655 9.7502 16.4506C9.7502 16.4357 9.7502 16.4208 9.7502 16.406C9.7502 16.3911 9.7502 16.3763 9.7502 16.3615C9.7502 16.3467 9.7502 16.332 9.7502 16.3173C9.7502 16.3026 9.7502 16.2879 9.7502 16.2732C9.7502 16.2585 9.7502 16.2439 9.7502 16.2293C9.7502 16.2147 9.7502 16.2001 9.7502 16.1856C9.7502 16.171 9.7502 16.1565 9.7502 16.142C9.7502 16.1275 9.7502 16.1131 9.7502 16.0986C9.7502 16.0842 9.7502 16.0698 9.7502 16.0554C9.7502 16.0411 9.7502 16.0267 9.7502 16.0124C9.7502 15.9981 9.7502 15.9838 9.7502 15.9696C9.7502 15.9553 9.7502 15.9411 9.7502 15.9269C9.7502 15.9127 9.7502 15.8986 9.7502 15.8844C9.7502 15.8703 9.7502 15.8562 9.7502 15.8421C9.7502 15.828 9.7502 15.814 9.7502 15.7999C9.7502 15.7859 9.7502 15.7719 9.7502 15.758C9.7502 15.744 9.7502 15.7301 9.7502 15.7162C9.7502 15.7023 9.7502 15.6884 9.7502 15.6745C9.7502 15.6607 9.7502 15.6469 9.7502 15.6331C9.7502 15.6193 9.7502 15.6055 9.7502 15.5918C9.7502 15.5781 9.7502 15.5644 9.7502 15.5507C9.7502 15.537 9.7502 15.5234 9.7502 15.5097C9.7502 15.4961 9.7502 15.4825 9.7502 15.469C9.7502 15.4554 9.7502 15.4419 9.7502 15.4284C9.7502 15.4149 9.7502 15.4014 9.7502 15.3879C9.7502 15.3745 9.7502 15.3611 9.7502 15.3477C9.7502 15.3343 9.7502 15.3209 9.7502 15.3076C9.7502 15.2943 9.7502 15.2809 9.7502 15.2677C9.7502 15.2544 9.7502 15.2411 9.7502 15.2279C9.7502 15.2147 9.7502 15.2015 9.7502 15.1883C9.7502 15.1752 9.7502 15.162 9.7502 15.1489C9.7502 15.1358 9.7502 15.1227 9.7502 15.1097C9.7502 15.0966 9.7502 15.0836 9.7502 15.0706C9.7502 15.0576 9.7502 15.0446 9.7502 15.0317C9.7502 15.0187 9.7502 15.0058 9.7502 14.9929C9.7502 14.98 9.7502 14.9672 9.7502 14.9543C9.7502 14.9415 9.7502 14.9287 9.7502 14.9159C9.7502 14.9032 9.7502 14.8904 9.7502 14.8777C9.7502 14.865 9.7502 14.8523 9.7502 14.8396C9.7502 14.8269 9.7502 14.8143 9.7502 14.8017C9.7502 14.7891 9.7502 14.7765 9.7502 14.7639C9.7502 14.7514 9.7502 14.7388 9.7502 14.7263C9.7502 14.7138 9.7502 14.7014 9.7502 14.6889C9.7502 14.6765 9.7502 14.664 9.7502 14.6516C9.7502 14.6392 9.7502 14.6269 9.7502 14.6145C9.7502 14.6022 9.7502 14.5899 9.7502 14.5776C9.7502 14.5653 9.7502 14.5531 9.7502 14.5408C9.7502 14.5286 9.7502 14.5164 9.7502 14.5042C9.7502 14.492 9.7502 14.4799 9.7502 14.4678C9.7502 14.4556 9.7502 14.4435 9.7502 14.4315C9.7502 14.4194 9.7502 14.4074 9.7502 14.3953C9.7502 14.3833 9.7502 14.3713 9.7502 14.3594C9.7502 14.3474 9.7502 14.3355 9.7502 14.3236C9.7502 14.3117 9.7502 14.2998 9.7502 14.2879C9.7502 14.2761 9.7502 14.2642 9.7502 14.2524C9.7502 14.2406 9.7502 14.2288 9.7502 14.2171C9.7502 14.2053 9.7502 14.1936 9.7502 14.1819C9.7502 14.1702 9.7502 14.1586 9.7502 14.1469C9.7502 14.1353 9.7502 14.1237 9.7502 14.1121C9.7502 14.1005 9.7502 14.0889 9.7502 14.0774C9.7502 14.0658 9.7502 14.0543 9.7502 14.0428C9.7502 14.0313 9.7502 14.0199 9.7502 14.0084C9.7502 13.997 9.7502 13.9856 9.7502 13.9742C9.7502 13.9628 9.7502 13.9515 9.7502 13.9401C9.7502 13.9288 9.7502 13.9175 9.7502 13.9062C9.7502 13.895 9.7502 13.8837 9.7502 13.8725C9.7502 13.8612 9.7502 13.85 9.7502 13.8389C9.7502 13.8277 9.7502 13.8165 9.7502 13.8054C9.7502 13.7943 9.7502 13.7832 9.7502 13.7721C9.7502 13.7611 9.7502 13.75 9.7502 13.739C9.7502 13.728 9.7502 13.717 9.7502 13.706C9.7502 13.695 9.7502 13.6841 9.7502 13.6732C9.7502 13.6622 9.7502 13.6514 9.7502 13.6405C9.7502 13.6296 9.7502 13.6188 9.7502 13.608C9.7502 13.5971 9.7502 13.5864 9.7502 13.5756C9.7502 13.5648 9.7502 13.5541 9.7502 13.5434C9.7502 13.5326 9.7502 13.522 9.7502 13.5113C9.7502 13.5006 9.7502 13.49 9.7502 13.4794C9.7502 13.4688 9.7502 13.4582 9.7502 13.4476C9.7502 13.437 9.7502 13.4265 9.7502 13.416C9.7502 13.4055 9.7502 13.395 9.7502 13.3845C9.7502 13.3741 9.7502 13.3636 9.7502 13.3532C9.7502 13.3428 9.7502 13.3324 9.7502 13.322C9.7502 13.3117 9.7502 13.3013 9.7502 13.291C9.7502 13.2807 9.7502 13.2704 9.7502 13.2601C9.7502 13.2499 9.7502 13.2396 9.7502 13.2294C9.7502 13.2192 9.7502 13.209 9.7502 13.1988C9.7502 13.1887 9.7502 13.1785 9.7502 13.1684C9.7502 13.1583 9.7502 13.1482 9.7502 13.1381C9.7502 13.1281 9.7502 13.118 9.7502 13.108C9.7502 13.098 9.7502 13.088 9.7502 13.078C9.7502 13.0681 9.7502 13.0581 9.7502 13.0482C9.7502 13.0383 9.7502 13.0284 9.7502 13.0185C9.7502 13.0086 9.7502 12.9988 9.7502 12.9889C9.7502 12.9791 9.7502 12.9693 9.7502 12.9595C9.7502 12.9498 9.7502 12.94 9.7502 12.9303C9.7502 12.9206 9.7502 12.9109 9.7502 12.9012C9.7502 12.8915 9.7502 12.8818 9.7502 12.8722C9.7502 12.8626 9.7502 12.853 9.7502 12.8434C9.7502 12.8338 9.7502 12.8242 9.7502 12.8147C9.7502 12.8052 9.7502 12.7956 9.7502 12.7862C9.7502 12.7767 9.7502 12.7672 9.7502 12.7578C9.7502 12.7483 9.7502 12.7389 9.7502 12.7295C9.7502 12.7201 9.7502 12.7107 9.7502 12.7014C9.7502 12.692 9.7502 12.6827 9.7502 12.6734C9.7502 12.6641 9.7502 12.6549 9.7502 12.6456C9.7502 12.6363 9.7502 12.6271 9.7502 12.6179C9.7502 12.6087 9.7502 12.5995 9.7502 12.5904C9.7502 12.5812 9.7502 12.5721 9.7502 12.563C9.7502 12.5538 9.7502 12.5448 9.7502 12.5357C9.7502 12.5266 9.7502 12.5176 9.7502 12.5086C9.7502 12.4995 9.7502 12.4905 9.7502 12.4816C9.7502 12.4726 9.7502 12.4636 9.7502 12.4547C9.7502 12.4458 9.7502 12.4369 9.7502 12.428C9.7502 12.4191 9.7502 12.4103 9.7502 12.4014C9.7502 12.3926 9.7502 12.3838 9.7502 12.375C9.7502 12.3662 9.7502 12.3574 9.7502 12.3487C9.7502 12.34 9.7502 12.3312 9.7502 12.3225C9.7502 12.3138 9.7502 12.3052 9.7502 12.2965C9.7502 12.2879 9.7502 12.2792 9.7502 12.2706C9.7502 12.262 9.7502 12.2534 9.7502 12.2449C9.7502 12.2363 9.7502 12.2278 9.7502 12.2193C9.7502 12.2107 9.7502 12.2022 9.7502 12.1938C9.7502 12.1853 9.7502 12.1769 9.7502 12.1684C9.7502 12.16 9.7502 12.1516 9.7502 12.1432C9.7502 12.1348 9.7502 12.1265 9.7502 12.1181C9.7502 12.1098 9.7502 12.1015 9.7502 12.0932C9.7502 12.0849 9.7502 12.0766 9.7502 12.0684C9.7502 12.0601 9.7502 12.0519 9.7502 12.0437C9.7502 12.0355 9.7502 12.0273 9.7502 12.0192C9.7502 12.011 9.7502 12.0029 9.7502 11.9947C9.7502 11.9866 9.7502 11.9785 9.7502 11.9705C9.7502 11.9624 9.7502 11.9543 9.7502 11.9463C9.7502 11.9383 9.7502 11.9303 9.7502 11.9223C9.7502 11.9143 9.7502 11.9063 9.7502 11.8984C9.7502 11.8905 9.7502 11.8825 9.7502 11.8746C9.7502 11.8667 9.7502 11.8589 9.7502 11.851C9.7502 11.8432 9.7502 11.8353 9.7502 11.8275C9.7502 11.8197 9.7502 11.8119 9.7502 11.8042C9.7502 11.7964 9.7502 11.7886 9.7502 11.7809C9.7502 11.7732 9.7502 11.7655 9.7502 11.7578C9.7502 11.7501 9.7502 11.7425 9.7502 11.7348C9.7502 11.7272 9.7502 11.7196 9.7502 11.712C9.7502 11.7044 9.7502 11.6968 9.7502 11.6892C9.7502 11.6817 9.7502 11.6742 9.7502 11.6666C9.7502 11.6591 9.7502 11.6516 9.7502 11.6442C9.7502 11.6367 9.7502 11.6293 9.7502 11.6218C9.7502 11.6144 9.7502 11.607 9.7502 11.5996C9.7502 11.5922 9.7502 11.5849 9.7502 11.5775C9.7502 11.5702 9.7502 11.5629 9.7502 11.5555C9.7502 11.5482 9.7502 11.541 9.7502 11.5337C9.7502 11.5264 9.7502 11.5192 9.7502 11.512C9.7502 11.5048 9.7502 11.4976 9.7502 11.4904C9.7502 11.4832 9.7502 11.4761 9.7502 11.4689C9.7502 11.4618 9.7502 11.4547 9.7502 11.4476C9.7502 11.4405 9.7502 11.4334 9.7502 11.4264C9.7502 11.4193 9.7502 11.4123 9.7502 11.4053C9.7502 11.3982 9.7502 11.3913 9.7502 11.3843C9.7502 11.3773 9.7502 11.3704 9.7502 11.3634C9.7502 11.3565 9.7502 11.3496 9.7502 11.3427C9.7502 11.3358 9.7502 11.3289 9.7502 11.3221C9.7502 11.3152 9.7502 11.3084 9.7502 11.3016C9.7502 11.2948 9.7502 11.288 9.7502 11.2812C9.7502 11.2745 9.7502 11.2677 9.7502 11.261C9.7502 11.2543 9.7502 11.2475 9.7502 11.2409C9.7502 11.2342 9.7502 11.2275 9.7502 11.2209C9.7502 11.2142 9.7502 11.2076 9.7502 11.201C9.7502 11.1944 9.7502 11.1878 9.7502 11.1812C9.7502 11.1746 9.7502 11.1681 9.7502 11.1615C9.7502 11.155 9.7502 11.1485 9.7502 11.142C9.7502 11.1355 9.7502 11.1291 9.7502 11.1226C9.7502 11.1161 9.7502 11.1097 9.7502 11.1033C9.7502 11.0969 9.7502 11.0905 9.7502 11.0841C9.7502 11.0777 9.7502 11.0714 9.7502 11.0651C9.7502 11.0587 9.7502 11.0524 9.7502 11.0461C9.7502 11.0398 9.7502 11.0335 9.7502 11.0273C9.7502 11.021 9.7502 11.0148 9.7502 11.0086C9.7502 11.0024 9.7502 10.9962 9.7502 10.99C9.7502 10.9838 9.7502 10.9776 9.7502 10.9715C9.7502 10.9654 9.7502 10.9592 9.7502 10.9531C9.7502 10.947 9.7502 10.9409 9.7502 10.9349C9.7502 10.9288 9.7502 10.9228 9.7502 10.9167C9.7502 10.9107 9.7502 10.9047 9.7502 10.8987C9.7502 10.8927 9.7502 10.8867 9.7502 10.8808C9.7502 10.8748 9.7502 10.8689 9.7502 10.863C9.7502 10.8571 9.7502 10.8512 9.7502 10.8453C9.7502 10.8394 9.7502 10.8336 9.7502 10.8277C9.7502 10.8219 9.7502 10.8161 9.7502 10.8103C9.7502 10.8045 9.7502 10.7987 9.7502 10.7929C9.7502 10.7872 9.7502 10.7814 9.7502 10.7757C9.7502 10.77 9.7502 10.7642 9.7502 10.7586C9.7502 10.7529 9.7502 10.7472 9.7502 10.7415C9.7502 10.7359 9.7502 10.7302 9.7502 10.7246C9.7502 10.719 9.7502 10.7134 9.7502 10.7078C9.7502 10.7022 9.7502 10.6967 9.7502 10.6911C9.7502 10.6856 9.7502 10.6801 9.7502 10.6746C9.7502 10.6691 9.7502 10.6636 9.7502 10.6581C9.7502 10.6526 9.7502 10.6472 9.7502 10.6417C9.7502 10.6363 9.7502 10.6309 9.7502 10.6255C9.7502 10.6201 9.7502 10.6147 9.7502 10.6093C9.7502 10.604 9.7502 10.5986 9.7502 10.5933C9.7502 10.588 9.7502 10.5826 9.7502 10.5774C9.7502 10.5721 9.7502 10.5668 9.7502 10.5615C9.7502 10.5563 9.7502 10.551 9.7502 10.5458C9.7502 10.5406 9.7502 10.5354 9.7502 10.5302C9.7502 10.525 9.7502 10.5198 9.7502 10.5147C9.7502 10.5095 9.7502 10.5044 9.7502 10.4993C9.7502 10.4942 9.7502 10.4891 9.7502 10.484C9.7502 10.4789 9.7502 10.4738 9.7502 10.4688C9.7502 10.4637 9.7502 10.4587 9.7502 10.4537C9.7502 10.4487 9.7502 10.4437 9.7502 10.4387C9.7502 10.4337 9.7502 10.4288 9.7502 10.4238C9.7502 10.4189 9.7502 10.414 9.7502 10.409C9.7502 10.4041 9.7502 10.3992 9.7502 10.3944C9.7502 10.3895 9.7502 10.3846 9.7502 10.3798C9.7502 10.375 9.7502 10.3701 9.7502 10.3653C9.7502 10.3605 9.7502 10.3557 9.7502 10.351C9.7502 10.3462 9.7502 10.3414 9.7502 10.3367C9.7502 10.3319 9.7502 10.3272 9.7502 10.3225C9.7502 10.3178 9.7502 10.3131 9.7502 10.3084C9.7502 10.3038 9.7502 10.2991 9.7502 10.2945C9.7502 10.2898 9.7502 10.2852 9.7502 10.2806C9.7502 10.276 9.7502 10.2714 9.7502 10.2668C9.7502 10.2623 9.7502 10.2577 9.7502 10.2532C9.7502 10.2486 9.7502 10.2441 9.7502 10.2396C9.7502 10.2351 9.7502 10.2306 9.7502 10.2261C9.7502 10.2216 9.7502 10.2172 9.7502 10.2127C9.7502 10.2083 9.7502 10.2039 9.7502 10.1995C9.7502 10.1951 9.7502 10.1907 9.7502 10.1863C9.7502 10.1819 9.7502 10.1775 9.7502 10.1732C9.7502 10.1689 9.7502 10.1645 9.7502 10.1602C9.7502 10.1559 9.7502 10.1516 9.7502 10.1473C9.7502 10.143 9.7502 10.1388 9.7502 10.1345C9.7502 10.1303 9.7502 10.126 9.7502 10.1218C9.7502 10.1176 9.7502 10.1134 9.7502 10.1092C9.7502 10.105 9.7502 10.1009 9.7502 10.0967C9.7502 10.0926 9.7502 10.0884 9.7502 10.0843C9.7502 10.0802 9.7502 10.0761 9.7502 10.072C9.7502 10.0679 9.7502 10.0638 9.7502 10.0597C9.7502 10.0557 9.7502 10.0516 9.7502 10.0476C9.7502 10.0436 9.7502 10.0396 9.7502 10.0356C9.7502 10.0316 9.7502 10.0276 9.7502 10.0236C9.7502 10.0197 9.7502 10.0157 9.7502 10.0118C9.7502 10.0078 9.7502 10.0039 9.7502 10C9.7502 9.99609 9.7502 9.9922 9.7502 9.98833C9.7502 9.98445 9.7502 9.98059 9.7502 9.97675C9.7502 9.9729 9.7502 9.96907 9.7502 9.96525C9.7502 9.96144 9.7502 9.95764 9.7502 9.95385C9.7502 9.95007 9.7502 9.9463 9.7502 9.94254C9.7502 9.93879 9.7502 9.93505 9.7502 9.93132C9.7502 9.9276 9.7502 9.92389 9.7502 9.92019C9.7502 9.9165 9.7502 9.91282 9.7502 9.90915C9.7502 9.90548 9.7502 9.90183 9.7502 9.8982C9.7502 9.89456 9.7502 9.89094 9.7502 9.88733C9.7502 9.88372 9.7502 9.88013 9.7502 9.87655C9.7502 9.87298 9.7502 9.86941 9.7502 9.86586C9.7502 9.86232 9.7502 9.85878 9.7502 9.85526C9.7502 9.85174 9.7502 9.84824 9.7502 9.84475C9.7502 9.84126 9.7502 9.83778 9.7502 9.83432C9.7502 9.83086 9.7502 9.82741 9.7502 9.82397C9.7502 9.82054 9.7502 9.81712 9.7502 9.81372C9.7502 9.81031 9.7502 9.80692 9.7502 9.80355C9.7502 9.80017 9.7502 9.79681 9.7502 9.79346C9.7502 9.79011 9.7502 9.78678 9.7502 9.78346C9.7502 9.78014 9.7502 9.77683 9.7502 9.77354C9.7502 9.77025 9.7502 9.76697 9.7502 9.76371C9.7502 9.76044 9.7502 9.7572 9.7502 9.75396C9.7502 9.75072 9.7502 9.7475 9.7502 9.74429C9.7502 9.74109 9.7502 9.73789 9.7502 9.73471C9.7502 9.73153 9.7502 9.72836 9.7502 9.72521C9.7502 9.72206 9.7502 9.71892 9.7502 9.71579C9.7502 9.71267 9.7502 9.70955 9.7502 9.70646C9.7502 9.70336 9.7502 9.70027 9.7502 9.6972C9.7502 9.69413 9.7502 9.69107 9.7502 9.68803C9.7502 9.68498 9.7502 9.68195 9.7502 9.67893C9.7502 9.67592 9.7502 9.67291 9.7502 9.66992C9.7502 9.66693 9.7502 9.66395 9.7502 9.66099C9.7502 9.65803 9.7502 9.65508 9.7502 9.65214C9.7502 9.6492 9.7502 9.64628 9.7502 9.64336C9.7502 9.64045 9.7502 9.63756 9.7502 9.63467C9.7502 9.63179 9.7502 9.62891 9.7502 9.62605C9.7502 9.6232 9.7502 9.62035 9.7502 9.61752C9.7502 9.61469 9.7502 9.61187 9.7502 9.60906C9.7502 9.60625 9.7502 9.60346 9.7502 9.60068C9.7502 9.5979 9.7502 9.59513 9.7502 9.59237C9.7502 9.58962 9.7502 9.58688 9.7502 9.58415C9.7502 9.58142 9.7502 9.5787 9.7502 9.576C9.7502 9.57329 9.7502 9.5706 9.7502 9.56792C9.7502 9.56524 9.7502 9.56258 9.7502 9.55992C9.7502 9.55727 9.7502 9.55463 9.7502 9.552C9.7502 9.54937 9.7502 9.54675 9.7502 9.54415C9.7502 9.54155 9.7502 9.53896 9.7502 9.53638C9.7502 9.5338 9.7502 9.53123 9.7502 9.52868C9.7502 9.52612 9.7502 9.52358 9.7502 9.52105C9.7502 9.51852 9.7502 9.51601 9.7502 9.5135C9.7502 9.511 9.7502 9.5085 9.7502 9.50602C9.7502 9.50354 9.7502 9.50107 9.7502 9.49862C9.7502 9.49616 9.7502 9.49372 9.7502 9.49129C9.7502 9.48885 9.7502 9.48643 9.7502 9.48403C9.7502 9.48162 9.7502 9.47922 9.7502 9.47684C9.7502 9.47445 9.7502 9.47208 9.7502 9.46972C9.7502 9.46736 9.7502 9.46501 9.7502 9.46268C9.7502 9.46034 9.7502 9.45801 9.7502 9.4557C9.7502 9.45339 9.7502 9.45109 9.7502 9.4488C9.7502 9.44651 9.7502 9.44423 9.7502 9.44196C9.7502 9.43969 9.7502 9.43744 9.7502 9.4352C9.7502 9.43295 9.7502 9.43072 9.7502 9.4285C9.7502 9.42628 9.7502 9.42407 9.7502 9.42188C9.7502 9.41968 9.7502 9.41749 9.7502 9.41532C9.7502 9.41314 9.7502 9.41098 9.7502 9.40883C9.7502 9.40668 9.7502 9.40454 9.7502 9.40241C9.7502 9.40028 9.7502 9.39816 9.7502 9.39605C9.7502 9.39395 9.7502 9.39185 9.7502 9.38977C9.7502 9.38768 9.7502 9.38561 9.7502 9.38355C9.7502 9.38148 9.7502 9.37943 9.7502 9.37739C9.7502 9.37535 9.7502 9.37333 9.7502 9.37131C9.7502 9.36929 9.7502 9.36728 9.7502 9.36529C9.7502 9.36329 9.7502 9.36131 9.7502 9.35933C9.7502 9.35736 9.7502 9.35539 9.7502 9.35344C9.7502 9.35149 9.7502 9.34955 9.7502 9.34761C9.7502 9.34568 9.7502 9.34376 9.7502 9.34185C9.7502 9.33994 9.7502 9.33804 9.7502 9.33616C9.7502 9.33427 9.7502 9.33239 9.7502 9.33052C9.7502 9.32865 9.7502 9.3268 9.7502 9.32495C9.7502 9.3231 9.7502 9.32127 9.7502 9.31944C9.7502 9.31762 9.7502 9.3158 9.7502 9.314C9.7502 9.31219 9.7502 9.3104 9.7502 9.30862C9.7502 9.30683 9.7502 9.30506 9.7502 9.3033C9.7502 9.30153 9.7502 9.29978 9.7502 9.29804C9.7502 9.29629 9.7502 9.29456 9.7502 9.29284C9.7502 9.29111 9.7502 9.2894 9.7502 9.2877C9.7502 9.286 9.7502 9.28431 9.7502 9.28262C9.7502 9.28094 9.7502 9.27927 9.7502 9.27761C9.7502 9.27594 9.7502 9.27429 9.7502 9.27265C9.7502 9.27101 9.7502 9.26937 9.7502 9.26775C9.7502 9.26613 9.7502 9.26452 9.7502 9.26291C9.7502 9.26131 9.7502 9.25972 9.7502 9.25813C9.7502 9.25655 9.7502 9.25498 9.7502 9.25341C9.7502 9.25185 9.7502 9.25029 9.7502 9.24875C9.7502 9.2472 9.7502 9.24567 9.7502 9.24414C9.7502 9.24261 9.7502 9.2411 9.7502 9.23959C9.7502 9.23808 9.7502 9.23659 9.7502 9.2351C9.7502 9.23361 9.7502 9.23213 9.7502 9.23066C9.7502 9.22919 9.7502 9.22773 9.7502 9.22628C9.7502 9.22483 9.7502 9.22339 9.7502 9.22196C9.7502 9.22053 9.7502 9.21911 9.7502 9.21769C9.7502 9.21628 9.7502 9.21487 9.7502 9.21348C9.7502 9.21208 9.7502 9.2107 9.7502 9.20932C9.7502 9.20794 9.7502 9.20658 9.7502 9.20522C9.7502 9.20386 9.7502 9.20251 9.7502 9.20117C9.7502 9.19982 9.7502 9.19849 9.7502 9.19717C9.7502 9.19585 9.7502 9.19453 9.7502 9.19323C9.7502 9.19192 9.7502 9.19062 9.7502 9.18934C9.7502 9.18805 9.7502 9.18677 9.7502 9.1855C9.7502 9.18423 9.7502 9.18297 9.7502 9.18171C9.7502 9.18046 9.7502 9.17921 9.7502 9.17798C9.7502 9.17674 9.7502 9.17552 9.7502 9.1743C9.7502 9.17308 9.7502 9.17187 9.7502 9.17067C9.7502 9.16946 9.7502 9.16827 9.7502 9.16708C9.7502 9.1659 9.7502 9.16472 9.7502 9.16356C9.7502 9.16239 9.7502 9.16123 9.7502 9.16008C9.7502 9.15892 9.7502 9.15778 9.7502 9.15665C9.7502 9.15551 9.7502 9.15438 9.7502 9.15326C9.7502 9.15215 9.7502 9.15104 9.7502 9.14993C9.7502 9.14883 9.7502 9.14774 9.7502 9.14665C9.7502 9.14556 9.7502 9.14449 9.7502 9.14342C9.7502 9.14234 9.7502 9.14128 9.7502 9.14023C9.7502 9.13917 9.7502 9.13813 9.7502 9.13709C9.7502 9.13605 9.7502 9.13502 9.7502 9.134C9.7502 9.13297 9.7502 9.13196 9.7502 9.13095C9.7502 9.12994 9.7502 9.12894 9.7502 9.12795C9.7502 9.12696 9.7502 9.12598 9.7502 9.125C9.7502 9.12402 9.7502 9.12305 9.7502 9.12209C9.7502 9.12113 9.7502 9.12018 9.7502 9.11923C9.7502 9.11829 9.7502 9.11735 9.7502 9.11642C9.7502 9.11548 9.7502 9.11456 9.7502 9.11364C9.7502 9.11273 9.7502 9.11182 9.7502 9.11092C9.7502 9.11001 9.7502 9.10912 9.7502 9.10823C9.7502 9.10735 9.7502 9.10647 9.7502 9.10559C9.7502 9.10472 9.7502 9.10386 9.7502 9.103C9.7502 9.10214 9.7502 9.10129 9.7502 9.10044C9.7502 9.0996 9.7502 9.09876 9.7502 9.09793C9.7502 9.0971 9.7502 9.09628 9.7502 9.09546C9.7502 9.09465 9.7502 9.09384 9.7502 9.09304C9.7502 9.09223 9.7502 9.09144 9.7502 9.09065C9.7502 9.08986 9.7502 9.08908 9.7502 9.08831C9.7502 9.08753 9.7502 9.08676 9.7502 9.086C9.7502 9.08524 9.7502 9.08449 9.7502 9.08374C9.7502 9.08299 9.7502 9.08225 9.7502 9.08152C9.7502 9.08078 9.7502 9.08006 9.7502 9.07933C9.7502 9.07861 9.7502 9.0779 9.7502 9.07719C9.7502 9.07648 9.7502 9.07578 9.7502 9.07508C9.7502 9.07439 9.7502 9.0737 9.7502 9.07302C9.7502 9.07234 9.7502 9.07166 9.7502 9.07099C9.7502 9.07032 9.7502 9.06966 9.7502 9.069C9.7502 9.06834 9.7502 9.06769 9.7502 9.06705C9.7502 9.0664 9.7502 9.06576 9.7502 9.06513C9.7502 9.0645 9.7502 9.06387 9.7502 9.06325C9.7502 9.06263 9.7502 9.06202 9.7502 9.06141C9.7502 9.0608 9.7502 9.0602 9.7502 9.0596C9.7502 9.05901 9.7502 9.05842 9.7502 9.05783C9.7502 9.05725 9.7502 9.05667 9.7502 9.0561C9.7502 9.05553 9.7502 9.05496 9.7502 9.0544C9.7502 9.05384 9.7502 9.05328 9.7502 9.05273C9.7502 9.05219 9.7502 9.05164 9.7502 9.0511C9.7502 9.05057 9.7502 9.05003 9.7502 9.04951C9.7502 9.04898 9.7502 9.04846 9.7502 9.04794C9.7502 9.04743 9.7502 9.04692 9.7502 9.04641C9.7502 9.04591 9.7502 9.04541 9.7502 9.04492C9.7502 9.04442 9.7502 9.04393 9.7502 9.04345C9.7502 9.04297 9.7502 9.04249 9.7502 9.04202C9.7502 9.04155 9.7502 9.04108 9.7502 9.04062C9.7502 9.04016 9.7502 9.0397 9.7502 9.03925C9.7502 9.0388 9.7502 9.03835 9.7502 9.03791C9.7502 9.03747 9.7502 9.03703 9.7502 9.0366C9.7502 9.03617 9.7502 9.03575 9.7502 9.03533C9.7502 9.03491 9.7502 9.03449 9.7502 9.03408C9.7502 9.03367 9.7502 9.03327 9.7502 9.03286C9.7502 9.03246 9.7502 9.03207 9.7502 9.03168C9.7502 9.03129 9.7502 9.0309 9.7502 9.03052C9.7502 9.03014 9.7502 9.02976 9.7502 9.02939C9.7502 9.02902 9.7502 9.02865 9.7502 9.02829C9.7502 9.02792 9.7502 9.02757 9.7502 9.02721C9.7502 9.02686 9.7502 9.02651 9.7502 9.02617C9.7502 9.02582 9.7502 9.02548 9.7502 9.02515C9.7502 9.02481 9.7502 9.02448 9.7502 9.02415C9.7502 9.02383 9.7502 9.02351 9.7502 9.02319C9.7502 9.02287 9.7502 9.02256 9.7502 9.02225C9.7502 9.02194 9.7502 9.02163 9.7502 9.02133C9.7502 9.02103 9.7502 9.02074 9.7502 9.02044C9.7502 9.02015 9.7502 9.01986 9.7502 9.01958C9.7502 9.0193 9.7502 9.01902 9.7502 9.01874C9.7502 9.01847 9.7502 9.01819 9.7502 9.01793C9.7502 9.01766 9.7502 9.0174 9.7502 9.01714C9.7502 9.01688 9.7502 9.01662 9.7502 9.01637C9.7502 9.01612 9.7502 9.01587 9.7502 9.01562C9.7502 9.01538 9.7502 9.01514 9.7502 9.0149C9.7502 9.01467 9.7502 9.01443 9.7502 9.01421C9.7502 9.01398 9.7502 9.01375 9.7502 9.01353C9.7502 9.01331 9.7502 9.01309 9.7502 9.01287C9.7502 9.01266 9.7502 9.01245 9.7502 9.01224C9.7502 9.01203 9.7502 9.01183 9.7502 9.01163C9.7502 9.01143 9.7502 9.01123 9.7502 9.01104C9.7502 9.01085 9.7502 9.01065 9.7502 9.01047C9.7502 9.01028 9.7502 9.0101 9.7502 9.00992C9.7502 9.00974 9.7502 9.00956 9.7502 9.00939C9.7502 9.00921 9.7502 9.00904 9.7502 9.00887C9.7502 9.00871 9.7502 9.00854 9.7502 9.00838C9.7502 9.00822 9.7502 9.00806 9.7502 9.00791C9.7502 9.00775 9.7502 9.0076 9.7502 9.00745C9.7502 9.0073 9.7502 9.00716 9.7502 9.00701C9.7502 9.00687 9.7502 9.00673 9.7502 9.00659C9.7502 9.00645 9.7502 9.00632 9.7502 9.00619C9.7502 9.00606 9.7502 9.00593 9.7502 9.0058C9.7502 9.00568 9.7502 9.00555 9.7502 9.00543C9.7502 9.00531 9.7502 9.00519 9.7502 9.00508C9.7502 9.00496 9.7502 9.00485 9.7502 9.00474C9.7502 9.00463 9.7502 9.00452 9.7502 9.00442C9.7502 9.00431 9.7502 9.00421 9.7502 9.00411C9.7502 9.00401 9.7502 9.00391 9.7502 9.00381C9.7502 9.00372 9.7502 9.00363 9.7502 9.00354C9.7502 9.00344 9.7502 9.00336 9.7502 9.00327C9.7502 9.00318 9.7502 9.0031 9.7502 9.00302C9.7502 9.00294 9.7502 9.00286 9.7502 9.00278C9.7502 9.0027 9.7502 9.00263 9.7502 9.00256C9.7502 9.00248 9.7502 9.00241 9.7502 9.00234C9.7502 9.00227 9.7502 9.00221 9.7502 9.00214C9.7502 9.00208 9.7502 9.00201 9.7502 9.00195C9.7502 9.00189 9.7502 9.00183 9.7502 9.00178C9.7502 9.00172 9.7502 9.00166 9.7502 9.00161C9.7502 9.00156 9.7502 9.0015 9.7502 9.00145C9.7502 9.0014 9.7502 9.00136 9.7502 9.00131C9.7502 9.00126 9.7502 9.00122 9.7502 9.00117C9.7502 9.00113 9.7502 9.00109 9.7502 9.00105C9.7502 9.00101 9.7502 9.00097 9.7502 9.00093C9.7502 9.00089 9.7502 9.00086 9.7502 9.00082C9.7502 9.00079 9.7502 9.00076 9.7502 9.00072C9.7502 9.00069 9.7502 9.00066 9.7502 9.00064C9.7502 9.00061 9.7502 9.00058 9.7502 9.00055C9.7502 9.00053 9.7502 9.0005 9.7502 9.00048C9.7502 9.00045 9.7502 9.00043 9.7502 9.00041C9.7502 9.00039 9.7502 9.00037 9.7502 9.00035C9.7502 9.00033 9.7502 9.00031 9.7502 9.00029C9.7502 9.00028 9.7502 9.00026 9.7502 9.00024C9.7502 9.00023 9.7502 9.00021 9.7502 9.0002C9.7502 9.00019 9.7502 9.00018 9.7502 9.00016C9.7502 9.00015 9.7502 9.00014 9.7502 9.00013C9.7502 9.00012 9.7502 9.00011 9.7502 9.0001C9.7502 9.00009 9.7502 9.00009 9.7502 9.00008C9.7502 9.00007 9.7502 9.00007 9.7502 9.00006C9.7502 9.00005 9.7502 9.00005 9.7502 9.00004C9.7502 9.00004 9.7502 9.00003 9.7502 9.00003C9.7502 9.00003 9.7502 9.00002 9.7502 9.00002C9.7502 9.00002 9.7502 9.00002 9.7502 9.00001C9.7502 9.00001 9.7502 9.00001 9.7502 9.00001C9.7502 9.00001 9.7502 9 9.7502 9C9.7502 9 9.7502 9 9.7502 9C9.7502 9 9.7502 9 9.7502 9C9.7502 9 9.7502 9 9.7502 9H9.0002ZM9.7502 9V1H8.2502V9H9.7502Z" fill="white"/>
</svg>
