<svg width="18" height="22" viewBox="0 0 18 22" fill="none" xmlns="http://www.w3.org/2000/svg">
<path d="M9.8639 5.45524C10.1229 5.13202 10.0709 4.66 9.74771 4.40096C9.4245 4.14191 8.95248 4.19393 8.69343 4.51715L9.8639 5.45524ZM1.41467 14.7982L1.9827 15.2879C1.98855 15.2811 1.99429 15.2742 1.9999 15.2672L1.41467 14.7982ZM1.18667 15.3555L0.438124 15.3067L0.43747 15.3208L1.18667 15.3555ZM1 19.3862L0.250803 19.3515C0.249078 19.3887 0.250133 19.4261 0.253958 19.4631L1 19.3862ZM2.04933 20.3022L2.07385 21.0518C2.12387 21.0502 2.1736 21.0435 2.22229 21.032L2.04933 20.3022ZM6.04933 19.3542L6.22231 20.0841L6.23395 20.0811L6.04933 19.3542ZM6.56267 19.0289L7.14127 19.5062L7.14777 19.4981L6.56267 19.0289ZM15.2011 9.45539C15.4602 9.13225 15.4083 8.66022 15.0852 8.40108C14.7621 8.14195 14.29 8.19384 14.0309 8.51699L15.2011 9.45539ZM8.69759 4.51695C8.43844 4.84008 8.4903 5.31211 8.81343 5.57126C9.13655 5.83042 9.60859 5.77856 9.86774 5.45543L8.69759 4.51695ZM11.4 2.34619L11.9851 2.81543C11.9949 2.80314 12.0044 2.79054 12.0135 2.77766L11.4 2.34619ZM13.572 1.91952L14.0518 1.34308C14.0279 1.3232 14.0028 1.30482 13.9767 1.28806L13.572 1.91952ZM16.5547 4.40219L17.0855 3.87235C17.0692 3.85604 17.0522 3.84049 17.0345 3.82575L16.5547 4.40219ZM17.0039 5.49669L17.7539 5.50081V5.50081L17.0039 5.49669ZM16.5427 6.58619L16.0177 6.05055C15.9964 6.07138 15.9764 6.09347 15.9578 6.11668L16.5427 6.58619ZM14.0311 8.51668C13.7718 8.83969 13.8235 9.31174 14.1465 9.57105C14.4695 9.83035 14.9416 9.77871 15.2009 9.4557L14.0311 8.51668ZM10.0244 4.87504C9.963 4.4654 9.58116 4.18309 9.17152 4.24447C8.76188 4.30586 8.47956 4.6877 8.54095 5.09734L10.0244 4.87504ZM14.717 9.72936C15.1274 9.67359 15.4149 9.29565 15.3592 8.88521C15.3034 8.47477 14.9255 8.18725 14.515 8.24302L14.717 9.72936ZM8.69343 4.51715L0.829434 14.3291L1.9999 15.2672L9.8639 5.45524L8.69343 4.51715ZM0.846635 14.3085C0.605637 14.588 0.462275 14.9384 0.438257 15.3067L1.93508 15.4043C1.93788 15.3614 1.95459 15.3205 1.9827 15.2879L0.846635 14.3085ZM0.43747 15.3208L0.250803 19.3515L1.7492 19.4209L1.93586 15.3902L0.43747 15.3208ZM0.253958 19.4631C0.34939 20.3884 1.1442 21.0822 2.07385 21.0518L2.02481 19.5526C1.88241 19.5572 1.76066 19.451 1.74604 19.3092L0.253958 19.4631ZM2.22229 21.032L6.22229 20.084L5.87637 18.6244L1.87637 19.5724L2.22229 21.032ZM6.23395 20.0811C6.58979 19.9907 6.90759 19.7893 7.14122 19.5061L5.98412 18.5516C5.95337 18.5889 5.91155 18.6154 5.86471 18.6273L6.23395 20.0811ZM7.14777 19.4981L15.2011 9.45539L14.0309 8.51699L5.97756 18.5597L7.14777 19.4981ZM9.86774 5.45543L11.9851 2.81543L10.8149 1.87695L8.69759 4.51695L9.86774 5.45543ZM12.0135 2.77766C12.2753 2.40531 12.7841 2.30538 13.1673 2.55099L13.9767 1.28806C12.917 0.609019 11.5106 0.885308 10.7865 1.91472L12.0135 2.77766ZM13.0922 2.49596L16.0749 4.97863L17.0345 3.82575L14.0518 1.34308L13.0922 2.49596ZM16.0238 4.93203C16.1722 5.0807 16.2551 5.28251 16.2539 5.49257L17.7539 5.50081C17.7573 4.89056 17.5166 4.30427 17.0855 3.87235L16.0238 4.93203ZM16.2539 5.49257C16.2528 5.70263 16.1677 5.90352 16.0177 6.05055L17.0676 7.12183C17.5035 6.69467 17.7505 6.11106 17.7539 5.50081L16.2539 5.49257ZM15.9578 6.11668L14.0311 8.51668L15.2009 9.4557L17.1275 7.0557L15.9578 6.11668ZM8.54095 5.09734C8.98649 8.0705 11.738 10.1341 14.717 9.72936L14.515 8.24302C12.349 8.53733 10.3483 7.03685 10.0244 4.87504L8.54095 5.09734Z" fill="#707070" fill-opacity="0.4"/>
</svg>
