<svg width="17" height="16" viewBox="0 0 17 16" fill="none" xmlns="http://www.w3.org/2000/svg">
<path fill-rule="evenodd" clip-rule="evenodd" d="M1 6.76476V11.7058C1.01101 13.5357 2.5031 15.0103 4.333 14.9998H12.666C13.5449 15.0051 14.39 14.661 15.0152 14.0433C15.6405 13.4255 15.9947 12.5847 16 11.7058V6.76476C15.989 4.93487 14.4969 3.46023 12.667 3.47076H4.333C2.5031 3.46023 1.01101 4.93487 1 6.76476Z" stroke="#DBDBDB" stroke-width="1.5" stroke-linecap="round" stroke-linejoin="round"/>
<path fill-rule="evenodd" clip-rule="evenodd" d="M8.5006 11.706C7.13979 11.69 6.04805 10.5767 6.05867 9.21588C6.06929 7.85503 7.17826 6.75892 8.53915 6.76418C9.90004 6.76944 11.0005 7.87409 11.0006 9.23499C10.9969 9.89423 10.7314 10.525 10.2625 10.9884C9.79364 11.4519 9.15983 11.71 8.5006 11.706Z" stroke="#DBDBDB" stroke-width="1.5" stroke-linecap="round" stroke-linejoin="round"/>
<path d="M6 3.47103V2.64703C6.00264 2.20756 6.17976 1.78715 6.49239 1.47827C6.80501 1.1694 7.22753 0.99737 7.667 1.00003H9.333C9.77247 0.99737 10.195 1.1694 10.5076 1.47827C10.8202 1.78715 10.9974 2.20756 11 2.64703V3.47103" stroke="#DBDBDB" stroke-width="1.5" stroke-linecap="round" stroke-linejoin="round"/>
</svg>
