<svg width="14" height="19" viewBox="0 0 14 19" fill="none" xmlns="http://www.w3.org/2000/svg">
<path fill-rule="evenodd" clip-rule="evenodd" d="M13.007 16.853V3.034C13.0116 2.49905 12.8034 1.98422 12.4283 1.60277C12.0532 1.22131 11.542 1.00449 11.007 1H3.00705C2.4721 1.00449 1.96085 1.22131 1.58577 1.60277C1.2107 1.98422 1.00252 2.49905 1.00705 3.034V16.853C0.959507 17.252 1.15541 17.6407 1.50441 17.8399C1.85342 18.039 2.28773 18.0099 2.60705 17.766L6.40705 14.485C6.74961 14.1758 7.27049 14.1758 7.61305 14.485L11.4071 17.767C11.7265 18.0111 12.1611 18.0402 12.5102 17.8407C12.8593 17.6413 13.0551 17.2522 13.007 16.853Z" stroke="#707070" stroke-width="1.5" stroke-linecap="round" stroke-linejoin="round"/>
</svg>
