<svg width="17" height="16" viewBox="0 0 17 16" fill="none" xmlns="http://www.w3.org/2000/svg">
<path fill-rule="evenodd" clip-rule="evenodd" d="M8 3C8 4.10457 7.10457 5 6 5C4.89543 5 4 4.10457 4 3C4 1.89543 4.89543 1 6 1C7.10457 1 8 1.89543 8 3Z" stroke="#707070" stroke-width="1.5" stroke-linecap="round" stroke-linejoin="round"/>
<path fill-rule="evenodd" clip-rule="evenodd" d="M11 11.5C11 13.433 8.761 15 6 15C3.239 15 1 13.433 1 11.5C1 9.567 3.239 8 6 8C8.761 8 11 9.567 11 11.5Z" stroke="#707070" stroke-width="1.5" stroke-linecap="round" stroke-linejoin="round"/>
<path d="M14.75 1C14.75 0.585786 14.4142 0.25 14 0.25C13.5858 0.25 13.25 0.585786 13.25 1H14.75ZM13.25 3C13.25 3.41421 13.5858 3.75 14 3.75C14.4142 3.75 14.75 3.41421 14.75 3H13.25ZM14.75 3C14.75 2.58579 14.4142 2.25 14 2.25C13.5858 2.25 13.25 2.58579 13.25 3H14.75ZM13.25 5C13.25 5.41421 13.5858 5.75 14 5.75C14.4142 5.75 14.75 5.41421 14.75 5H13.25ZM14 3.75C14.4142 3.75 14.75 3.41421 14.75 3C14.75 2.58579 14.4142 2.25 14 2.25V3.75ZM12 2.25C11.5858 2.25 11.25 2.58579 11.25 3C11.25 3.41421 11.5858 3.75 12 3.75V2.25ZM14 2.25C13.5858 2.25 13.25 2.58579 13.25 3C13.25 3.41421 13.5858 3.75 14 3.75V2.25ZM16 3.75C16.4142 3.75 16.75 3.41421 16.75 3C16.75 2.58579 16.4142 2.25 16 2.25V3.75ZM13.25 1V3H14.75V1H13.25ZM13.25 3V5H14.75V3H13.25ZM14 2.25H12V3.75H14V2.25ZM14 3.75H16V2.25H14V3.75Z" fill="#707070"/>
</svg>
