<svg width="17" height="10" viewBox="0 0 17 10" fill="none" xmlns="http://www.w3.org/2000/svg">
<path d="M16.5664 9.66979C15.9742 10.0409 13.5649 10.1513 12.9818 9.72745C12.6619 9.49515 12.3694 9.20424 12.0915 8.92763C11.8974 8.734 11.6767 8.64 11.5098 8.42996C11.3739 8.2579 11.2804 8.05513 11.1367 7.88588C10.8946 7.60107 10.5215 7.35892 10.2262 7.70679C9.78207 8.22977 10.2963 9.25792 9.70379 9.64892C9.50505 9.7802 9.30467 9.81817 9.05648 9.79942L8.50667 9.8245C8.18348 9.83083 7.67187 9.83364 7.30462 9.7673C6.89448 9.69346 6.5563 9.46936 6.18601 9.3048C5.48245 8.99279 4.81194 8.56756 4.30196 7.97848C2.91406 6.37437 1.04971 4.16805 0.325525 2.15113C0.176236 1.73669 -0.216791 0.916467 0.156081 0.560858C0.663242 0.192356 3.15335 0.0880414 3.54145 0.658375C3.69941 0.889743 3.79878 1.22941 3.91034 1.49172C4.04908 1.81897 4.12455 2.12769 4.34157 2.41743C4.53375 2.67459 4.67577 2.93291 4.82459 3.21491C4.99169 3.53114 5.14918 3.83447 5.35238 4.12585C5.49018 4.32394 5.85462 4.71752 6.08476 4.74706C6.64676 4.81902 6.61161 3.45285 6.56989 3.11904C6.53005 2.79765 6.5195 2.45681 6.53005 2.13074C6.53919 1.85272 6.56427 1.46101 6.39951 1.23387C6.13116 0.863488 5.53354 1.1408 5.48667 0.643138C5.58557 0.501785 5.56447 0.376373 6.22397 0.159304C6.74309 -0.0115852 7.07846 -0.00619381 7.42086 0.0212328C8.11927 0.0772582 8.85962 -0.111915 9.53341 0.11453C10.177 0.331365 10.0776 1.24629 10.056 1.79482C10.0272 2.54378 10.0579 3.27446 10.056 4.0342C10.0551 4.38043 10.0415 4.71682 10.4629 4.68892C10.8585 4.66243 10.8986 4.3298 11.0872 4.05506C11.35 3.67226 11.5907 3.2843 11.8581 2.90267C12.2183 2.38719 12.3268 1.80795 12.6659 1.27981C12.7873 1.09064 12.8916 0.677831 13.0784 0.528508C13.2199 0.415754 13.4885 0.464044 13.6596 0.464044H14.0665C14.3782 0.467795 14.696 0.472249 15.0159 0.483501C15.4769 0.499441 15.9932 0.399346 16.4504 0.46381C18.4228 0.742296 13.9713 4.96248 14.2029 5.71543C14.3632 6.23536 15.3784 6.81788 15.745 7.24405C16.2336 7.81087 17.7314 8.94052 16.5664 9.66979Z" fill="#EAEAEA"/>
</svg>
