<svg width="8" height="26" viewBox="0 0 8 26" fill="none" xmlns="http://www.w3.org/2000/svg">
<path fill-rule="evenodd" clip-rule="evenodd" d="M4 19C5.65685 19 7 20.3431 7 22C7 23.6569 5.65685 25 4 25C2.34315 25 1 23.6569 1 22C1 21.2044 1.31607 20.4413 1.87868 19.8787C2.44129 19.3161 3.20435 19 4 19Z" stroke="#707070" stroke-width="1.5" stroke-linecap="round" stroke-linejoin="round"/>
<path fill-rule="evenodd" clip-rule="evenodd" d="M4 10C5.65685 10 7 11.3431 7 13C7 14.6569 5.65685 16 4 16C2.34315 16 1 14.6569 1 13C1 11.3431 2.34315 10 4 10Z" stroke="#707070" stroke-width="1.5" stroke-linecap="round" stroke-linejoin="round"/>
<path fill-rule="evenodd" clip-rule="evenodd" d="M4 1C5.65685 1 7 2.34315 7 4C7 5.65685 5.65685 7 4 7C2.34315 7 1 5.65685 1 4C1 2.34315 2.34315 1 4 1Z" stroke="#707070" stroke-width="1.5" stroke-linecap="round" stroke-linejoin="round"/>
</svg>
