<svg width="80" height="80" viewBox="0 0 80 80" fill="none" xmlns="http://www.w3.org/2000/svg">
<path fill-rule="evenodd" clip-rule="evenodd" d="M34.544 24.4629L51.9295 36.2769C53.0558 36.9345 53.7482 38.1407 53.7482 39.4449C53.7482 40.7491 53.0558 41.9552 51.9295 42.6129L34.544 55.5379C31.244 57.7764 26.25 55.8679 26.25 52.3699V27.6199C26.25 24.1384 31.2495 22.2244 34.544 24.4629Z" stroke="white" stroke-width="2" stroke-linecap="round" stroke-linejoin="round"/>
<path fill-rule="evenodd" clip-rule="evenodd" d="M1.5 34.5V45.5C1.5 63.7254 16.2746 78.5 34.5 78.5H45.5C63.7254 78.5 78.5 63.7254 78.5 45.5V34.5C78.5 16.2746 63.7254 1.5 45.5 1.5H34.5C16.2746 1.5 1.5 16.2746 1.5 34.5Z" stroke="white" stroke-width="2" stroke-linecap="round" stroke-linejoin="round"/>
</svg>
