<svg width="26" height="26" viewBox="0 0 26 26" fill="none" xmlns="http://www.w3.org/2000/svg">
<path d="M7.75 16.4998C8.0673 17.3264 8.58722 18.0599 9.262 18.6331C11.408 20.4344 14.531 20.4571 16.703 18.6873C17.3871 18.1243 17.919 17.3987 18.25 16.5768" stroke="#707070" stroke-width="1.5" stroke-linecap="round" stroke-linejoin="round"/>
<path fill-rule="evenodd" clip-rule="evenodd" d="M25.25 13C25.25 19.7655 19.7655 25.25 13 25.25C6.23451 25.25 0.75 19.7655 0.75 13C0.75 6.23451 6.23451 0.75 13 0.75C16.2489 0.75 19.3647 2.04062 21.6621 4.33794C23.9594 6.63526 25.25 9.7511 25.25 13Z" stroke="#707070" stroke-width="1.5" stroke-linecap="round" stroke-linejoin="round"/>
<path d="M7.75 11.25V9.5" stroke="#707070" stroke-width="1.5" stroke-linecap="round"/>
<path d="M18.25 11.25V9.5" stroke="#707070" stroke-width="1.5" stroke-linecap="round"/>
</svg>
