<svg width="23" height="19" viewBox="0 0 23 19" fill="none" xmlns="http://www.w3.org/2000/svg">
<path d="M17.2806 3.73779C17.5382 3.41337 17.484 2.94161 17.1595 2.68407C16.8351 2.42653 16.3634 2.48075 16.1058 2.80517L17.2806 3.73779ZM11.2165 10.1705L11.7869 10.6576C11.7927 10.6508 11.7984 10.6439 11.8039 10.6369L11.2165 10.1705ZM11.0577 10.5624L10.3092 10.5141L10.3085 10.5281L11.0577 10.5624ZM10.9277 13.3965L10.1785 13.3621C10.1768 13.399 10.1779 13.436 10.1816 13.4727L10.9277 13.3965ZM11.6585 14.0405L11.6833 14.7901C11.7338 14.7885 11.7839 14.7817 11.8331 14.77L11.6585 14.0405ZM14.4442 13.374L14.6188 14.1035L14.6305 14.1005L14.4442 13.374ZM14.8017 13.1452L15.3826 13.6198L15.389 13.6117L14.8017 13.1452ZM20.9976 6.55045C21.2552 6.2261 21.2011 5.75432 20.8768 5.4967C20.5524 5.23907 20.0806 5.29317 19.823 5.61752L20.9976 6.55045ZM16.1088 2.80515C15.8511 3.12948 15.9052 3.60127 16.2295 3.85891C16.5538 4.11656 17.0256 4.06249 17.2833 3.73816L16.1088 2.80515ZM18.1706 1.4154L18.7578 1.88191C18.7676 1.86961 18.777 1.857 18.786 1.84411L18.1706 1.4154ZM19.6832 1.1154L20.1658 0.54123C20.1419 0.52118 20.1168 0.502636 20.0906 0.485707L19.6832 1.1154ZM21.7604 2.86103L22.2938 2.33373C22.2776 2.31733 22.2606 2.30169 22.243 2.28685L21.7604 2.86103ZM22.0733 3.6306L22.8233 3.63468V3.63468L22.0733 3.6306ZM21.7521 4.39665L21.2246 3.86353C21.2034 3.88445 21.1836 3.9066 21.165 3.92988L21.7521 4.39665ZM19.8233 5.61738C19.5655 5.94159 19.6193 6.4134 19.9435 6.6712C20.2677 6.92899 20.7396 6.87515 20.9973 6.55093L19.8233 5.61738ZM17.4379 3.16137C17.3771 2.75165 16.9956 2.4688 16.5859 2.52961C16.1762 2.59043 15.8933 2.97187 15.9541 3.3816L17.4379 3.16137ZM20.5122 6.82703C20.9226 6.77073 21.2096 6.39242 21.1533 5.98205C21.0971 5.57168 20.7187 5.28465 20.3084 5.34094L20.5122 6.82703ZM16.1058 2.80517L10.6291 9.70424L11.8039 10.6369L17.2806 3.73779L16.1058 2.80517ZM10.6462 9.6835C10.4468 9.91693 10.329 10.2086 10.3093 10.5141L11.8062 10.6108C11.8051 10.6271 11.7988 10.6436 11.7869 10.6576L10.6462 9.6835ZM10.3085 10.5281L10.1785 13.3621L11.6769 13.4309L11.8069 10.5968L10.3085 10.5281ZM10.1816 13.4727C10.2594 14.234 10.91 14.8157 11.6833 14.7901L11.6338 13.291C11.6605 13.2901 11.6727 13.3092 11.6739 13.3203L10.1816 13.4727ZM11.8331 14.77L14.6188 14.1034L14.2697 12.6446L11.484 13.3111L11.8331 14.77ZM14.6305 14.1005C14.9266 14.0246 15.1898 13.8557 15.3825 13.6198L14.2209 12.6707C14.2296 12.6601 14.2423 12.6515 14.2579 12.6475L14.6305 14.1005ZM15.389 13.6117L20.9976 6.55045L19.823 5.61752L14.2144 12.6788L15.389 13.6117ZM17.2833 3.73816L18.7578 1.88191L17.5833 0.948897L16.1088 2.80515L17.2833 3.73816ZM18.786 1.84411C18.8996 1.68099 19.1148 1.64093 19.2758 1.7451L20.0906 0.485707C19.2468 -0.0602666 18.1282 0.164208 17.5552 0.9867L18.786 1.84411ZM19.2007 1.68958L21.2779 3.4352L22.243 2.28685L20.1658 0.54123L19.2007 1.68958ZM21.2271 3.38832C21.2884 3.45028 21.3238 3.5359 21.3233 3.62652L22.8233 3.63468C22.826 3.14852 22.6361 2.68001 22.2938 2.33373L21.2271 3.38832ZM21.3233 3.62652C21.3228 3.71713 21.2864 3.80231 21.2246 3.86353L22.2796 4.92978C22.6258 4.58727 22.8207 4.12085 22.8233 3.63468L21.3233 3.62652ZM21.165 3.92988L19.8233 5.61738L20.9973 6.55093L22.3391 4.86343L21.165 3.92988ZM15.9541 3.3816C16.2815 5.58706 18.3072 7.12952 20.5122 6.82703L20.3084 5.34094C18.9303 5.52999 17.6464 4.56643 17.4379 3.16137L15.9541 3.3816Z" fill="#51A2F2" fill-opacity="0.8"/>
<path d="M1.547 14.065C1.313 14.065 1.11367 13.987 0.949 13.831C0.793 13.675 0.715 13.4757 0.715 13.233C0.715 12.9903 0.793 12.791 0.949 12.635C1.11367 12.4703 1.313 12.388 1.547 12.388C1.781 12.388 1.976 12.4703 2.132 12.635C2.288 12.791 2.366 12.9903 2.366 13.233C2.366 13.4757 2.288 13.675 2.132 13.831C1.976 13.987 1.781 14.065 1.547 14.065ZM4.64466 14.065C4.41066 14.065 4.21132 13.987 4.04666 13.831C3.89066 13.675 3.81266 13.4757 3.81266 13.233C3.81266 12.9903 3.89066 12.791 4.04666 12.635C4.21132 12.4703 4.41066 12.388 4.64466 12.388C4.87866 12.388 5.07366 12.4703 5.22966 12.635C5.38566 12.791 5.46366 12.9903 5.46366 13.233C5.46366 13.4757 5.38566 13.675 5.22966 13.831C5.07366 13.987 4.87866 14.065 4.64466 14.065ZM7.74231 14.065C7.50831 14.065 7.30898 13.987 7.14431 13.831C6.98831 13.675 6.91031 13.4757 6.91031 13.233C6.91031 12.9903 6.98831 12.791 7.14431 12.635C7.30898 12.4703 7.50831 12.388 7.74231 12.388C7.97631 12.388 8.17131 12.4703 8.32731 12.635C8.48331 12.791 8.56131 12.9903 8.56131 13.233C8.56131 13.4757 8.48331 13.675 8.32731 13.831C8.17131 13.987 7.97631 14.065 7.74231 14.065Z" fill="#51A2F2"/>
</svg>
