<svg width="135" height="35" viewBox="0 0 135 35" fill="none" xmlns="http://www.w3.org/2000/svg">
<mask id="mask0_942_8941" style="mask-type:alpha" maskUnits="userSpaceOnUse" x="0" y="0" width="135" height="35">
<path d="M13.2143 8.57636C15.6241 8.57636 17.5775 6.65647 17.5775 4.28818C17.5775 1.91988 15.6241 0 13.2143 0C10.8046 0 8.85107 1.91988 8.85107 4.28818C8.85107 6.65647 10.8046 8.57636 13.2143 8.57636Z" fill="white"/>
<path d="M30.7309 8.57636C33.1407 8.57636 35.0941 6.65647 35.0941 4.28818C35.0941 1.91988 33.1407 0 30.7309 0C28.3212 0 26.3677 1.91988 26.3677 4.28818C26.3677 6.65647 28.3212 8.57636 30.7309 8.57636Z" fill="white"/>
<path d="M41.783 34.3478C40.8864 34.8571 39.8355 35.0386 38.8159 34.8602C37.7963 34.6818 36.8737 34.155 36.211 33.3729L30.8099 24.175L30.4886 23.6286C30.379 23.4434 30.2517 23.2689 30.1086 23.1073C29.6186 22.5695 28.9554 22.2137 28.2301 22.0996C27.5048 21.9855 26.7616 22.1201 26.1253 22.4808L26.059 22.5184C25.3734 22.9079 24.8594 23.5339 24.6167 24.2748C24.3741 25.0157 24.42 25.8188 24.7457 26.5283C24.789 26.626 24.8376 26.7214 24.8911 26.814L26.0539 28.794C26.528 29.7814 26.5983 30.91 26.2503 31.9468C26.0659 32.5198 25.7633 33.0493 25.3613 33.5022C24.9593 33.955 24.4667 34.3216 23.9141 34.5789C23.3615 34.8362 22.7608 34.9787 22.1496 34.9976C21.5385 35.0165 20.9299 34.9113 20.3619 34.6886C19.794 34.4659 19.2788 34.1305 18.8487 33.7034C18.4186 33.2762 18.0827 32.7665 17.8621 32.206C17.6415 31.6455 17.5408 31.0463 17.5664 30.4459C17.592 29.8455 17.7433 29.2567 18.0109 28.7163L18.0262 28.6862L19.1431 26.7865C19.1788 26.7213 19.2171 26.6587 19.2477 26.596C19.6002 25.8824 19.6647 25.0641 19.4282 24.3057C19.1916 23.5473 18.6715 22.9051 17.9726 22.5083H17.9548C17.5917 22.3021 17.1908 22.1683 16.775 22.1146C16.3593 22.0608 15.9368 22.0881 15.5318 22.195C15.1268 22.3018 14.7471 22.4861 14.4147 22.7372C14.0822 22.9884 13.8033 23.3015 13.5941 23.6587L13.2447 24.2527L8.20063 32.7789C7.61797 33.771 6.65818 34.4949 5.53241 34.7915C4.40664 35.0881 3.2071 34.933 2.19768 34.3603C1.18825 33.7877 0.451633 32.8444 0.149865 31.738C-0.151903 30.6316 0.00589863 29.4527 0.588557 28.4607L9.41193 13.4407C9.94874 12.5158 10.8185 11.822 11.8498 11.4959C11.9416 11.4658 12.0334 11.4383 12.1278 11.4157C12.3024 11.3714 12.4795 11.337 12.6582 11.313C12.8525 11.2858 13.0485 11.2724 13.2447 11.2729C14.0167 11.2716 14.7753 11.4707 15.4439 11.8501C16.1124 12.2294 16.6672 12.7755 17.052 13.4332L22.012 21.8768L26.7909 13.7315L26.9745 13.4182C27.3575 12.7633 27.909 12.2189 28.5737 11.8397C29.2384 11.4605 29.9929 11.2598 30.7614 11.2578H30.7818C30.9643 11.2582 31.1466 11.2699 31.3276 11.2929C31.4092 11.3029 31.4942 11.3155 31.5826 11.3305L31.8095 11.3781C32.3879 11.5156 32.9316 11.7674 33.4078 12.1182C33.8839 12.4689 34.2824 12.9112 34.5789 13.4182L34.7625 13.7315L43.4023 28.4381C43.6921 28.9303 43.8801 29.4739 43.9555 30.0377C44.0309 30.6016 43.9923 31.1745 43.8419 31.7236C43.6914 32.2727 43.4321 32.7872 43.0788 33.2375C42.7254 33.6879 42.2851 34.0652 41.783 34.3478Z" fill="white"/>
<path d="M53.9063 30.5857C54.0719 30.6379 54.243 30.6715 54.4163 30.686C54.5821 30.701 54.7504 30.7085 54.9264 30.7085C55.3346 30.7104 55.7409 30.6538 56.1326 30.5406C56.5175 30.4288 56.8848 30.2652 57.224 30.0544C57.5644 29.8424 57.8711 29.5823 58.1344 29.2825L58.8994 28.3978L60.9115 30.3827C61.0553 30.5236 61.1694 30.6909 61.2472 30.8752C61.3251 31.0595 61.3651 31.2571 61.3651 31.4566C61.3651 31.6562 61.3251 31.8538 61.2472 32.038C61.1694 32.2223 61.0553 32.3897 60.9115 32.5306C60.7916 32.6458 60.6565 32.7586 60.5391 32.8689C60.0266 33.3073 59.4634 33.685 58.8612 33.9942C58.2589 34.3024 57.621 34.538 56.9613 34.696C56.2933 34.8545 55.6085 34.9344 54.9213 34.934C53.7954 34.9422 52.6793 34.7296 51.638 34.3087C50.5968 33.8878 49.6514 33.2671 48.8571 32.4829C48.0643 31.6919 47.4378 30.7551 47.0134 29.7261C46.5525 28.6124 46.3227 27.4195 46.3376 26.2173C46.3246 24.9943 46.5568 23.7808 47.021 22.6459C47.4298 21.6246 48.046 20.6958 48.8322 19.9163C49.6183 19.1368 50.5578 18.5229 51.5934 18.1122C52.6519 17.6913 53.7846 17.4801 54.9264 17.4906C55.6194 17.4907 56.3097 17.5748 56.9817 17.7412C58.3107 18.0656 59.5417 18.6972 60.5723 19.5833C60.9844 19.9355 61.2397 20.4324 61.2836 20.9674C61.3274 21.5024 61.1563 22.033 60.8069 22.4454L53.9063 30.5857ZM56.102 21.9041C55.9119 21.8352 55.7141 21.7889 55.5129 21.7663C55.313 21.7458 55.1121 21.7358 54.9111 21.7362C54.3435 21.7326 53.781 21.8399 53.256 22.052C52.7461 22.2562 52.2856 22.5636 51.9045 22.9542C51.5129 23.3618 51.207 23.8413 51.0043 24.3652C50.776 24.9583 50.6636 25.5883 50.6728 26.2224C50.6728 26.3752 50.6728 26.5507 50.6983 26.7462C50.7238 26.9416 50.7391 27.1396 50.7748 27.3401C50.8105 27.5406 50.8564 27.7336 50.9099 27.9191C50.9557 28.0941 51.0243 28.2626 51.1139 28.4203L56.102 21.9041Z" fill="white"/>
<path d="M70.6529 30.5866C70.8187 30.6383 70.9897 30.6719 71.163 30.6869C71.3313 30.7019 71.497 30.7094 71.673 30.7094C72.082 30.7111 72.4892 30.6546 72.8817 30.5415C73.2658 30.4297 73.6323 30.266 73.9706 30.0553C74.312 29.8447 74.619 29.5844 74.881 29.2834L75.6588 28.3987L77.6759 30.3911C77.819 30.5309 77.9325 30.6971 78.0099 30.8801C78.0874 31.0631 78.1272 31.2593 78.1272 31.4575C78.1272 31.6558 78.0874 31.852 78.0099 32.035C77.9325 32.218 77.819 32.3842 77.6759 32.524C77.5535 32.6417 77.4209 32.757 77.296 32.8698C76.7825 33.3082 76.2185 33.6859 75.6154 33.9951C75.0141 34.3033 74.377 34.5389 73.7182 34.6969C73.0501 34.8554 72.3653 34.9353 71.6781 34.935C70.5523 34.9425 69.4363 34.7296 68.3952 34.3088C67.354 33.888 66.4085 33.2676 65.6139 32.4839C64.8228 31.6915 64.1965 30.755 63.7702 29.727C63.3116 28.6127 63.0828 27.4201 63.0969 26.2183C63.0813 24.9943 63.31 23.7793 63.7702 22.6418C64.1788 21.62 64.7953 20.6909 65.582 19.9114C66.3686 19.1318 67.3088 18.5182 68.3451 18.1081C69.3976 17.6915 70.5231 17.482 71.6577 17.4915C72.3507 17.4913 73.0411 17.5754 73.7131 17.7421C74.3751 17.904 75.0153 18.1421 75.6205 18.4514C76.2254 18.7633 76.7911 19.1434 77.3062 19.5842C77.7171 19.9371 77.9716 20.4338 78.0154 20.9684C78.0592 21.503 77.8889 22.0333 77.5408 22.4464L70.6529 30.5866ZM72.8511 21.905C72.6611 21.8361 72.4633 21.7898 72.262 21.7672C72.0613 21.7468 71.8595 21.7367 71.6577 21.7371C71.0901 21.7335 70.5276 21.8409 70.0026 22.0529C69.4938 22.2577 69.0343 22.5651 68.6536 22.9551C68.2604 23.3619 67.9535 23.8416 67.7509 24.3661C67.5236 24.9594 67.412 25.5894 67.4219 26.2233C67.4219 26.3761 67.4219 26.5516 67.4449 26.7471C67.4678 26.9426 67.4882 27.1405 67.5239 27.341C67.5596 27.5415 67.6055 27.7345 67.6565 27.92C67.7034 28.0946 67.7719 28.263 67.8606 28.4212L72.8511 21.905Z" fill="white"/>
<path d="M89.2607 34.6264C88.2581 34.6329 87.2649 34.4358 86.3434 34.0475C84.5375 33.2953 83.0999 31.8825 82.3346 30.1077C81.9395 29.202 81.739 28.2259 81.7456 27.2405V22.3383H79.6621V18.1429H81.7481V15.7369C81.7481 15.1861 81.8585 14.6406 82.0731 14.1317C82.2877 13.6229 82.6021 13.1605 82.9986 12.7711C83.395 12.3818 83.8656 12.073 84.3835 11.8624C84.9015 11.6518 85.4565 11.5436 86.017 11.5439V18.1429H92.5121V22.3383H86.0144V27.2405C86.0122 27.6669 86.099 28.0891 86.2694 28.4811C86.4325 28.8556 86.6671 29.196 86.9605 29.4836C87.2579 29.7753 87.6093 30.0084 87.9959 30.1703C88.3985 30.3403 88.8328 30.4256 89.2709 30.421H92.5198V33.1001C92.5198 33.4989 92.3585 33.8814 92.0716 34.1634C91.7847 34.4454 91.3955 34.6039 90.9897 34.6039L89.2607 34.6264Z" fill="white"/>
<path d="M99.9612 13.6236C99.9638 14.0002 99.8865 14.3732 99.7342 14.7188C99.5873 15.0508 99.377 15.352 99.1145 15.606C98.8492 15.8608 98.5379 16.0648 98.1965 16.2075C97.8414 16.3547 97.4599 16.4306 97.0744 16.4306C96.689 16.4306 96.3075 16.3547 95.9524 16.2075C95.6126 16.066 95.3036 15.8618 95.042 15.606C94.7835 15.3503 94.576 15.0494 94.43 14.7188C94.2803 14.3741 94.2031 14.0033 94.2031 13.6286C94.2031 13.2538 94.2803 12.883 94.43 12.5384C94.7191 11.859 95.2688 11.3188 95.96 11.0346C96.3152 10.8874 96.6967 10.8115 97.0821 10.8115C97.4675 10.8115 97.849 10.8874 98.2041 11.0346C98.5455 11.1773 98.8569 11.3813 99.1222 11.6361C99.3859 11.8919 99.5964 12.1958 99.7419 12.5308C99.8908 12.8763 99.9655 13.2484 99.9612 13.6236ZM97.6661 34.6259H94.9094V18.1122H99.2242V33.1021C99.2242 33.3022 99.1841 33.5003 99.1062 33.6852C99.0282 33.8701 98.914 34.038 98.7701 34.1795C98.6261 34.321 98.4552 34.4333 98.2671 34.5099C98.0789 34.5864 97.8773 34.6259 97.6737 34.6259H97.6661Z" fill="white"/>
<path d="M105.23 34.6261H102.486V18.1125C102.811 18.1122 103.132 18.1808 103.428 18.3135C103.724 18.4463 103.987 18.6402 104.2 18.8819L104.934 19.7165C105.62 19.103 106.415 18.6195 107.28 18.2905C108.153 17.9554 109.082 17.7853 110.019 17.7892C111.016 17.7829 112.004 17.9791 112.921 18.3656C113.812 18.7392 114.622 19.2788 115.305 19.9546C115.989 20.6331 116.535 21.4335 116.914 22.313C117.307 23.2229 117.506 24.2019 117.501 25.1901V33.1074C117.501 33.5102 117.338 33.8965 117.048 34.1813C116.758 34.4661 116.365 34.6261 115.955 34.6261H113.219V25.1901C113.221 24.7687 113.134 24.3515 112.964 23.9646C112.802 23.5902 112.568 23.2499 112.276 22.9621C111.982 22.6747 111.636 22.4442 111.256 22.2829C110.865 22.1159 110.443 22.0306 110.016 22.0323C109.157 22.0316 108.332 22.3649 107.721 22.9596C107.428 23.2467 107.194 23.5872 107.033 23.9621C106.863 24.349 106.776 24.7662 106.778 25.1876V33.1099C106.779 33.3099 106.74 33.5082 106.663 33.6933C106.586 33.8783 106.472 34.0464 106.328 34.1876C106.184 34.3288 106.012 34.4403 105.824 34.5156C105.635 34.5909 105.433 34.6285 105.23 34.6261Z" fill="white"/>
<path d="M129.67 34.6116H119.88C119.88 33.4994 120.329 32.4326 121.129 31.6459C121.929 30.8592 123.014 30.4169 124.146 30.4162H129.67C129.952 30.4149 130.222 30.3041 130.422 30.1079C130.622 29.9117 130.734 29.646 130.736 29.3686C130.752 29.251 130.73 29.1314 130.674 29.0264C130.617 28.9214 130.53 28.836 130.422 28.7821C130.184 28.6842 129.928 28.6373 129.67 28.6443H125.212C124.495 28.6485 123.785 28.5069 123.126 28.2282C121.847 27.6895 120.832 26.6828 120.296 25.4212C120.021 24.771 119.88 24.0739 119.88 23.3699C119.88 22.6659 120.021 21.9688 120.296 21.3185C120.832 20.0627 121.848 19.0638 123.126 18.5366C123.786 18.2616 124.496 18.1225 125.212 18.1281H129.621C130.753 18.1281 131.838 18.5698 132.639 19.356C133.439 20.1423 133.89 21.2088 133.89 22.321H125.22C124.937 22.3224 124.666 22.4335 124.467 22.6302C124.267 22.8269 124.155 23.0933 124.154 23.3711C124.153 23.5107 124.18 23.649 124.234 23.7781C124.288 23.9072 124.367 24.0245 124.468 24.123C124.565 24.2254 124.684 24.3064 124.816 24.3608C124.948 24.4152 125.09 24.4418 125.233 24.4388H129.67C130.377 24.4351 131.078 24.5583 131.74 24.8022C132.365 25.0272 132.939 25.3675 133.434 25.8047C133.935 26.2574 134.333 26.8087 134.603 27.4227C134.873 28.0368 135.008 28.6998 134.999 29.3686C135.005 30.0713 134.86 30.7672 134.574 31.4112C134.301 32.0318 133.912 32.5969 133.429 33.0778C132.944 33.5574 132.369 33.9396 131.735 34.2031C131.082 34.4753 130.379 34.6143 129.67 34.6116Z" fill="white"/>
</mask>
<g mask="url(#mask0_942_8941)">
<rect width="135" height="35" fill="url(#paint0_linear_942_8941)"/>
</g>
<defs>
<linearGradient id="paint0_linear_942_8941" x1="0" y1="35" x2="56.6072" y2="-51.3756" gradientUnits="userSpaceOnUse">
<stop stop-color="#50F2C4"/>
<stop offset="0.396745" stop-color="#26D0E3"/>
<stop offset="1" stop-color="#757AFF"/>
</linearGradient>
</defs>
</svg>
