<svg width="24" height="24" viewBox="0 0 24 24" fill="none" xmlns="http://www.w3.org/2000/svg">
<path d="M12.0237 5.02204C12.4376 5.00815 12.762 4.6613 12.7481 4.24732C12.7342 3.83334 12.3874 3.509 11.9734 3.52288L12.0237 5.02204ZM5.3452 11.3739L4.59557 11.3975C4.59586 11.4065 4.5963 11.4155 4.59692 11.4246L5.3452 11.3739ZM3.46976 16.2553L3.95228 16.8295C3.9658 16.8181 3.97891 16.8063 3.9916 16.794L3.46976 16.2553ZM2.827 16.7739L3.26029 17.3861C3.2727 17.3773 3.28483 17.3681 3.29668 17.3586L2.827 16.7739ZM9.14179 19.8925C9.55601 19.8925 9.89179 19.5567 9.89179 19.1425C9.89179 18.7282 9.55601 18.3925 9.14179 18.3925V19.8925ZM12.0232 3.52288C11.6092 3.509 11.2624 3.83334 11.2485 4.24732C11.2346 4.6613 11.5589 5.00815 11.9729 5.02204L12.0232 3.52288ZM18.6514 11.3739L19.3997 11.4244C19.4003 11.4154 19.4007 11.4065 19.401 11.3975L18.6514 11.3739ZM20.5268 16.2539L20.005 16.7926C20.0176 16.8049 20.0308 16.8167 20.0443 16.8281L20.5268 16.2539ZM21.1696 16.7725L20.6999 17.3572C20.7115 17.3665 20.7234 17.3755 20.7355 17.3841L21.1696 16.7725ZM14.8548 18.3925C14.4406 18.3925 14.1048 18.7282 14.1048 19.1425C14.1048 19.5567 14.4406 19.8925 14.8548 19.8925V18.3925ZM11.2484 4.27286C11.2484 4.68707 11.5841 5.02286 11.9984 5.02286C12.4126 5.02286 12.7484 4.68707 12.7484 4.27286H11.2484ZM12.7484 2C12.7484 1.58579 12.4126 1.25 11.9984 1.25C11.5841 1.25 11.2484 1.58579 11.2484 2H12.7484ZM9.1416 18.393C8.72739 18.393 8.3916 18.7288 8.3916 19.143C8.3916 19.5572 8.72739 19.893 9.1416 19.893V18.393ZM14.8551 19.893C15.2693 19.893 15.6051 19.5572 15.6051 19.143C15.6051 18.7288 15.2693 18.393 14.8551 18.393V19.893ZM9.8916 19.1426C9.8916 18.7284 9.55582 18.3926 9.1416 18.3926C8.72739 18.3926 8.3916 18.7284 8.3916 19.1426H9.8916ZM15.6051 19.1426C15.6051 18.7284 15.2693 18.3926 14.8551 18.3926C14.4408 18.3926 14.1051 18.7284 14.1051 19.1426H15.6051ZM11.9734 3.52288C7.76366 3.66407 4.46306 7.18714 4.59557 11.3975L6.09483 11.3503C5.98833 7.96655 8.6409 5.1355 12.0237 5.02204L11.9734 3.52288ZM4.59692 11.4246C4.70553 13.0283 4.10228 14.5984 2.94792 15.7166L3.9916 16.794C5.46304 15.3686 6.23192 13.3673 6.09349 11.3232L4.59692 11.4246ZM2.98724 15.6811C2.75399 15.8772 2.55257 16.0323 2.35731 16.1892L3.29668 17.3586C3.46423 17.224 3.70274 17.0392 3.95228 16.8295L2.98724 15.6811ZM2.3937 16.1617C2.11528 16.3588 1.85156 16.6494 1.65198 16.9639C1.4547 17.2748 1.27521 17.6799 1.25242 18.1162C1.22773 18.589 1.39386 19.0939 1.86804 19.4475C2.29746 19.7678 2.88683 19.8925 3.57117 19.8925V18.3925C3.02998 18.3925 2.82072 18.2868 2.76476 18.2451C2.75356 18.2367 2.74758 18.2481 2.75038 18.1944C2.75509 18.1043 2.80271 17.9501 2.91851 17.7676C3.03201 17.5887 3.16734 17.4519 3.26029 17.3861L2.3937 16.1617ZM3.57117 19.8925H9.14179V18.3925H3.57117V19.8925ZM11.9729 5.02204C15.3557 5.1355 18.0082 7.96655 17.9017 11.3503L19.401 11.3975C19.5335 7.18714 16.2329 3.66407 12.0232 3.52288L11.9729 5.02204ZM17.9031 11.3234C17.7651 13.3669 18.534 15.3675 20.005 16.7926L21.0487 15.7152C19.8946 14.5972 19.2914 13.0277 19.3997 11.4244L17.9031 11.3234ZM20.0443 16.8281C20.2938 17.0378 20.5323 17.2226 20.6999 17.3572L21.6393 16.1877C21.444 16.0309 21.2426 15.8757 21.0093 15.6797L20.0443 16.8281ZM20.7355 17.3841C20.8293 17.4507 20.9654 17.5884 21.0796 17.7678C21.1962 17.951 21.2442 18.1055 21.2491 18.1958C21.252 18.2491 21.2462 18.237 21.2355 18.245C21.1796 18.2866 20.9699 18.3925 20.4268 18.3925V19.8925C21.1122 19.8925 21.7023 19.7679 22.132 19.4476C22.607 19.0935 22.7726 18.5877 22.7469 18.1145C22.7232 17.6782 22.5428 17.2731 22.3451 16.9625C22.145 16.6481 21.8812 16.3578 21.6036 16.1608L20.7355 17.3841ZM20.4268 18.3925H14.8548V19.8925H20.4268V18.3925ZM12.7484 4.27286V2H11.2484V4.27286H12.7484ZM9.1416 19.893H14.8551V18.393H9.1416V19.893ZM8.3916 19.1426C8.3916 21.1346 10.0063 22.7497 11.9983 22.7497V21.2497C10.8349 21.2497 9.8916 20.3064 9.8916 19.1426H8.3916ZM11.9983 22.7497C13.9904 22.7497 15.6051 21.1346 15.6051 19.1426H14.1051C14.1051 20.3064 13.1617 21.2497 11.9983 21.2497V22.7497Z" fill="#515151"/>
</svg>
